<svg xmlns="http://www.w3.org/2000/svg" width="59.561" height="59.552" viewBox="0 0 59.561 59.552"><g id="Arm_Robot" data-name="Arm Robot" transform="translate(0.5 0.566)"><path id="Path_2076" data-name="Path 2076" d="M49.838,34H35.218A1.218,1.218,0,0,0,34,35.218v14.62a1.218,1.218,0,0,0,1.218,1.218h14.62a1.218,1.218,0,0,0,1.218-1.218V35.218A1.218,1.218,0,0,0,49.838,34Zm-6.092,2.437v2.437H41.31V36.437ZM48.62,48.62H36.437V36.437h2.437v3.655a1.218,1.218,0,0,0,1.218,1.218h4.873a1.218,1.218,0,0,0,1.218-1.218V36.437H48.62Z" transform="translate(7.424 7.428)" fill="#fff" stroke="#ff571d" stroke-width="1"></path><path id="Path_2077" data-name="Path 2077" d="M25.585,44.048l.962-21.065a8.626,8.626,0,0,0,3.411-4.423l16.289-4.873v6.262l-4.2,2.108a1.218,1.218,0,0,0-.621,1.425L43.86,32.01a1.218,1.218,0,0,0,1.218.889c1.157,0,1.121-.6,3.326-6.092h3.216c2.242,5.6,2.193,6.153,3.326,6.092s.938-.268,3.545-9.418a1.218,1.218,0,0,0-.621-1.413l-4.264-2.108V13.638A7.31,7.31,0,1,0,43.739,3.489C16.7,9.556,27.79,7.315,21.93,7.315a8.528,8.528,0,0,0-6.4,14.157L13.5,44.011a4.873,4.873,0,0,0-3.752,4.727H6.092A6.092,6.092,0,0,0,0,54.83v2.437a1.218,1.218,0,0,0,1.218,1.218h26.8a1.218,1.218,0,0,0,1.218-1.218V48.738A4.873,4.873,0,0,0,25.585,44.048Zm-2.437-.183h-7.2l1.876-20.553a8.419,8.419,0,0,0,6.274.768ZM54.582,27.917c-.975-2.68-1.109-3.545-2.193-3.545-6.6,0-5.385-.768-7.115,3.545l-1.218-4.13,3.753-1.852H52.1l3.716,1.852ZM51.17,19.5H48.734V14.515a6.823,6.823,0,0,0,2.437,0ZM49.952,2.441a4.873,4.873,0,1,1-4.873,4.873A4.873,4.873,0,0,1,49.952,2.441ZM42.74,6.206a7.188,7.188,0,0,0,1.438,5.58C29.752,16.1,30.459,15.965,30.459,15.843a8.528,8.528,0,0,0-2.753-6.262ZM21.93,9.751a6.092,6.092,0,1,1-6.092,6.092A6.092,6.092,0,0,1,21.93,9.751ZM2.437,54.83a3.655,3.655,0,0,1,3.655-3.655H9.747v4.873H2.437ZM26.8,56.048H12.183v-7.31A2.437,2.437,0,0,1,14.62,46.3h9.747A2.437,2.437,0,0,1,26.8,48.738Z" transform="translate(0 0)" fill="#fff" stroke="#ff571d" stroke-width="1"></path><path id="Path_2078" data-name="Path 2078" d="M19.092,40H14.218a1.218,1.218,0,1,0,0,2.437h4.873a1.218,1.218,0,1,0,0-2.437Z" transform="translate(2.838 8.738)" fill="#fff"></path><path id="Path_2079" data-name="Path 2079" d="M41.437,8.873A2.437,2.437,0,1,0,39,6.437,2.437,2.437,0,0,0,41.437,8.873ZM41.437,6.437Z" transform="translate(8.515 0.878)" fill="#fff"></path><path id="Path_2080" data-name="Path 2080" d="M18.655,17.31A3.655,3.655,0,1,0,15,13.655,3.655,3.655,0,0,0,18.655,17.31Zm0-4.873a1.218,1.218,0,1,1-1.218,1.218A1.218,1.218,0,0,1,18.655,12.437Z" transform="translate(3.275 2.188)" fill="#fff"></path></g></svg>