<svg xmlns="http://www.w3.org/2000/svg" width="57.47" height="50.641" viewBox="0 0 57.47 50.641"><g id="Coal_in_train" data-name="Coal in train" transform="translate(0.29 -2.494)"><path id="Path_2143" data-name="Path 2143" d="M14.343,39.343a1.182,1.182,0,1,0,1.338-.233A1.182,1.182,0,0,0,14.343,39.343Z" transform="translate(2.504 6.539)" fill="#fff" stroke="#ff571d" stroke-width="1"></path><path id="Path_2144" data-name="Path 2144" d="M34.022,39.347a1.182,1.182,0,1,0,.145,1.491A1.18,1.18,0,0,0,34.022,39.347Z" transform="translate(5.773 6.535)" fill="#fff" stroke="#ff571d" stroke-width="1"></path><path id="Path_2145" data-name="Path 2145" d="M53.135,14.817c-.366,0-.118.567-1.182-3.828-.106-.425-.083-.331-2.67-2.919-.721-.709-1.465-.2-3.9.614-2.08-3.06-2.021-3.143-2.6-3.32-5.01-1.182-5.116-1.394-5.719-.945l-3.911,2.93L29.16,3.344a1.182,1.182,0,0,0-1.678,0c-4.088,4.1-2.363,2.907-7.3,5.365L16.032,5.6c-.425-.319-.225-.236-5.435-.236-.532,0-.26-.106-5.435,3.781-.473.354-.4.461-1.442,5.672a3.545,3.545,0,1,0,.071,7.09L9.037,40.813h-.8a1.182,1.182,0,0,0-1.182,1.182v4.726A1.182,1.182,0,0,0,8.233,47.9H11.9a5.908,5.908,0,0,0,11.58,0h9.689a5.908,5.908,0,0,0,11.58,0h3.663a1.182,1.182,0,0,0,1.182-1.182V41.995a1.182,1.182,0,0,0-1.182-1.182h-.8c5.825-20.974,5.116-18.906,5.53-18.906a3.545,3.545,0,0,0,0-7.09Zm-5.046-4.561,1.619,1.619.733,2.942H41.649l.662-2.635C45.821,11.012,44.509,11.461,48.089,10.256Zm-10.056-3.6,3.734.933L43.02,9.465c-3.309,1.1-2.517.177-3.8,5.353H37.077L34.229,11.97V9.5Zm-9.713-.8,3.545,3.545c0,4.254-.4,3.143,1.879,5.424H27.6c1.028-3.108,1.182-1.749-1.382-6.853ZM18.147,14.817c.721-2.174.165-1.323,2.6-3.758l3.545-1.749,1.619,3.238-.8,2.269Zm-7.161-7.09h3.947l3.32,2.493c-2.009,2.009-1.406,1.016-2.6,4.6h-.78c-2.162-4.313-2.1-4.549-2.86-4.726l-3.32-.638ZM6.792,11.485l4.183.827,1.253,2.505H6.13ZM9.415,43.176H12.96c-2.139,2.824.579,2.363-3.545,2.363Zm8.271,7.09a3.545,3.545,0,1,1,3.545-3.545A3.545,3.545,0,0,1,17.686,50.266Zm15.479-4.726H23.476a5.719,5.719,0,0,0-1.063-2.363H34.229A5.719,5.719,0,0,0,33.165,45.539Zm5.79,4.726A3.545,3.545,0,1,1,42.5,46.721,3.545,3.545,0,0,1,38.955,50.266Zm8.271-4.726c-4.1,0-1.465.425-3.545-2.363h3.545Zm-2.08-4.726H11.495L6.248,21.907H50.393Zm7.988-21.269H3.507a1.182,1.182,0,0,1,0-2.363H53.135a1.182,1.182,0,0,1,0,2.363Z" transform="translate(0)" fill="#fff" stroke="#ff571d" stroke-width="1"></path></g></svg>