<svg xmlns="http://www.w3.org/2000/svg" width="60.785" height="50.821" viewBox="0 0 60.785 50.821"><g id="Company_office" data-name="Company office" transform="translate(0.5 -3.5)"><path id="Path_2146" data-name="Path 2146" d="M58.54,33.893H54.8V16.455h1.246a1.246,1.246,0,0,0,1.246-1.246V10.228a1.246,1.246,0,0,0-1.246-1.246H26.156V5.246A1.246,1.246,0,0,0,24.91,4H1.246A1.246,1.246,0,0,0,0,5.246V40.12a1.246,1.246,0,0,0,1.246,1.246H2.491v11.21a1.246,1.246,0,0,0,1.246,1.246h54.8a1.246,1.246,0,0,0,1.246-1.246V35.138A1.246,1.246,0,0,0,58.54,33.893Zm-1.246,2.491v2.491H26.156V36.384ZM52.312,28.91H39.857V23.928H52.312Zm0-7.473h-13.7a1.246,1.246,0,0,0-1.246,1.246v7.473A1.246,1.246,0,0,0,38.611,31.4h13.7v2.491H26.156V16.455H52.312ZM54.8,11.473v2.491H26.156V11.473ZM12.455,21.437v4.982H8.719V21.437Zm6.228,0v4.982H14.946V21.437ZM2.491,38.875V36.384H18.683v2.491Zm16.192-4.982H14.946V28.91h3.737Zm-6.228,0H8.719V28.91h3.737Zm-6.228,0H2.491V28.91H6.228Zm0-7.473H2.491V21.437H6.228ZM4.982,41.366h13.7V51.33H4.982ZM21.174,51.33V20.192a1.246,1.246,0,0,0-1.246-1.246H2.491V6.491H23.665V51.33Zm12.455,0V46.348h3.737V51.33Zm12.455,0V46.348h3.737V51.33Zm6.228,0V45.1a1.246,1.246,0,0,0-1.246-1.246H44.839A1.246,1.246,0,0,0,43.593,45.1V51.33H39.857V45.1a1.246,1.246,0,0,0-1.246-1.246H32.384A1.246,1.246,0,0,0,31.138,45.1V51.33H26.156V41.366H57.294V51.33Z" transform="translate(0 0)" fill="#fff" stroke="#ff571d" stroke-width="1"></path></g></svg>