<svg xmlns="http://www.w3.org/2000/svg" width="34.448" height="62.742" viewBox="0 0 34.448 62.742"><g id="Crane_hook_pulley" data-name="Crane hook pulley" transform="translate(-10.47 0.556)"><path id="Path_2081" data-name="Path 2081" d="M41.79,1l-2.206,9.684c-1.642-3.373-1.924-4.258-5.49-4.258V1.29a1.283,1.283,0,1,0-2.565,0v5.13h-7.7V1.29a1.283,1.283,0,1,0-2.565,0v5.13c-3.745,0-3.938,1.167-5.49,4.258L13.573,1a1.316,1.316,0,1,0-2.565.59L14.15,15.206c-.064,2.18.09,1.911,7.08,15.892v3.54A2.565,2.565,0,0,0,23.8,37.2V39.14A11.544,11.544,0,0,0,20.05,58.725c7.542,6.554,19.175.821,19.175-7.875,0-2.129.077-2.886.949-3.758a1.283,1.283,0,0,0-.949-2.193c-7.208,0-4.271,8.978-10.928,8.978-4.053,0-5.682-3.848-3.514-6.349a3.848,3.848,0,0,1,2.9-1.347,3.848,3.848,0,0,0,3.848-3.848V37.2a2.565,2.565,0,0,0,2.565-2.565V31.1c6.862-13.737,7.144-13.647,7.08-15.892L44.355,1.585A1.316,1.316,0,0,0,41.79,1ZM32.017,29.508H29.144L34.9,23.749ZM38.43,16.681,25.6,29.508h-2.18l-1.77-3.386,15.186-15.2c1.257,2.527,2.206,3.745,1.552,5.759Zm-3.283-7.7L20.435,23.7l-2.411-4.835L27.9,8.986ZM17.19,13.667c2-4.079,2.052-4.682,3.1-4.682h3.989l-7.4,7.388a3.848,3.848,0,0,1,.269-2.693ZM28.964,42.334a1.283,1.283,0,0,1-1.283,1.283,6.413,6.413,0,0,0-4.835,2.206c-3.566,4.092-.872,10.62,5.451,10.62s7.08-5.567,8.363-7.7c-.064.641-.064,1.283-.064,2.014a8.978,8.978,0,1,1-11.184-9.466c1.206-.308.962-1.283.962-4.13h2.565Zm-5.13-7.7V32.073h7.7v2.565Z" transform="translate(0 0)" fill="#fff" stroke="#ff571d" stroke-width="1"></path></g></svg>