<svg xmlns="http://www.w3.org/2000/svg" width="59.7" height="59.696" viewBox="0 0 59.7 59.696">
  <g id="Electricity" transform="translate(0.5 0.497)">
    <path id="Path_2233" data-name="Path 2233" d="M25.681,19.566H20.789V13.451h2.446v1.223a1.223,1.223,0,1,0,2.446,0V12.228a1.223,1.223,0,0,0-1.223-1.223h-4.17L14.516.623a1.223,1.223,0,0,0-2.128,0L6.616,11.006H2.446a1.223,1.223,0,0,0-1.223,1.223v2.446a1.223,1.223,0,1,0,2.446,0V13.451H6.115v6.115H1.223A1.223,1.223,0,0,0,0,20.789v2.446a1.223,1.223,0,1,0,2.446,0V22.012H6.115c0,9.661.6,3.449-3.485,29.35H1.223A1.223,1.223,0,0,0,0,52.584v4.892A1.223,1.223,0,0,0,1.223,58.7H25.681A1.223,1.223,0,0,0,26.9,57.476V52.584a1.223,1.223,0,0,0-1.223-1.223H24.275c-4.085-25.889-3.485-19.689-3.485-29.35h3.669v1.223a1.223,1.223,0,1,0,2.446,0V20.789A1.223,1.223,0,0,0,25.681,19.566ZM13.452,3.741l4.036,7.264H9.416ZM8.56,13.451h9.783v6.115H8.56ZM6.384,43.2,11.19,46.3l-5.882,3.84Zm1.064-6.7,2.9,1.223L7.02,39.132Zm6,2.629,5.381,2.3-5.381,3.412L8.071,41.383Zm0,8.67,5.613,3.669H7.839ZM21.6,50.139,15.714,46.36l4.806-3.094ZM16.558,37.751l2.9-1.223.428,2.6Zm2.507-3.73-5.613,2.446L7.839,34.021l.538-3.449h10.15Zm5.393,22.233H2.446V53.807H24.458ZM18.344,28.126H8.56V22.012h9.783Z" fill="#fff" stroke="#ff571d" stroke-width="1"/>
    <path id="Path_2234" data-name="Path 2234" d="M52.127,24.892H50.9V21.223A1.223,1.223,0,0,0,49.681,20H27.669a1.223,1.223,0,0,0-1.223,1.223v3.669H25.223A1.223,1.223,0,0,0,24,26.115v26.9a1.223,1.223,0,0,0,1.223,1.223h26.9a1.223,1.223,0,0,0,1.223-1.223v-26.9A1.223,1.223,0,0,0,52.127,24.892ZM28.892,22.446H48.458v2.446H28.892ZM33.783,51.8V44.458h9.783V51.8Zm17.121,0H46.012V44.458a1.223,1.223,0,1,0,0-2.446H31.337a1.223,1.223,0,0,0,0,2.446V51.8H26.446V27.337H50.9Z" transform="translate(5.35 4.458)" fill="#fff" stroke="#ff571d" stroke-width="1"/>
    <path id="Path_2235" data-name="Path 2235" d="M44.337,28H38.223A1.223,1.223,0,0,0,37,29.223V36.56a1.223,1.223,0,0,0,1.223,1.223h6.115A1.223,1.223,0,0,0,45.56,36.56V29.223A1.223,1.223,0,0,0,44.337,28Zm-1.223,7.337H39.446V30.446h3.669Z" transform="translate(8.248 6.241)" fill="#fff" stroke="#ff571d" stroke-width="1"/>
    <path id="Path_2236" data-name="Path 2236" d="M35.337,28H29.223A1.223,1.223,0,0,0,28,29.223V36.56a1.223,1.223,0,0,0,1.223,1.223h6.115A1.223,1.223,0,0,0,36.56,36.56V29.223A1.223,1.223,0,0,0,35.337,28Zm-1.223,7.337H30.446V30.446h3.669Z" transform="translate(6.241 6.241)" fill="#fff" stroke="#ff571d" stroke-width="1"/>
  </g>
</svg>
