<svg xmlns="http://www.w3.org/2000/svg" width="242.02" height="217.306" viewBox="0 0 242.02 217.306">
  <g id="Group_3" data-name="Group 3" transform="translate(-158 -1405)" opacity="0.07">
    <g id="Group_1" data-name="Group 1" transform="translate(158 1405)">
      <path id="Path_3" data-name="Path 3" d="M145.917,89.4l11.772-6.925L156.3,80.394a73.417,73.417,0,0,0-28.045-27.353l-2.077-1.385L119.6,63.082a64.809,64.809,0,0,0-26.66-6.925V43h-2.77A76.335,76.335,0,0,0,52.086,53.041l-2.077,1.385,6.925,11.426A58.77,58.77,0,0,0,37.2,85.241L25.426,78.662,24.041,80.74A75.058,75.058,0,0,0,14,118.48V120.9H27.5a57.62,57.62,0,0,0,7.271,26.314L23,153.8l1.385,2.077a73.417,73.417,0,0,0,28.045,27.353l2.077,1.385,6.925-11.426a64.809,64.809,0,0,0,26.66,6.925v13.157h2.424A76.335,76.335,0,0,0,128.6,183.226l2.077-1.385-6.925-11.426a57.7,57.7,0,0,0,19.389-19.389l11.772,6.579,1.039-2.077a69.947,69.947,0,0,0,10.387-37.394V115.71H153.188A54.236,54.236,0,0,0,145.917,89.4Zm7.271,60.938L141.415,144.1l-1.385,2.424a61.651,61.651,0,0,1-21.12,21.12l-2.077,1.385,6.579,11.426a78.478,78.478,0,0,1-30.815,8.31v-13.85H90.172a59.072,59.072,0,0,1-28.738-7.271l-2.077-1.039-6.579,11.426a68.827,68.827,0,0,1-22.505-22.159l11.772-6.579-1.731-2.424a58.437,58.437,0,0,1-7.963-28.391v-2.424h-13.5a66.9,66.9,0,0,1,8.31-30.469l11.772,6.579,1.385-2.077a57.843,57.843,0,0,1,21.12-20.774l2.077-1.385L56.587,56.5A73.025,73.025,0,0,1,87.4,48.194V58.581l.346,2.077h2.424a59.746,59.746,0,0,1,28.738,7.963l2.077,1.385,6.579-11.426A68.827,68.827,0,0,1,150.071,80.74l-11.426,6.579,1.385,2.077a52.53,52.53,0,0,1,7.963,27.7v1.731h13.5A71.165,71.165,0,0,1,153.188,150.334Z" transform="translate(-14 24.039)" fill="#fff"/>
      <path id="Path_4" data-name="Path 4" d="M68.6,51.7c-25.275,0-45.7,20.082-45.7,45.011s20.428,45.011,45.7,45.011,45.7-20.082,45.7-45.011A45.972,45.972,0,0,0,68.6,51.7Zm0,85.174c-22.159,0-40.51-18-40.51-39.817,0-22.159,18-39.817,40.51-39.817s40.51,18,40.51,39.817S90.763,136.874,68.6,136.874Z" transform="translate(7.915 45.462)" fill="#fff"/>
      <path id="Path_5" data-name="Path 5" d="M153.833,77.52a38.39,38.39,0,0,0-3.116-13.85l10.733-4.847L160.411,56.4a55.435,55.435,0,0,0-23.544-25.275l-2.077-1.385L128.9,39.78a49.137,49.137,0,0,0-13.85-4.155L116.093,24.2l-2.424-.346a60.969,60.969,0,0,0-33.931,7.271L77.66,32.509,83.546,42.55a47.8,47.8,0,0,0-10.733,9.695l-9.348-6.579-1.731,2.077A55.525,55.525,0,0,0,51,80.29v2.424H62.772a38.852,38.852,0,0,0,3.462,13.85L55.847,101.41l1.039,2.424A55.435,55.435,0,0,0,80.43,129.109l2.077,1.385,5.886-10.041a49.138,49.138,0,0,0,13.85,4.155L101.2,136.034l2.424-.346c1.731,0,3.462-.346,5.194-.346h0c10.041,0,20.082-2.077,28.738-7.271l2.077-1.039-5.886-9.695a47.805,47.805,0,0,0,10.733-9.695l9.348,6.579,1.039-2.077c6.925-9.695,10.041-20.774,10.041-32.893V76.827Zm-1.039,30.123-9.348-6.579-1.385,2.077a40.641,40.641,0,0,1-12.811,11.426l-2.077,1.385,5.886,10.041a51.873,51.873,0,0,1-23.89,5.886h0c-.692,0-1.385-.346-2.077-.346l1.039-11.426-2.424-.346a46.569,46.569,0,0,1-16.619-5.194l-2.077-1.385-5.886,9.695a50.978,50.978,0,0,1-18-19.389L73.505,98.64l-1.039-2.424A30.351,30.351,0,0,1,68.312,80.29V77.866H56.886a49.362,49.362,0,0,1,7.963-24.929L74.2,59.516l1.385-2.077A36.849,36.849,0,0,1,88.394,46.012l2.077-1.385-5.886-9.695a51.747,51.747,0,0,1,25.968-5.54l-.692,10.733,2.424.346A35.988,35.988,0,0,1,128.9,45.666l2.077,1.385,5.886-9.695a50.978,50.978,0,0,1,18,19.389l-10.387,4.847,1.039,2.424a40.173,40.173,0,0,1,3.809,16.619V83.06h11.426A48.151,48.151,0,0,1,152.794,107.643Z" transform="translate(77.108 -23.638)" fill="#fff"/>
      <path id="Path_6" data-name="Path 6" d="M85.922,32.7a25.278,25.278,0,1,0,25.622,25.275A25.492,25.492,0,0,0,85.922,32.7Zm0,48.127a22.854,22.854,0,1,1,23.2-22.852A23.128,23.128,0,0,1,85.922,80.827Z" transform="translate(100.008 -1.323)" fill="#fff"/>
      <path id="Path_7" data-name="Path 7" d="M80.5,34.9a17.661,17.661,0,1,0,18,17.658C98.509,42.863,90.2,34.9,80.5,34.9Zm0,30.123A12.469,12.469,0,1,1,93.315,52.558,12.711,12.711,0,0,1,80.5,65.023Z" transform="translate(105.425 4.094)" fill="#fff"/>
    </g>
  </g>
</svg>
