<svg xmlns="http://www.w3.org/2000/svg" width="51.778" height="51.778" viewBox="0 0 51.778 51.778">
  <g id="Industrial_Robot" data-name="Industrial Robot" transform="translate(0.35 0.35)">
    <path id="Path_2117" data-name="Path 2117" d="M19.192,6.385h2.128v3.6l-3.671,1.841a1.064,1.064,0,0,0-.585,1.234l2.128,7.449a1.064,1.064,0,0,0,1.064.777c1,.064.968-.489,2.905-5.321h2.809c1.947,4.863,1.9,5.374,2.905,5.321s.819-.234,3.1-8.226a1.064,1.064,0,0,0-.543-1.234L27.705,9.981v-3.6h2.128a3.192,3.192,0,0,0,3.192-3.192V1.064A1.064,1.064,0,0,0,31.962,0h-14.9A1.064,1.064,0,0,0,16,1.064V3.192A3.192,3.192,0,0,0,19.192,6.385ZM28.6,16.93c-.841-2.128-.979-3.1-1.958-3.1-5.768,0-4.7-.681-6.214,3.1l-1.064-3.607,3.192-1.617H26.3l3.192,1.617ZM25.577,9.577H23.449V6.385h2.128ZM18.128,2.128H30.9V3.192a1.064,1.064,0,0,1-1.064,1.064H19.192a1.064,1.064,0,0,1-1.064-1.064Z" transform="translate(1.026)" fill="#fff" stroke="#001134" stroke-width="0.7"/>
    <path id="Path_2118" data-name="Path 2118" d="M43.629,34.769H42.565V23.064A1.064,1.064,0,0,0,41.5,22H28.731a1.064,1.064,0,0,0-1.064,1.064V34.769H23.411V23.064A1.064,1.064,0,0,0,22.346,22H9.577a1.064,1.064,0,0,0-1.064,1.064V34.769H7.449a7.449,7.449,0,1,0,0,14.9h36.18a7.449,7.449,0,1,0,0-14.9ZM36.18,24.128v2.128H34.052V24.128Zm-6.385,0h2.128v3.192a1.064,1.064,0,0,0,1.064,1.064h4.256a1.064,1.064,0,0,0,1.064-1.064V24.128h2.128V34.769H29.8Zm-12.769,0v2.128H14.9V24.128Zm-6.385,0h2.128v3.192a1.064,1.064,0,0,0,1.064,1.064H18.09a1.064,1.064,0,0,0,1.064-1.064V24.128h2.128V34.769H10.641ZM43.629,47.539H7.449a5.321,5.321,0,0,1,0-10.641h36.18a5.321,5.321,0,0,1,0,10.641Z" transform="translate(0 1.411)" fill="#fff" stroke="#001134" stroke-width="0.7"/>
    <path id="Path_2119" data-name="Path 2119" d="M43.372,38H7.192a3.192,3.192,0,1,0,0,6.385h36.18a3.192,3.192,0,0,0,0-6.385ZM15.705,41.192a1.064,1.064,0,1,1,1.064,1.064A1.064,1.064,0,0,1,15.705,41.192Zm-1.937,1.064H10.193a3.054,3.054,0,0,0,0-2.128h3.575A3.054,3.054,0,0,0,13.769,42.256Zm6-2.128h2.511a3.054,3.054,0,0,0,0,2.128H19.77a3.054,3.054,0,0,0,0-2.128Zm4.448,1.064a1.064,1.064,0,1,1,1.064,1.064A1.064,1.064,0,0,1,24.218,41.192Zm4.065-1.064h2.511a3.054,3.054,0,0,0,0,2.128H28.283A3.054,3.054,0,0,0,28.283,40.128Zm4.448,1.064A1.064,1.064,0,1,1,33.8,42.256,1.064,1.064,0,0,1,32.731,41.192ZM36.8,40.128h3.575a3.054,3.054,0,0,0,0,2.128H36.8a3.054,3.054,0,0,0,0-2.128ZM6.128,41.192a1.064,1.064,0,1,1,1.064,1.064A1.064,1.064,0,0,1,6.128,41.192Zm37.244,1.064a1.064,1.064,0,1,1,1.064-1.064A1.064,1.064,0,0,1,43.372,42.256Z" transform="translate(0.256 2.436)" fill="#fff" stroke="#001134" stroke-width="0.7"/>
  </g>
</svg>
