<svg xmlns="http://www.w3.org/2000/svg" width="48.826" height="61.426" viewBox="0 0 48.826 61.426">
  <g id="Male_Worker" data-name="Male Worker" transform="translate(-4.5 0.51)">
    <path id="Path_2263" data-name="Path 2263" d="M47.9,41.94,33.947,38.857V36.4a10.069,10.069,0,0,0,5.034-8.709V26.435h.629a4.405,4.405,0,0,0,3.574-6.96c1.12-1.007.831-2.24.831-4.367A2.517,2.517,0,0,0,41.5,12.59c-.315,0,.088-3.876-3.688-7.627-.352-.352-.327,0-.126-.881A1.259,1.259,0,0,0,35.42,3.1a12.7,12.7,0,0,0-2.832-1.259A2.517,2.517,0,0,0,30.172,0c-2.2,0-4.3-.365-4.934,1.838A12.7,12.7,0,0,0,22.406,3.1a1.259,1.259,0,0,0-2.265.982l.151.629a12.347,12.347,0,0,0-3.9,7.879,2.517,2.517,0,0,0-2.58,2.517c0,2.328-.227,3.411.831,4.367-1.913,2.681-.516,6.96,4.2,6.96v1.259A10.069,10.069,0,0,0,23.879,36.4v2.442L9.921,41.94A6.293,6.293,0,0,0,5,48.095V59.158a1.259,1.259,0,0,0,1.259,1.259H51.567a1.259,1.259,0,0,0,1.259-1.259V48.095A6.293,6.293,0,0,0,47.9,41.94Zm2.4,6.154v4.77H30.172V47.151l6.167-5.185,11.013,2.442a3.776,3.776,0,0,1,2.958,3.688Zm0,9.8H30.172V55.382H50.309Zm-10.7-33.982h-.629V20.142h.629a1.888,1.888,0,1,1,0,3.776Zm-.7-11.327H32.689V4.523A10.069,10.069,0,0,1,34.7,5.63l-.755,2.882a1.259,1.259,0,0,0,1.259,1.561c1.183,0,1.259-1.082,1.586-2.442A9.892,9.892,0,0,1,38.906,12.59ZM27.654,2.522h2.517V12.59H27.654ZM21.022,7.644c.34,1.347.415,2.429,1.6,2.429a1.259,1.259,0,0,0,1.259-1.561L23.124,5.63a10.069,10.069,0,0,1,2.014-1.108V12.59H18.92A9.943,9.943,0,0,1,21.022,7.644Zm-4.694,7.463H41.5v2.517H16.327Zm1.888,8.81a1.888,1.888,0,1,1,0-3.776h.629v3.776Zm3.146,3.776V20.142h15.1v7.551a7.551,7.551,0,0,1-15.1,0ZM31.43,37.435v1.422a2.517,2.517,0,0,0,1.838,2.4l-4.355,3.662-4.355-3.662a2.517,2.517,0,0,0,1.838-2.4V37.435A9.754,9.754,0,0,0,31.43,37.435ZM10.475,44.407l11.013-2.442,6.167,5.185v5.714H7.517v-4.77a3.776,3.776,0,0,1,2.958-3.688ZM7.517,55.382H27.654V57.9H7.517Z" transform="translate(0 0)" fill="#fff" stroke="#ff571d" stroke-width="1"/>
  </g>
</svg>
