<svg xmlns="http://www.w3.org/2000/svg" width="60.144" height="45.364" viewBox="0 0 60.144 45.364"><g id="mobile_power_generator" data-name="mobile power generator" transform="translate(0.5 -3.5)"><path id="Path_2272" data-name="Path 2272" d="M12.066,34.357a1.233,1.233,0,1,0,.006,1.743A1.233,1.233,0,0,0,12.066,34.357Z" transform="translate(2.313 6.965)" fill="#fff" stroke="#ff571d" stroke-width="1"></path><path id="Path_2273" data-name="Path 2273" d="M57.911,36.036H46.822V33.572h1.232a1.232,1.232,0,0,0,1.232-1.232V5.232A1.232,1.232,0,0,0,48.054,4H3.7A1.232,1.232,0,0,0,2.464,5.232V32.34A1.232,1.232,0,0,0,3.7,33.572H4.929v2.464h-3.7A1.232,1.232,0,0,0,0,37.268v3.7a2.464,2.464,0,0,0,2.464,2.464H7.516a6.161,6.161,0,0,0,12.075,0H51.751v2.464a1.232,1.232,0,1,0,2.464,0V43.429h2.464a2.464,2.464,0,0,0,2.464-2.464v-3.7A1.232,1.232,0,0,0,57.911,36.036ZM4.929,6.464H46.822V31.107H4.929ZM7.393,33.572H44.358v2.464H7.393ZM2.464,38.5H8.625a5.964,5.964,0,0,0-1.146,2.464H2.464Zm11.089,7.393a3.7,3.7,0,1,1,3.7-3.7A3.7,3.7,0,0,1,13.554,45.893Zm43.126-4.929H19.591A5.964,5.964,0,0,0,18.482,38.5h38.2Z" fill="#fff" stroke="#ff571d" stroke-width="1"></path><path id="Path_2274" data-name="Path 2274" d="M26.232,16.393h9.857a1.232,1.232,0,0,0,1.232-1.232V10.232A1.232,1.232,0,0,0,36.089,9H26.232A1.232,1.232,0,0,0,25,10.232v4.929A1.232,1.232,0,0,0,26.232,16.393Zm1.232-4.929h7.393v2.464H27.464Z" transform="translate(5.804 1.161)" fill="#fff" stroke="#ff571d" stroke-width="1"></path><path id="Path_2275" data-name="Path 2275" d="M7.232,21.322v3.7A1.232,1.232,0,0,0,8.464,26.25H24.482a1.232,1.232,0,0,0,1.232-1.232V10.232A1.232,1.232,0,0,0,24.482,9H8.464a1.232,1.232,0,0,0-1.232,1.232v3.7a1.232,1.232,0,1,0,0,2.464v2.464a1.232,1.232,0,0,0,0,2.464ZM9.7,16.393a1.232,1.232,0,1,0,0-2.464V11.464H23.25V23.786H9.7V21.322a1.232,1.232,0,1,0,0-2.464Z" transform="translate(1.393 1.161)" fill="#fff" stroke="#ff571d" stroke-width="1"></path><path id="Path_2276" data-name="Path 2276" d="M33,18.232v4.929a1.232,1.232,0,0,0,2.464,0V18.232a1.232,1.232,0,1,0-2.464,0Z" transform="translate(7.661 3.018)" fill="#fff" stroke="#ff571d" stroke-width="1"></path><path id="Path_2277" data-name="Path 2277" d="M29,18.232v4.929a1.232,1.232,0,0,0,2.464,0V18.232a1.232,1.232,0,0,0-2.464,0Z" transform="translate(6.733 3.018)" fill="#fff" stroke="#ff571d" stroke-width="1"></path><path id="Path_2278" data-name="Path 2278" d="M27.464,23.161V18.232a1.232,1.232,0,1,0-2.464,0v4.929a1.232,1.232,0,0,0,2.464,0Z" transform="translate(5.804 3.018)" fill="#fff" stroke="#ff571d" stroke-width="1"></path></g></svg>