<svg xmlns="http://www.w3.org/2000/svg" width="54.142" height="54.115" viewBox="0 0 54.142 54.115">
  <g id="Modern_Factory" data-name="Modern Factory" transform="translate(0.522 0.5)">
    <path id="Path_2264" data-name="Path 2264" d="M52.013,33.2h-2.28c-.376-5.533-1.782-26.668-2.147-32.168A1.107,1.107,0,0,0,46.48,0H39.84a1.107,1.107,0,0,0-1.107,1.029l-.985,14.662c-.9-.266-.443-.2-7.868-.2a4.426,4.426,0,0,0-4.426,4.426v4.426H16.6a3.32,3.32,0,0,0-3.32,3.32v1.107H7.75a3.32,3.32,0,0,0-3.32,3.32v3.32a3.32,3.32,0,0,0-2.711,1.815C-.439,41.574,0,38.619,0,52.009A1.107,1.107,0,0,0,1.11,53.116H18.815a1.107,1.107,0,0,0,1.107-1.107V49.8h2.213v2.213a1.107,1.107,0,0,0,1.107,1.107H52.013a1.107,1.107,0,0,0,1.107-1.107V34.3A1.107,1.107,0,0,0,52.013,33.2Zm-1.107,4.426H24.348V35.41H50.906ZM40.947,33.2c0-14.02.354-14.452-1.107-16.123l.3-3.8h6.042L47.509,33.2Zm5.09-22.131H40.283l.144-2.213h5.455Zm-.6-8.853.3,4.426H40.582l.3-4.426ZM27.668,19.918a2.213,2.213,0,0,1,2.213-2.213h6.639a2.213,2.213,0,0,1,2.213,2.213V33.2H27.668V26.558h2.213v1.107a1.107,1.107,0,0,0,1.107,1.107h4.426a1.107,1.107,0,0,0,1.107-1.107V23.238a1.107,1.107,0,0,0-1.107-1.107H30.988a1.107,1.107,0,0,0-1.107,1.107v1.107H27.668Zm4.426,4.426h2.213v2.213H32.094Zm-16.6,3.32A1.107,1.107,0,0,1,16.6,26.558h8.853V33.2H23.242A1.107,1.107,0,0,0,22.135,34.3v8.853H19.922c0-1.593.1-2.28-.354-3.176-1.107-2.313-1.715-4.426-4.072-4.548ZM7.75,30.984h5.533V35.41c-2.069.155-2.645,1.693-3.32,3.032-.664-1.328-1.217-2.877-3.32-3.032v-3.32A1.107,1.107,0,0,1,7.75,30.984ZM2.217,41.463c0-.343,0-.221,1.483-3.231.365-.73.9-.609,2.678-.609.874,0,.918.465,2.357,3.32.166.321.122-.266.122,9.959H2.217ZM17.709,50.9H11.069V41.463c0-.343,0-.221,1.483-3.231.365-.73.9-.609,2.678-.609.874,0,.918.465,2.357,3.32C17.775,41.331,17.709,40.744,17.709,50.9Zm2.213-3.32V45.37h2.213v2.213ZM33.2,50.9V44.263h8.853V50.9Zm17.705,0H44.267V44.263a1.107,1.107,0,1,0,0-2.213H30.988a1.107,1.107,0,1,0,0,2.213V50.9H24.348V39.837H50.906Z" transform="translate(0 0)" fill="#fff" stroke="#ff571d" stroke-width="1"/>
  </g>
</svg>
