<svg xmlns="http://www.w3.org/2000/svg" width="63.964" height="63.959" viewBox="0 0 63.964 63.959"><g id="Oil_Pump" data-name="Oil Pump" transform="translate(0.5 0.493)"><path id="Path_2125" data-name="Path 2125" d="M61.652,55.1H56.4V48.537a1.312,1.312,0,0,0-1.312-1.312H53.781V28.258l3.345-2.243c1.233-.813,4.578-10.35,1.036-20.109-2.846-7.8-1.548-7.372-9.1-1.705-.761.564-.538,1.049-.184,4.027l-43,7.582a3.935,3.935,0,0,0-.63,7.569V39.355H3.935a1.312,1.312,0,0,0-1.312,1.312V55.1H1.312A1.312,1.312,0,0,0,0,56.408v5.247a1.312,1.312,0,0,0,1.312,1.312h60.34a1.312,1.312,0,0,0,1.312-1.312V56.408A1.312,1.312,0,0,0,61.652,55.1Zm-7.87-5.247V55.1H51.158V49.849Zm-3.935-2.623a1.312,1.312,0,0,0-1.312,1.312V55.1H43.287V51.161a1.312,1.312,0,0,0-1.312-1.312h-1.43L38.04,22.185a1.312,1.312,0,0,0-1.312-1.194V18.367l13.117-2.3c1.718,14.56,1.312,7.647,1.312,31.167ZM15.741,55.1V40.667a1.312,1.312,0,0,0-1.312-1.312H13.117V22.526L26.235,20.2v.787a1.312,1.312,0,0,0-1.22.892c-.118.367.092-1.6-2.623,27.966h-1.4a1.312,1.312,0,0,0-1.312,1.312V55.1Zm11.6-30.419,7.582,5.247L26.445,34.4ZM26.025,38.555l9.484,3.529-10.4,6.559Zm11.307,5.47.577,5.824H28.15Zm-9.261-7.5,8.185-4.329.7,7.634Zm2.335-12.908h5.129l.341,3.817Zm-1.548-2.623V19.745l5.247-.918v2.164ZM22.3,52.473H40.664V55.1H22.3ZM54.463,3.427,55.7,6.8a23.8,23.8,0,0,1-.354,17.249l-1.823,1.22L51.237,5.853ZM6.323,18.367l42.855-7.529.315,2.623-42.7,7.529a1.333,1.333,0,0,1-.472-2.623ZM7.87,23.444l2.623-.459V39.355H7.87ZM5.247,41.979h7.87V55.1H5.247ZM60.34,60.343H2.623V57.72H60.34Z" transform="translate(0 0)" fill="#fff" stroke="#ff571d" stroke-width="1"></path></g></svg>