<svg xmlns="http://www.w3.org/2000/svg" xmlns:xlink="http://www.w3.org/1999/xlink" width="177.267" height="165.112" viewBox="0 0 177.267 165.112">
  <defs>
    <filter id="Path_2281" x="0" y="0" width="177.267" height="165.112" filterUnits="userSpaceOnUse">
      <feOffset dy="10" input="SourceAlpha"/>
      <feGaussianBlur stdDeviation="17.5" result="blur"/>
      <feFlood flood-color="#ff571d" flood-opacity="0.502"/>
      <feComposite operator="in" in2="blur"/>
      <feComposite in="SourceGraphic"/>
    </filter>
  </defs>
  <g transform="matrix(1, 0, 0, 1, 0, 0)" filter="url(#Path_2281)">
    <path id="Path_2281-2" data-name="Path 2281" d="M9.945-110.5q0-13.481,10.829-25.636t18.343-15.028l3.315,5.3a35.861,35.861,0,0,0-12.818,11.713,34.549,34.549,0,0,0-6.188,15.912,16.229,16.229,0,0,1,7.183-1.326,9.635,9.635,0,0,1,7.735,3.978q3.2,3.978,3.2,10.5a12.509,12.509,0,0,1-4.641,10.276,17.844,17.844,0,0,1-11.6,3.757A14.161,14.161,0,0,1,14.144-95.8Q9.945-100.555,9.945-110.5Zm39.78,0q0-13.481,10.829-25.636T78.9-151.164l3.315,5.3a35.861,35.861,0,0,0-12.818,11.713,34.549,34.549,0,0,0-6.188,15.912,16.229,16.229,0,0,1,7.183-1.326,9.635,9.635,0,0,1,7.735,3.978q3.2,3.978,3.2,10.5a12.509,12.509,0,0,1-4.641,10.276,17.844,17.844,0,0,1-11.6,3.757A14.161,14.161,0,0,1,53.924-95.8Q49.725-100.555,49.725-110.5Z" transform="translate(42.55 193.66)" fill="#ff571d"/>
  </g>
</svg>
