<svg xmlns="http://www.w3.org/2000/svg" viewBox="0 0 74 67"><mask id="Group 9__a" style="mask-type:alpha" maskUnits="userSpaceOnUse" x="29" y="14" width="45" height="53"><path fill-rule="evenodd" clip-rule="evenodd" d="M29.186 14.16h44.06v52.206h-44.06V14.16Z" fill="#fff"></path></mask><g mask="url(#Group 9__a)"><path fill-rule="evenodd" clip-rule="evenodd" d="M65.124 53.634c-6.37 6.61-14.71 10.558-22.315 10.558-5.239 0-6.798-.976-9.629-2.744a72.303 72.303 0 0 0-1.899-1.16v-.475c15.194-.569 31.441-13.334 31.441-24.988 0-7.167-1.581-11.16-4.072-14.31.589-.177 1.164-.536 1.542-1.214.843.557 1.686.91 2.514 1.233 1.483.581 2.885 1.128 4.46 3.034 3.231 3.915 3.938 7.882 3.938 9.082 0 .176.009.427.02.745.108 3.354.438 13.558-6 20.239Zm-33.843 3.344c.668-.706 3.417-3.116 11.845-5.89 9.646-3.173 15.403-10.067 15.403-18.438 0-1.364.024-2.662.046-3.874.032-1.7.052-3.188.015-4.497 1.297 2.485 2.036 5.685 2.036 10.546 0 10.411-15.405 22.24-29.345 22.812v-.659Zm25.152-39.556a6.83 6.83 0 0 0-.087-.975c-.004-.036-.011-.072-.017-.11l.104-.002c1.28 0 2.096.644 2.096 1.087 0 .87-.123 1.088-1.048 1.088s-1.048-.219-1.048-1.088ZM73.202 32.65c0-1.77-.93-6.24-4.446-10.496-1.924-2.33-3.723-3.034-5.311-3.656-1.066-.417-1.996-.802-2.89-1.635-.333-1.553-2.017-2.704-4.122-2.704-.547 0-1.334.071-1.836.674-.513.618-.404 1.38-.323 1.936.029.202.063.422.063.653 0 1.492.547 2.306 1.233 2.754.04.065.068.134.122.191.922.957.856 4.556.788 8.367a200.95 200.95 0 0 0-.047 3.916c0 7.374-5.21 13.491-13.939 16.366-10.794 3.552-12.936 6.637-13.145 6.977a1.123 1.123 0 0 0-.163.584v4.35c0 .399.209.766.544.954.905.515 1.67.993 2.37 1.43 2.944 1.84 4.888 3.056 10.709 3.056 8.146 0 17.043-4.185 23.797-11.196 4.698-4.877 6.923-12.226 6.612-21.848-.01-.286-.016-.515-.016-.673Z"></path></g><mask id="Group 9__b" style="mask-type:alpha" maskUnits="userSpaceOnUse" x="0" y="0" width="48" height="48"><path fill-rule="evenodd" clip-rule="evenodd" d="M0 0h47.259v47.258H0V0Z" fill="#fff"></path></mask><g mask="url(#Group 9__b)"><path fill-rule="evenodd" clip-rule="evenodd" d="M23.63 43.149c-2.1 0-3.63.836-4.744 1.446-.573.313-1.112.608-1.421.608-.863 0-3.884-.2-6.465-2.78l-.226-.227c-2.61-2.6-8.717-8.684-8.717-20.62 0-7.01 6.129-10.274 10.272-10.274 7.708 0 10.538 2.743 10.56 2.764l.008.007c.042.042.098.069.146.102.058.042.11.09.174.118.045.021.098.023.149.037.075.02.15.044.228.045.012.002.022.007.037.007.052 0 .099-.022.15-.03.066-.01.131-.016.197-.04.065-.023.121-.06.18-.095.04-.024.086-.037.123-.067.035-.03 3.589-2.848 10.65-2.848 4.143 0 10.274 3.263 10.274 10.273 0 12.381-5.273 17.363-8.105 20.039-.31.291-.591.56-.84.808-2.581 2.581-5.602 2.78-6.465 2.78-.309 0-.849-.294-1.42-.607-1.116-.61-2.644-1.446-4.744-1.446m14.08.727c.237-.237.506-.492.8-.768 3.057-2.888 8.748-8.265 8.748-21.533 0-8.41-7.357-12.328-12.328-12.328-4.948 0-8.315 1.256-10.19 2.225.538-6.479 3.831-9.417 7.107-9.417a1.027 1.027 0 0 0 0-2.055c-4.131 0-8.55 3.606-9.167 11.456-1.76-.98-5.01-2.21-10.353-2.21C7.357 9.247 0 13.165 0 21.577c0 12.79 6.534 19.297 9.323 22.075l.225.225c3.139 3.139 6.854 3.382 7.916 3.382.833 0 1.598-.419 2.408-.86 1.021-.559 2.183-1.195 3.758-1.195 1.574 0 2.735.636 3.758 1.196.809.44 1.574.86 2.406.86 1.064 0 4.78-.244 7.917-3.383"></path></g><path fill-rule="evenodd" clip-rule="evenodd" d="M14.612 37.79c-2.77-2.441-8.53-7.518-8.53-17.3 0-.561-.51-1.016-1.139-1.016-.632 0-1.141.455-1.141 1.015 0 10.627 6.215 16.107 9.204 18.74l.258.227c.22.197.513.296.804.296.292 0 .585-.1.808-.3a.935.935 0 0 0-.005-1.433l-.26-.23Z"></path></svg>