<svg xmlns="http://www.w3.org/2000/svg" viewBox="0 0 77 53"><path fill-rule="evenodd" clip-rule="evenodd" d="M73.385 39.184c0 .875-.765 1.585-1.699 1.585h-3.397c-.935 0-1.7-.71-1.7-1.585V13.816c0-.875.765-1.585 1.7-1.585h3.397c.934 0 1.699.71 1.699 1.585v25.368Zm-9.513 9.558c0 .85-.764 1.54-1.699 1.54h-3.397c-.934 0-1.699-.69-1.699-1.54V5.617c0-.85.765-1.54 1.699-1.54h3.397c.935 0 1.699.69 1.699 1.54v43.124Zm-40.77-20.203H54.36V25.82H23.103v2.718Zm-4.077 20.203c0 .85-.764 1.54-1.698 1.54h-3.398c-.934 0-1.699-.69-1.699-1.54V5.618c0-.851.765-1.541 1.7-1.541h3.397c.934 0 1.698.69 1.698 1.54v43.125ZM7.814 40.769H4.416c-.934 0-1.698-.71-1.698-1.585V13.816c0-.875.764-1.585 1.698-1.585h3.398c.934 0 1.699.71 1.699 1.585v25.368c0 .875-.765 1.585-1.7 1.585ZM68.175 9.353c-.558 0-1.087.112-1.585.287V4.676C66.59 2.098 64.456 0 61.833 0h-3.17c-2.623 0-4.757 2.098-4.757 4.676v17.148h-31.71V4.676C22.197 2.098 20.063 0 17.44 0h-3.17c-2.623 0-4.757 2.098-4.757 4.676V9.64a4.774 4.774 0 0 0-1.586-.287h-3.17C2.133 9.353 0 11.45 0 14.029v24.942c0 2.578 2.134 4.676 4.756 4.676h3.171c.558 0 1.088-.112 1.586-.287v4.964c0 2.578 2.134 4.676 4.756 4.676h3.171c2.622 0 4.757-2.098 4.757-4.676V32.718h31.709v15.605c0 2.579 2.134 4.677 4.756 4.677h3.171c2.623 0 4.757-2.098 4.757-4.676V43.36a4.774 4.774 0 0 0 1.585.287h3.171c2.623 0 4.757-2.098 4.757-4.676V14.029c0-2.578-2.134-4.676-4.757-4.676h-3.17Z"></path></svg>