<svg xmlns="http://www.w3.org/2000/svg" viewBox="0 0 56 56"><path fill-rule="evenodd" clip-rule="evenodd" d="M43 53.635c-5.864 0-10.636-4.772-10.636-10.636 0-5.864 4.772-10.637 10.636-10.637 5.864 0 10.636 4.773 10.636 10.637 0 5.864-4.772 10.636-10.636 10.636M43 30c-7.166 0-13 5.83-13 13 0 7.169 5.834 13 13 13s13-5.831 13-13c0-7.17-5.834-13-13-13"></path><path fill-rule="evenodd" clip-rule="evenodd" d="m50.928 38.35-8.855 8.75-4-3.95a1.226 1.226 0 0 0-1.718 0 1.19 1.19 0 0 0 0 1.696l4.858 4.8a1.22 1.22 0 0 0 1.717 0l9.715-9.6a1.19 1.19 0 0 0 0-1.696 1.226 1.226 0 0 0-1.717 0"></path><mask id="Group 26__a" style="mask-type:alpha" maskUnits="userSpaceOnUse" x="0" y="0" width="56" height="56"><path fill-rule="evenodd" clip-rule="evenodd" d="M0 0h56v55.999H0V0Z" fill="#fff"></path></mask><g mask="url(#Group 26__a)"><path fill-rule="evenodd" clip-rule="evenodd" d="M29.738 52.843c-.989 1.134-2.795 1.01-3.635-.161a.71.71 0 0 0-.075-.096L4.837 23.534a13.316 13.316 0 0 1-2.504-7.784c0-7.399 6.018-13.417 13.417-13.417 4.566 0 8.78 2.299 11.27 6.153.43.665 1.53.665 1.96 0 2.49-3.854 6.704-6.153 11.27-6.153 7.399 0 13.417 6.018 13.417 13.417 0 2.8-.866 5.493-2.497 7.775l-2.798 3.833a1.168 1.168 0 0 0 1.888 1.375l2.802-3.843A15.643 15.643 0 0 0 56 15.75C56 7.063 48.935 0 40.25 0 35.448 0 30.98 2.163 28 5.864A15.682 15.682 0 0 0 15.75 0C7.065 0 0 7.063 0 15.75a15.63 15.63 0 0 0 2.945 9.149l21.261 29.148c.026.033.047.063.075.091A4.672 4.672 0 0 0 28 56c1.328 0 2.606-.595 3.502-1.631a1.167 1.167 0 0 0-1.764-1.526"></path></g></svg>