<svg xmlns="http://www.w3.org/2000/svg" viewBox="0 0 71 70"><path fill-rule="evenodd" clip-rule="evenodd" d="M54.564 40.473c-7.414 0-13.447 5.948-13.447 13.257 0 7.31 6.033 13.258 13.447 13.258 7.414 0 13.447-5.948 13.447-13.258 0-7.309-6.033-13.257-13.447-13.257m0 29.46c-9.06 0-16.435-7.267-16.435-16.203 0-8.935 7.375-16.204 16.435-16.204C63.624 37.526 71 44.794 71 53.73s-7.375 16.204-16.435 16.204"></path><path fill-rule="evenodd" clip-rule="evenodd" d="M52.218 60.86c-.385 0-.77-.14-1.064-.417l-6.01-5.703a1.38 1.38 0 0 1 0-2.02 1.565 1.565 0 0 1 2.127 0l4.947 4.697 10.956-10.4a1.565 1.565 0 0 1 2.128 0 1.38 1.38 0 0 1 0 2.02l-12.02 11.406c-.295.277-.68.416-1.064.416"></path><mask id="Group 10879356__a" style="mask-type:alpha" maskUnits="userSpaceOnUse" x="0" y="0" width="69" height="70"><path fill-rule="evenodd" clip-rule="evenodd" d="M0 0h68.37v70H0V0Z" fill="#fff"></path></mask><g mask="url(#Group 10879356__a)"><path fill-rule="evenodd" clip-rule="evenodd" d="M13.377 70a1.43 1.43 0 0 1-.904-.328 1.657 1.657 0 0 1-.553-1.576l4.301-23.051L.434 28.128a1.691 1.691 0 0 1-.357-1.64c.184-.573.654-.988 1.216-1.067l21.527-3.058L32.856.81c.5-1.08 2.158-1.08 2.658 0l10.035 21.554 21.528 3.058c.562.08 1.032.494 1.216 1.067.178.576.041 1.21-.357 1.64L58.81 37.9a1.413 1.413 0 0 1-2.102 0 1.675 1.675 0 0 1 0-2.252l6.995-7.491-19.325-2.746a1.498 1.498 0 0 1-1.136-.866L34.185 5.087l-9.058 19.458c-.22.471-.645.796-1.135.866L4.664 28.157l14.224 15.235c.35.379.502.917.404 1.44l-3.864 20.696 18.091-9.692c.42-.226.913-.226 1.332 0 .734.392 1.067 1.37.698 2.153-.21.462-.591.765-1.016.863l-20.49 10.98c-.212.11-.44.168-.666.168"></path></g></svg>