<svg xmlns="http://www.w3.org/2000/svg" width="60" height="60" viewBox="0 0 60 60" fill="none"><rect width="60" height="60" rx="30" fill="#F77A4F" fill-opacity="0.25"></rect><g clip-path="url(#clip0_25_605)"><path d="M26.7794 16.0108C30.0498 16.0108 33.3202 16.0295 36.5922 16C37.7334 15.9891 38.5936 16.4208 39.2944 17.2717C39.9368 18.0496 40.2762 18.9472 40.4624 19.9146C40.4829 20.0186 40.4608 20.0854 40.3472 20.1195C40.1089 20.1925 39.8689 20.2484 39.6211 20.2795C39.4964 20.295 39.4696 20.2298 39.4491 20.1257C39.3244 19.5108 39.1382 18.9146 38.8193 18.368C38.4405 17.7189 37.9307 17.222 37.151 17.0667C36.9521 17.0279 36.7485 17.0186 36.5449 17.0186C31.0584 17.0186 25.5719 17.0186 20.0855 17.0217C19.7966 17.0217 19.5093 17.0357 19.2205 17.0465C19.1637 17.0481 19.0911 17.0264 19.0579 17.0869C19.0232 17.1521 19.0895 17.1909 19.1242 17.2344C19.7035 17.958 20.0586 18.7779 20.2291 19.6785C20.3112 20.1102 20.3585 20.545 20.3585 20.9844C20.3585 28.0015 20.3585 35.0186 20.3585 42.0341C20.3585 42.1894 20.3443 42.3431 20.3522 42.4984C20.3648 42.7795 20.5037 42.9223 20.7847 42.9549C20.9141 42.9689 21.0467 42.9782 21.1761 42.9767C27.0824 42.9425 32.9872 42.9611 38.8935 42.9673C38.985 42.9673 39.0782 42.9673 39.1681 42.9503C39.3954 42.9099 39.5233 42.7655 39.5343 42.5388C39.5422 42.3524 39.5343 42.1646 39.5343 41.9782C39.5359 38.0031 39.5391 34.0279 39.5422 30.0512C39.5422 29.9037 39.5501 29.7546 39.558 29.6071C39.5643 29.4984 39.6132 29.4813 39.6906 29.5574C39.9652 29.8245 40.2383 30.0947 40.5129 30.3618C40.5982 30.4441 40.5871 30.5481 40.5871 30.6506C40.5871 34.3167 40.5871 37.9829 40.5871 41.649C40.5871 41.9254 40.5966 42.2034 40.5918 42.4798C40.5745 43.3618 39.9195 43.9937 39.0229 43.9937C36.3886 43.9937 33.7527 43.9937 31.1184 43.9937C27.717 43.9937 24.314 43.986 20.9125 44C20.1502 44.0031 19.4431 43.4425 19.3278 42.736C19.3121 42.635 19.3089 42.531 19.3089 42.4285C19.3089 36.559 19.3089 30.6894 19.3089 24.8183C19.3089 24.5481 19.3089 24.545 19.0279 24.545C17.2649 24.545 15.5018 24.545 13.7388 24.545C13.6346 24.545 13.5288 24.5403 13.4263 24.5201C13.1769 24.4736 13.0174 24.295 13.0174 24.0496C13.0143 22.826 12.9748 21.5993 13.0301 20.3773C13.0853 19.1304 13.5194 17.9953 14.3922 17.0605C15.022 16.3866 15.797 16.0093 16.7503 16.0108C20.0934 16.0155 23.4364 16.0124 26.7794 16.0124V16.0108Z" fill="#FF571D"></path><path d="M47.0001 17.6755C46.9811 18.1786 46.6907 18.6491 46.1335 18.9456C45.4816 19.2935 44.8519 19.6724 44.2647 20.118C43.7817 20.4845 43.3271 20.882 42.8962 21.3074C41.662 22.5233 41.6667 24.5435 42.972 25.781C43.2309 26.0264 43.4787 26.2857 43.7233 26.545C44.1084 26.9534 44.1021 27.2345 43.7012 27.6242C43.4076 27.9099 43.1046 28.1848 42.8158 28.4751C42.6926 28.5978 42.6137 28.5838 42.4953 28.4674C40.3266 26.3354 38.1548 24.2081 35.9829 22.0792C35.4305 21.5373 34.8796 20.9953 34.3225 20.4596C34.2025 20.3447 34.1899 20.2702 34.3177 20.1506C34.616 19.8696 34.897 19.573 35.1906 19.2873C35.5741 18.9146 35.9561 18.913 36.3412 19.2795C36.6474 19.5699 36.9426 19.8727 37.2614 20.1506C38.5352 21.2609 40.4466 21.205 41.6635 20.0357C42.5837 19.1522 43.3729 18.1724 43.9443 17.0326C44.2063 16.5078 44.5899 16.1304 45.2054 16.0373C46.154 15.8929 47.0001 16.6102 46.9985 17.677L47.0001 17.6755Z" fill="#FF571D"></path><path d="M33.6421 28.9534C33.8331 29.3276 33.923 29.705 33.9577 30.0994C34.1124 31.8897 32.9239 33.5683 31.1719 34.0279C29.3347 34.5093 27.4816 33.632 26.6924 31.9084C25.9427 30.2671 26.4478 28.4503 28.0167 27.3494C29.1263 26.5714 30.3464 26.4596 31.6138 26.9705C31.8869 27.0807 31.8806 27.0807 32.0732 26.8571C32.4425 26.4301 32.815 26.0062 33.1938 25.5885C33.4463 25.309 33.833 25.2779 34.1077 25.5015C34.3855 25.7251 34.4281 26.0994 34.174 26.3959C33.7289 26.9192 33.268 27.4286 32.8055 27.9379C31.8759 28.9612 30.9746 30.0078 30.0244 31.014C29.7987 31.2531 29.8019 31.2562 29.5619 31.0217C29.1484 30.618 28.7349 30.2127 28.3213 29.809C28.1193 29.6118 27.8825 29.5388 27.6032 29.6149C27.2165 29.7189 27.0192 30.1972 27.2275 30.5357C27.2607 30.59 27.3017 30.6428 27.3475 30.6879C27.9836 31.3199 28.6133 31.9565 29.2573 32.5807C29.6803 32.9907 29.9944 32.9782 30.3906 32.5404C31.2192 31.6273 32.0384 30.705 32.8639 29.7904C33.1117 29.5155 33.3674 29.25 33.6421 28.9565V28.9534Z" fill="#FF571D"></path><path d="M33.6264 20.8586C33.7116 20.8773 33.7527 20.9378 33.8016 20.9875C34.7376 21.9068 35.6735 22.826 36.6095 23.7468C38.3836 25.4906 40.1577 27.2344 41.9334 28.9798C42.0544 29.0988 42.0555 29.2168 41.9366 29.3338C41.7598 29.5062 41.5736 29.6708 41.4094 29.8524C41.3037 29.9704 41.2358 29.9642 41.13 29.8571C40.5318 29.2624 39.9273 28.6723 39.3244 28.0807C37.2535 26.045 35.1827 24.0093 33.1103 21.9751C32.903 21.7712 32.904 21.5652 33.1134 21.3571C33.2523 21.2204 33.3896 21.0822 33.5285 20.9456C33.5601 20.9145 33.5964 20.8866 33.628 20.8602L33.6264 20.8586Z" fill="#FF571D"></path><path d="M36.6978 41.0575C36.5084 41.0622 36.3774 40.9566 36.2669 40.8231C35.9402 40.4287 35.6119 40.0343 35.2946 39.6321C35.1905 39.5001 35.1258 39.483 35.0168 39.6243C34.7438 39.9784 34.4613 40.3246 34.1787 40.6709C34.1014 40.7656 34.0162 40.8588 33.9214 40.9349C33.7273 41.0917 33.4779 41.0824 33.2901 40.9271C33.0928 40.7641 33.047 40.5234 33.1796 40.3029C33.2459 40.1926 33.328 40.0902 33.4085 39.9908C33.7431 39.5777 34.0761 39.1631 34.4186 38.7563C34.496 38.6647 34.4628 38.6134 34.4044 38.5436C34.054 38.1181 33.7068 37.6911 33.358 37.2625C33.3043 37.1973 33.2506 37.1321 33.2064 37.0607C33.0423 36.806 33.0817 36.5389 33.3027 36.3712C33.5347 36.1957 33.8189 36.2221 34.0193 36.4566C34.3018 36.7874 34.5702 37.129 34.8448 37.4644C34.9111 37.5451 34.9805 37.6228 35.0405 37.7066C35.121 37.8169 35.1826 37.8044 35.2647 37.702C35.5677 37.3215 35.8771 36.9457 36.1864 36.5715C36.2433 36.5016 36.3048 36.4318 36.3743 36.3759C36.5668 36.219 36.8304 36.2237 37.0246 36.3821C37.2108 36.5327 37.2692 36.7827 37.1571 36.9939C37.1098 37.0839 37.0466 37.1693 36.9804 37.2485C36.6331 37.6678 36.289 38.0902 35.9307 38.5016C35.8281 38.6197 35.8266 38.6973 35.9244 38.8138C36.2985 39.2532 36.6663 39.6988 37.034 40.1429C37.135 40.2641 37.2171 40.3945 37.2124 40.5606C37.2045 40.8433 36.9819 41.0591 36.6947 41.0591L36.6978 41.0575Z" fill="#FF571D"></path><path d="M32.0132 40.559C32.0101 40.795 31.8491 40.9922 31.6123 41.0465C31.3819 41.0993 31.1467 41.0031 31.0409 40.7732C30.8657 40.3928 30.7111 40.0031 30.5516 39.6164C30.3843 39.2111 30.2218 38.8043 30.0529 38.4006C30.0323 38.3509 30.0276 38.2701 29.9566 38.2701C29.8792 38.2701 29.8619 38.3478 29.8382 38.4068C29.5541 39.0978 29.2716 39.7903 28.9875 40.4813C28.9417 40.5947 28.8959 40.7096 28.8312 40.8121C28.6986 41.0248 28.4398 41.1009 28.214 41.0108C27.9868 40.9192 27.8668 40.6909 27.9157 40.4456C27.9631 40.2096 28.0704 39.9953 28.1604 39.7748C28.5771 38.7484 28.9985 37.7235 29.4184 36.6987C29.4831 36.5419 29.562 36.3928 29.7325 36.3198C30.0181 36.1972 30.2991 36.3058 30.4364 36.618C30.6242 37.0419 30.7916 37.4751 30.9683 37.9037C31.2872 38.6785 31.606 39.4518 31.9233 40.2267C31.9674 40.3338 32.018 40.4394 32.0132 40.559Z" fill="#FF571D"></path><path d="M26.5851 21.0731C25.4187 21.0731 24.2523 21.0731 23.0859 21.0731C22.9359 21.0731 22.7844 21.0839 22.636 21.0451C22.385 20.9783 22.2177 20.7734 22.2288 20.542C22.2414 20.2796 22.4024 20.0995 22.6739 20.056C22.7765 20.0405 22.8822 20.0374 22.9864 20.0374C25.3919 20.0374 27.7973 20.0374 30.2028 20.0374C30.3006 20.0374 30.4001 20.0405 30.4964 20.056C30.7568 20.0979 30.9446 20.32 30.9383 20.57C30.9336 20.82 30.7379 21.0342 30.4759 21.0669C30.3859 21.0777 30.2928 21.0762 30.2012 21.0762C28.9953 21.0762 27.7894 21.0762 26.5836 21.0762C26.5836 21.0762 26.5836 21.0746 26.5836 21.0731H26.5851Z" fill="#FF571D"></path><path d="M26.5962 23.6693C25.4171 23.6833 24.2381 23.6522 23.059 23.6879C22.9154 23.6926 22.7702 23.6926 22.6281 23.6616C22.3977 23.6103 22.2256 23.4007 22.2288 23.174C22.232 22.9302 22.3882 22.7361 22.6281 22.6911C22.7434 22.6693 22.8617 22.66 22.9785 22.66C25.4092 22.6584 27.84 22.6584 30.2707 22.6584C30.6463 22.6584 30.8499 22.7873 30.9194 23.0653C30.9841 23.3308 30.8294 23.5901 30.5627 23.6662C30.4538 23.6973 30.3433 23.7004 30.2312 23.6957C29.019 23.6507 27.8068 23.6848 26.5962 23.6709V23.6693Z" fill="#FF571D"></path><path d="M24.2081 38.9999C24.2081 38.4906 24.2066 37.9828 24.2081 37.4735C24.2081 37.3384 24.1734 37.2903 24.0187 37.2903C23.7251 37.2903 23.4284 37.3151 23.1348 37.2747C22.8839 37.2406 22.7024 37.0527 22.6897 36.812C22.6755 36.5558 22.8334 36.3431 23.0843 36.2841C23.1348 36.2716 23.1885 36.2639 23.239 36.2639C24.2413 36.2608 25.2436 36.2561 26.2458 36.2608C26.5489 36.2608 26.7399 36.4269 26.7904 36.6924C26.8425 36.9719 26.6641 37.225 26.3784 37.2701C26.0785 37.3182 25.7755 37.3027 25.4756 37.2856C25.3067 37.2763 25.283 37.3337 25.283 37.4782C25.2878 38.4114 25.2862 39.3462 25.283 40.2794C25.283 40.4021 25.2878 40.5232 25.2562 40.6443C25.1867 40.916 24.9737 41.0744 24.6974 41.0558C24.4244 41.0372 24.2255 40.8462 24.2208 40.562C24.2113 40.0403 24.2176 39.5185 24.2176 38.9968C24.2129 38.9968 24.2097 38.9968 24.205 38.9968L24.2081 38.9999Z" fill="#FF571D"></path></g><defs><clipPath id="clip0_25_605"><rect width="34" height="28" fill="white" transform="translate(13 16)"></rect></clipPath></defs></svg>