<svg xmlns="http://www.w3.org/2000/svg" width="60" height="60" viewBox="0 0 60 60" fill="none"><rect width="60" height="60" rx="30" fill="#F77A4F" fill-opacity="0.25"></rect><g clip-path="url(#clip0_57_763)"><path d="M25.9429 37.0833C25.9429 35.3058 25.9429 33.5283 25.9429 31.7522C25.9429 31.6692 25.9509 31.5863 25.9523 31.5021C25.9523 31.4553 25.9897 31.3897 25.9362 31.363C25.8747 31.3322 25.8413 31.4031 25.8052 31.4379C25.6675 31.5676 25.5325 31.6987 25.3989 31.8324C24.0126 33.2194 22.625 34.605 21.2414 35.9932C20.9741 36.2621 20.6773 36.4654 20.283 36.464C19.7817 36.4627 19.4047 36.2326 19.1841 35.7873C18.9649 35.3446 19.0317 34.9126 19.3218 34.5194C19.4074 34.4043 19.5143 34.304 19.6159 34.2011C21.6545 32.132 23.6931 30.063 25.7304 27.9926C25.7865 27.9364 25.9122 27.8869 25.8828 27.8187C25.848 27.7371 25.7224 27.7853 25.6381 27.7839C24.8 27.7826 23.9605 27.7799 23.1223 27.7879C22.7213 27.792 22.3897 27.6595 22.1077 27.3747C20.9179 26.1763 19.7229 24.9846 18.5345 23.7849C18.0225 23.2687 18.0144 22.5719 18.497 22.0931C19.0157 21.5781 19.7469 21.5688 20.2656 22.0837C20.9901 22.8046 21.7053 23.5335 22.4258 24.2597C22.7547 24.5914 23.0862 24.9191 23.4124 25.2521C23.4712 25.3123 23.5314 25.3391 23.6169 25.3377C23.8335 25.3324 24.05 25.3364 24.2666 25.3364C28.2943 25.3364 32.3207 25.3364 36.3485 25.3391C36.4608 25.3391 36.5423 25.3136 36.6252 25.2307C37.6625 24.1795 38.7026 23.1296 39.7466 22.085C40.1169 21.7146 40.6543 21.6183 41.1141 21.8242C41.9362 22.1934 42.0485 23.2459 41.4831 23.797C40.2853 24.9632 39.1103 26.1536 37.9326 27.3386C37.6331 27.6395 37.2882 27.792 36.8618 27.7893C35.9849 27.7826 35.1066 27.7853 34.2297 27.7853C34.1922 27.7853 34.1441 27.7665 34.1227 27.8067C34.0933 27.8642 34.1588 27.8789 34.1855 27.907C35.7309 29.4959 37.2963 31.0634 38.8549 32.6376C39.4298 33.218 39.9979 33.8038 40.5687 34.387C40.9951 34.823 41.0606 35.4342 40.7505 35.913C40.4417 36.3891 39.8415 36.5911 39.3028 36.4012C39.1103 36.333 38.9552 36.2086 38.8135 36.0655C37.3925 34.6357 35.9688 33.2073 34.5465 31.7776C34.4168 31.6478 34.2858 31.5195 34.1548 31.3911C34.1321 31.3683 34.1067 31.3376 34.0706 31.3523C34.0318 31.3683 34.0438 31.4084 34.0438 31.4405C34.0479 31.712 34.0559 31.9849 34.0559 32.2564C34.0586 35.7217 34.0599 39.1884 34.0626 42.6538C34.0626 43.0109 33.9636 43.1165 33.6121 43.1179C32.7231 43.1206 31.8341 43.1219 30.9452 43.1206C30.5776 43.1206 30.4746 43.0149 30.4746 42.6377C30.4746 41.4434 30.476 40.249 30.476 39.0547C30.476 38.9156 30.4773 38.7765 30.4693 38.6387C30.4519 38.3779 30.2567 38.2014 29.9947 38.2041C29.7287 38.2067 29.5349 38.3793 29.5322 38.6468C29.5242 39.3743 29.5268 40.1019 29.5268 40.8295C29.5268 41.4461 29.5322 42.0626 29.5335 42.6792C29.5335 43.0015 29.4279 43.1165 29.1084 43.1179C28.2088 43.1219 27.3091 43.1246 26.4095 43.1219C26.0445 43.1219 25.9429 43.0162 25.9429 42.6524C25.9416 40.7974 25.9429 38.9423 25.9429 37.0873H25.9443L25.9429 37.0833Z" fill="#FF571D"></path><path d="M38.994 41.4768C38.994 40.138 38.994 38.7992 38.994 37.4604C38.994 37.0739 39.0929 36.9722 39.4739 36.9749C39.8014 36.9763 39.7814 36.9107 39.7814 37.2879C39.7814 37.4551 39.772 37.6222 39.8121 37.7854C39.9271 38.2509 40.2599 38.5478 40.7546 38.5545C41.9095 38.5692 43.0659 38.5718 44.2208 38.5518C44.8197 38.5411 45.1994 38.1091 45.2007 37.5126C45.2007 37.3842 45.2087 37.2558 45.198 37.1301C45.186 36.999 45.2422 36.9589 45.3611 36.9736C45.3665 36.9736 45.3718 36.9736 45.3772 36.9736C45.9012 36.9682 46.0014 37.0659 46.0014 37.5861C46.0014 40.2076 46.0014 42.829 46.0014 45.4517C46.0014 45.5186 46.0041 45.5855 45.9948 45.651C45.9667 45.8503 45.8771 45.9452 45.6793 45.9854C45.6151 45.9987 45.5469 46.0001 45.4801 46.0001C43.4803 46.0001 41.4804 46.0001 39.4806 46.0001C39.4418 46.0001 39.4031 46.0014 39.3643 45.9974C39.121 45.9733 39.0074 45.853 38.9967 45.6082C38.9927 45.5079 38.9927 45.4089 38.9927 45.3086C38.9927 44.0313 38.9927 42.7541 38.9927 41.4755H38.9953L38.994 41.4768Z" fill="#FF571D"></path><path d="M19.2403 17.6523C19.2403 18.63 19.2376 19.6077 19.2429 20.584C19.2429 20.7311 19.2122 20.7846 19.0478 20.8114C18.1388 20.9598 17.445 21.5737 17.2712 22.5287C17.2444 22.6758 17.2338 22.8256 17.2231 22.9754C17.2177 23.0529 17.191 23.081 17.1121 23.081C16.3074 23.081 15.5013 23.0904 14.6965 23.081C14.2741 23.0757 14.0027 22.7921 14.0027 22.3682C14.0001 19.831 14.0001 17.2925 14.0027 14.7554C14.0041 14.2966 14.2848 14.0091 14.7406 14.005C16.0066 13.997 17.2725 13.997 18.5398 14.005C18.9956 14.0077 19.2403 14.2725 19.2429 14.7527C19.2496 15.7183 19.2443 16.6853 19.2443 17.651C19.2429 17.651 19.2403 17.651 19.2389 17.651L19.2403 17.6523ZM16.6536 21.2594C16.6536 21.2594 16.6536 21.2661 16.6536 21.2701C16.4985 21.2701 16.3421 21.2567 16.1884 21.2728C15.9558 21.2982 15.794 21.5042 15.8021 21.7382C15.8101 21.9723 15.9651 22.1542 16.1977 22.1742C16.4905 22.1983 16.7846 22.2077 17.0773 22.1742C17.2966 22.1488 17.469 21.9295 17.4637 21.7048C17.457 21.4667 17.2886 21.2795 17.0533 21.2634C16.9209 21.2541 16.7873 21.2621 16.6549 21.2621L16.6536 21.2594Z" fill="#FF571D"></path><path d="M30.0441 16.8984C31.8621 16.9225 33.2217 18.375 33.1856 20.123C33.1481 21.962 31.7351 23.2621 29.9078 23.25C28.2448 23.2393 26.793 21.8778 26.8184 20.0602C26.8438 18.268 28.1927 16.9024 30.0441 16.8984Z" fill="#FF571D"></path><path d="M40.1141 18.0941C40.1141 18.9608 40.1127 19.8261 40.1154 20.6928C40.1154 20.7958 40.094 20.8506 39.9831 20.8814C39.7117 20.955 39.4671 21.0874 39.2559 21.2706C39.1783 21.3388 39.1302 21.3254 39.0567 21.2706C38.4926 20.8506 37.907 20.4762 37.2026 20.333C37.0114 20.2943 36.9339 20.1806 36.9339 19.984C36.9325 18.1182 36.9325 16.2525 36.9339 14.3854C36.9339 14.1473 37.0769 14.0109 37.3175 14.035C37.9391 14.0965 38.5153 14.3091 39.066 14.59C39.4029 14.7612 39.713 14.9765 39.9924 15.236C40.0833 15.3203 40.1127 15.4099 40.1127 15.5276C40.1101 16.3822 40.1114 17.2382 40.1114 18.0928C40.1114 18.0928 40.1127 18.0928 40.1141 18.0928V18.0941Z" fill="#FF571D"></path><path d="M44.2034 17.2097C44.2034 18.1259 44.206 19.042 44.202 19.9582C44.202 20.2043 44.1379 20.2832 43.8972 20.3434C43.2489 20.5039 42.6861 20.8289 42.1567 21.2221C42.0725 21.2849 42.0177 21.297 41.9268 21.2288C41.6996 21.0576 41.4509 20.9212 41.1689 20.8623C41.0405 20.8356 41.0392 20.7526 41.0392 20.651C41.0419 19.1022 41.0419 17.5521 41.0432 16.0033C41.0432 15.9311 41.0526 15.8575 41.0405 15.7867C40.9844 15.455 41.1301 15.2356 41.3894 15.043C42.0832 14.5268 42.8398 14.1683 43.6994 14.0399C44.0697 13.9851 44.206 14.0975 44.2074 14.4746C44.21 15.3854 44.2074 16.2962 44.2074 17.207C44.206 17.207 44.2047 17.207 44.202 17.207L44.2034 17.2097Z" fill="#FF571D"></path><path d="M16.2002 44.0783C16.1762 44.0649 16.1468 44.0502 16.1174 44.0328C15.6147 43.7399 15.1121 43.443 14.6068 43.1541C14.4798 43.0819 14.4544 43.0244 14.5359 42.8853C15.3955 41.4141 16.2457 39.9389 17.0986 38.465C17.251 38.2015 17.414 37.9421 17.5624 37.6759C17.6186 37.5756 17.6654 37.5729 17.7576 37.6264C18.2696 37.926 18.7829 38.2243 19.3003 38.5145C19.4019 38.572 19.4032 38.6161 19.3511 38.7071C18.545 40.1248 17.7349 41.5398 16.9034 42.9441C16.7029 43.2825 16.5157 43.6289 16.3192 43.97C16.2938 44.0141 16.2764 44.077 16.1976 44.0756L16.2002 44.0783Z" fill="#FF571D"></path><path d="M46.0001 18.3362C46.0001 19.3246 46.0001 20.313 46.0001 21.3027C46.0001 21.6344 45.8931 21.7601 45.5589 21.7762C44.6365 21.8203 43.7222 21.9139 42.8292 22.1654C42.8185 22.168 42.8078 22.1694 42.7958 22.1707C42.7263 22.1747 42.6327 22.2135 42.6006 22.1333C42.5725 22.0651 42.6608 22.0236 42.7089 21.9835C43.1206 21.6424 43.5845 21.4003 44.1058 21.2733C44.7689 21.1115 45.1378 20.654 45.1392 19.9706C45.1432 18.3483 45.1432 16.7273 45.1378 15.1049C45.1378 14.9364 45.186 14.8695 45.3517 14.8843C45.4172 14.8896 45.4854 14.8789 45.5509 14.8789C45.8691 14.8789 45.9974 15.0033 45.9974 15.3229C45.9987 16.3287 45.9974 17.3331 45.9974 18.3389L46.0001 18.3362Z" fill="#FF571D"></path><path d="M35.1588 18.3119C35.1588 17.3235 35.1561 16.3351 35.1601 15.3454C35.1614 14.9629 35.2884 14.8545 35.6734 14.8813C35.8918 14.8964 36.0009 15.0146 36.0009 15.2357C36.0009 16.7912 36.0009 18.3466 36.0009 19.9008C36.0009 20.6283 36.3445 21.0858 37.0436 21.2703C37.5062 21.3934 37.9192 21.6127 38.3082 21.8842C38.327 21.8976 38.343 21.9123 38.3604 21.9257C38.4112 21.9645 38.4566 22.0086 38.4259 22.0795C38.3938 22.1517 38.3243 22.1423 38.2655 22.1316C38.1238 22.1049 37.9847 22.0674 37.843 22.038C37.1359 21.8856 36.4194 21.812 35.6962 21.7893C35.2109 21.7745 35.1494 21.7037 35.1494 21.2115C35.1494 20.2445 35.1494 19.2788 35.1494 18.3119C35.1521 18.3119 35.1548 18.3119 35.1588 18.3119Z" fill="#FF571D"></path><path d="M42.4535 37.8938C41.9254 37.8938 41.3988 37.8938 40.8707 37.8938C40.5619 37.8938 40.4496 37.7828 40.4443 37.4725C40.4403 37.2786 40.4376 37.0833 40.4456 36.8894C40.4563 36.6366 40.5472 36.535 40.7999 36.5189C41.0204 36.5055 41.2437 36.5189 41.4656 36.5243C41.5511 36.5269 41.5912 36.5136 41.6019 36.4119C41.6487 35.9465 42.0163 35.6041 42.4615 35.5987C42.9401 35.592 43.3331 35.9197 43.3959 36.3945C43.4106 36.5002 43.448 36.5136 43.543 36.5122C43.7595 36.5095 43.9761 36.4975 44.1913 36.5256C44.4212 36.5564 44.5282 36.67 44.5308 36.8987C44.5335 37.098 44.5335 37.2986 44.5308 37.4979C44.5282 37.7306 44.4266 37.8483 44.1993 37.8751C44.0844 37.8885 43.9667 37.8911 43.8504 37.8925C43.3839 37.8938 42.9173 37.8925 42.4508 37.8925L42.4535 37.8938Z" fill="#FF571D"></path><path d="M14.0442 45.4907C14.0629 45.0199 14.1378 44.5518 14.1351 44.0796C14.1351 43.9914 14.1805 43.986 14.2394 44.0195C14.6671 44.2656 15.0922 44.5143 15.52 44.7618C15.5962 44.8059 15.5601 44.8366 15.5147 44.8701C15.1297 45.1523 14.7447 45.4345 14.3597 45.714C14.2902 45.7648 14.2126 45.7956 14.1284 45.7434C14.0308 45.6833 14.0455 45.5829 14.0455 45.4907H14.0442Z" fill="#FF571D"></path><path d="M18.3766 36.3008C18.418 36.3556 18.4568 36.3998 18.4902 36.4479C18.7616 36.8478 19.1292 37.1206 19.5824 37.2811C19.7134 37.3279 19.8484 37.3574 19.9861 37.3774C20.0756 37.3895 20.1064 37.4149 20.0462 37.5165C19.8885 37.7787 19.9393 37.8068 19.6305 37.6262C19.18 37.3641 18.7322 37.0966 18.2817 36.8371C18.156 36.7649 18.0852 36.698 18.2095 36.5616C18.2576 36.5094 18.283 36.4385 18.3204 36.377C18.3338 36.3543 18.3525 36.3342 18.3779 36.3021L18.3766 36.3008Z" fill="#FF571D"></path></g><defs><clipPath id="clip0_57_763"><rect width="32" height="32" fill="white" transform="translate(14 14)"></rect></clipPath></defs></svg>