<svg xmlns="http://www.w3.org/2000/svg" width="60" height="60" viewBox="0 0 60 60" fill="none"><rect width="60" height="60" rx="30" fill="#F77A4F" fill-opacity="0.25"></rect><g clip-path="url(#clip0_57_741)"><path d="M29.9792 44.9933C30.5046 44.5687 30.9736 44.1414 31.4103 43.6805C32.6774 42.3461 33.4783 40.7552 33.9164 38.9855C34.3813 37.1029 34.3732 35.215 33.79 33.3553C33.3627 31.9954 32.75 30.7243 31.8175 29.6278C30.5678 28.1604 29.0588 27.0559 27.2448 26.3827C25.8849 25.8775 24.4767 25.6651 23.0295 25.7216C22.5283 25.7417 22.0284 25.8022 21.5353 25.8949C21.3888 25.9218 21.3687 25.8882 21.3687 25.7565C21.3727 24.4679 21.3713 23.1793 21.3713 21.8906C21.3713 20.6853 21.3713 19.48 21.3713 18.276C21.3713 16.7482 22.3805 15.4555 23.8626 15.0914C24.1784 15.0134 24.5036 15.0067 24.8274 15.0067C28.6154 15.0027 32.4033 15.004 36.1926 15C36.3377 15 36.3767 15.0322 36.3767 15.1814C36.3713 16.9162 36.3727 18.6509 36.3727 20.387C36.3727 21.8396 37.3885 23.1309 38.7995 23.4722C39.0991 23.5447 39.4041 23.5743 39.7118 23.5743C41.3969 23.5743 43.0819 23.577 44.7683 23.5703C44.9174 23.5703 44.9497 23.6092 44.9497 23.7544C44.9457 29.7178 44.943 35.6826 44.9497 41.6461C44.9497 42.8379 44.4619 43.7745 43.5052 44.4544C42.9516 44.8482 42.2985 44.9987 41.6213 44.9987C37.793 45.0027 33.9647 45 30.1365 45C30.0975 45 30.0599 44.9973 29.9806 44.9933H29.9792ZM29.9537 23.5743C31.03 23.5757 32.1077 23.5797 33.184 23.5743C33.7605 23.5716 34.2321 23.0798 34.2241 22.5074C34.216 21.9094 33.7497 21.4338 33.1692 21.4338C31.026 21.4338 28.8841 21.4338 26.7409 21.4338C26.1402 21.4338 25.6578 21.8973 25.6565 22.4751C25.6551 23.0946 26.1268 23.5757 26.7382 23.5757C27.8091 23.5757 28.8814 23.5757 29.9524 23.5757L29.9537 23.5743ZM37.453 26.7898C36.7382 26.7898 36.0247 26.7952 35.3098 26.7872C34.9161 26.7831 34.6205 26.9592 34.4055 27.2682C34.1676 27.6109 34.1676 27.9844 34.3531 28.3472C34.5358 28.7046 34.8408 28.9237 35.248 28.9277C36.7046 28.9385 38.1612 28.9358 39.6178 28.9317C40.1862 28.9304 40.6551 28.4453 40.6538 27.8783C40.6538 27.2736 40.1848 26.7912 39.5963 26.7912C38.8814 26.7912 38.1679 26.7912 37.453 26.7912V26.7898ZM38.5226 34.2878C38.9016 34.2878 39.2818 34.2932 39.6608 34.2865C40.1983 34.2757 40.6605 33.7772 40.6538 33.2249C40.6471 32.6418 40.1862 32.1486 39.6366 32.1473C38.8949 32.1446 38.1531 32.1446 37.41 32.1473C36.8457 32.15 36.3687 32.6364 36.3727 33.2008C36.3754 33.7987 36.843 34.2851 37.4168 34.2878C37.7849 34.2892 38.1531 34.2878 38.5213 34.2878H38.5226ZM38.5226 39.6439C38.9016 39.6439 39.2818 39.6493 39.6608 39.6426C40.1983 39.6318 40.6605 39.1333 40.6538 38.581C40.6471 37.9978 40.1862 37.5047 39.6366 37.5034C38.8949 37.5007 38.1531 37.5007 37.41 37.5034C36.8457 37.506 36.3687 37.9925 36.3727 38.5568C36.3754 39.1548 36.843 39.6412 37.4168 39.6439C37.7849 39.6453 38.1531 39.6439 38.5213 39.6439H38.5226Z" fill="#FF571D"></path><path d="M44.2374 21.4322C43.8411 21.4322 43.446 21.4322 43.0496 21.4322C41.9222 21.4322 40.7962 21.4322 39.6688 21.4322C39.1797 21.4322 38.8061 21.2373 38.5992 20.7764C38.5414 20.6488 38.5132 20.5104 38.5132 20.3706C38.5132 18.8375 38.5132 17.3029 38.5132 15.7697C38.5132 15.7482 38.5172 15.7267 38.5226 15.6636C40.467 17.5703 42.367 19.4771 44.2589 21.3932C44.2509 21.4067 44.2442 21.4201 44.2361 21.4335L44.2374 21.4322Z" fill="#FF571D"></path><path d="M23.7954 27.8243C19.1394 27.7732 15.26 31.3583 15.0598 36.0102C14.8596 40.6783 18.4044 44.7646 23.3103 44.9487C27.8252 45.118 31.9303 41.7694 32.1816 36.7681C32.41 32.2223 28.8948 27.9694 23.7954 27.8243ZM28.7685 35.5184C28.7484 35.544 28.7242 35.5655 28.6986 35.5829C28.6315 35.63 28.5656 35.681 28.4984 35.7294C27.9112 36.154 27.324 36.5773 26.7355 36.9992C25.6551 37.7759 24.5747 38.5512 23.4944 39.3266C23.4353 39.3682 23.3802 39.4166 23.3143 39.4475C23.2243 39.4891 23.1168 39.4475 23.0778 39.3561C23.0617 39.3198 23.0577 39.2822 23.0577 39.2419C23.0577 38.6036 23.0577 37.9654 23.0577 37.3271C23.0577 37.1967 23.0577 37.1981 22.926 37.2035C22.5296 37.2223 22.1413 37.2801 21.7664 37.4185C21.2638 37.6039 20.8284 37.8807 20.5046 38.3147C20.1203 38.8321 20.0168 39.4018 20.2117 40.0186C20.334 40.4056 20.5651 40.7254 20.8459 41.0116C20.8916 41.0586 20.9413 41.103 20.9816 41.154C21.0703 41.2655 21.0246 41.4013 20.8849 41.4295C20.7707 41.4523 20.6564 41.4523 20.5597 41.3677C20.5355 41.3462 20.5086 41.33 20.4818 41.3112C20.2144 41.1271 19.9631 40.9216 19.732 40.6931C19.517 40.4808 19.3208 40.251 19.1528 39.9971C18.9096 39.6302 18.7094 39.2459 18.5898 38.82C18.4944 38.4773 18.4339 38.1293 18.4326 37.7732C18.4326 37.5649 18.4595 37.3593 18.493 37.1551C18.5616 36.7439 18.6946 36.3542 18.8894 35.9874C19.138 35.5211 19.4619 35.114 19.8663 34.7713C20.377 34.34 20.9507 34.0242 21.5917 33.8348C22.0553 33.6977 22.5269 33.6157 23.012 33.6103C23.0577 33.6103 23.0537 33.5848 23.0537 33.5553C23.0537 33.2207 23.0537 32.8861 23.0537 32.5528C23.0537 32.2196 23.0537 31.8837 23.0537 31.5504C23.0537 31.4375 23.1087 31.361 23.2028 31.3354C23.274 31.3166 23.3278 31.3529 23.3788 31.3905C23.9701 31.8178 24.56 32.2465 25.1512 32.6738C25.4052 32.8579 25.6605 33.0406 25.9158 33.2247C26.7744 33.8442 27.6317 34.4636 28.489 35.0844C28.5764 35.1476 28.6664 35.2067 28.747 35.2806C28.8196 35.3464 28.8263 35.4392 28.7658 35.5171L28.7685 35.5184Z" fill="#FF571D"></path></g><defs><clipPath id="clip0_57_741"><rect width="29.8965" height="30" fill="white" transform="translate(15.0518 15)"></rect></clipPath></defs></svg>