<svg xmlns="http://www.w3.org/2000/svg" width="60" height="60" viewBox="0 0 60 60" fill="none"><rect width="60" height="60" rx="30" fill="#F77A4F" fill-opacity="0.25"></rect><g clip-path="url(#clip0_57_727)"><path d="M27.9862 18.837C28.0426 18.8232 28.0614 18.8833 28.0839 18.9348C28.4286 19.7158 29.0316 20.1546 29.8764 20.2135C30.7438 20.2737 31.3856 19.8713 31.8281 19.1353C31.8444 19.109 31.8582 19.0802 31.8707 19.0526C31.976 18.8232 31.9747 18.8269 32.2192 18.8733C33.613 19.1341 34.9003 19.6619 36.0861 20.4317C37.5615 21.3895 38.7636 22.6157 39.6899 24.1201C40.4094 25.2874 40.8656 26.5474 41.1464 27.8801C41.1727 28.0029 41.1389 28.0506 41.0161 28.107C40.19 28.4869 39.5746 29.4196 39.8328 30.459C40.0032 31.146 40.4156 31.6324 41.0624 31.9158C41.1577 31.9572 41.169 32.0098 41.1514 32.0976C40.8456 33.6008 40.3141 35.0112 39.448 36.2875C38.6771 37.4234 37.7407 38.3888 36.6289 39.1999C35.2927 40.1741 33.8061 40.7796 32.2041 41.1294C32.169 41.1369 32.1327 41.1432 32.0988 41.1557C32.0023 41.1908 31.9522 41.1632 31.9108 41.0642C31.3304 39.655 29.5041 39.3341 28.4738 40.4574C28.3146 40.6317 28.1792 40.8235 28.0965 41.0454C28.0564 41.1532 27.9962 41.1733 27.8947 41.152C26.6224 40.8874 25.419 40.4499 24.2922 39.7929C23.2756 39.1999 22.3643 38.4828 21.5847 37.6027C20.5606 36.4455 19.7533 35.1567 19.262 33.6823C19.0877 33.1595 18.9599 32.6229 18.8433 32.085C18.8195 31.9747 18.8759 31.9421 18.9611 31.9045C19.91 31.4795 20.4102 30.4803 20.1532 29.4873C19.9827 28.8291 19.5791 28.3515 18.9373 28.1007C18.8308 28.0593 18.8233 28.0042 18.8408 27.9114C19.0614 26.7367 19.4462 25.6209 20.0391 24.5828C20.6997 23.4268 21.4932 22.3762 22.5022 21.4974C24.0628 20.1396 25.8502 19.2457 27.8859 18.8558C27.911 18.8508 27.9373 18.847 27.9849 18.8395L27.9862 18.837ZM38.751 29.9311C38.8175 25.2999 34.879 21.2278 30.0043 21.2228C24.9803 21.2178 21.2074 25.508 21.2186 29.9913C21.2312 34.7943 25.1834 38.7674 29.9993 38.7762C34.7737 38.7849 38.8676 34.8169 38.751 29.9311Z" fill="#FF571D"></path><path d="M17.0609 40.0233C17.5685 40.002 18.0825 40.2013 18.5726 40.4834C18.644 40.5248 18.6891 40.5386 18.7581 40.4684C19.4011 39.8152 20.0492 39.1682 20.6947 38.5188C20.7198 38.4925 20.7499 38.4699 20.7712 38.4411C20.8363 38.3508 20.8953 38.3533 20.9717 38.4348C21.1372 38.6141 21.3064 38.7921 21.4819 38.9614C21.5596 39.0366 21.5446 39.0817 21.4756 39.1507C20.8188 39.8039 20.1657 40.4608 19.5077 41.1128C19.4212 41.198 19.3999 41.2507 19.4751 41.3685C20.6508 43.2002 19.6393 45.5434 17.5021 45.9484C15.9866 46.2355 14.4912 45.2613 14.0951 43.728C13.6113 41.8525 15.0403 40.0233 17.0609 40.022V40.0233Z" fill="#FF571D"></path><path d="M42.9803 19.9741C42.4451 19.9992 41.9437 19.8086 41.4687 19.5328C41.3558 19.4676 41.2994 19.4689 41.2004 19.5704C40.5411 20.2437 39.868 20.9044 39.2024 21.5714C39.1422 21.6315 39.1071 21.6265 39.0519 21.5688C38.8677 21.3783 38.6797 21.1902 38.4916 21.0034C38.4415 20.9533 38.4315 20.9257 38.4916 20.868C39.171 20.1998 39.8454 19.5265 40.5248 18.8583C40.6012 18.7831 40.6 18.7342 40.5423 18.6489C39.5997 17.2498 39.9833 15.5397 41.2693 14.5693C42.5216 13.6253 44.5234 13.8221 45.5399 15.4093C46.5352 16.9627 45.8433 19.104 44.1185 19.756C43.76 19.8914 43.394 19.9829 42.9816 19.9729L42.9803 19.9741Z" fill="#FF571D"></path><path d="M19.9703 16.9988C19.9866 17.5969 19.8011 18.1372 19.4814 18.6324C19.4062 18.749 19.4301 18.8054 19.5165 18.8907C20.1671 19.5364 20.8114 20.1883 21.4607 20.834C21.5497 20.9217 21.5459 20.9731 21.4544 21.0584C21.2827 21.2176 21.1197 21.3869 20.9643 21.5624C20.8891 21.6476 20.8465 21.6276 20.7788 21.5599C20.2411 21.022 19.7008 20.4867 19.1618 19.9514C19.0327 19.8222 18.8998 19.6981 18.777 19.564C18.703 19.4825 18.6479 19.4637 18.5413 19.5263C18.0199 19.831 17.4621 20.009 16.8466 19.9727C15.5154 19.8949 14.3397 18.9797 14.0551 17.5417C13.7418 15.9432 14.8198 14.4262 16.3164 14.0764C17.4746 13.8056 19.1518 14.2971 19.7748 15.9495C19.8374 16.115 19.8963 16.2817 19.9264 16.456C19.9578 16.6353 19.9778 16.817 19.9703 17.0001V16.9988Z" fill="#FF571D"></path><path d="M40.0248 43.0086C40.0185 42.4005 40.2191 41.8551 40.5425 41.3511C40.5964 41.2671 40.6026 41.2233 40.5237 41.1455C39.8531 40.4836 39.1887 39.8141 38.5194 39.1508C38.4354 39.0681 38.4416 39.028 38.5306 38.949C38.6986 38.8011 38.8616 38.6443 39.0007 38.4701C39.1035 38.3397 39.1624 38.376 39.2539 38.4688C39.823 39.0418 40.3946 39.611 40.9661 40.1814C41.0439 40.2591 41.1303 40.3293 41.1955 40.4159C41.2783 40.5274 41.3522 40.5274 41.4675 40.4597C43.0833 39.5069 45.0312 40.1689 45.7682 41.8952C46.5504 43.7282 45.2468 45.7467 43.3828 45.9711C41.47 46.2018 40.0148 44.6359 40.0248 43.0098V43.0086Z" fill="#FF571D"></path><path d="M41.8397 31.0618C41.2518 31.0618 40.7817 30.5879 40.7817 29.9986C40.7817 29.4132 41.2606 28.9367 41.8447 28.938C42.4376 28.9405 42.9039 29.4169 42.9039 30.02C42.9039 30.5904 42.4213 31.063 41.8397 31.0618Z" fill="#FF571D"></path><path d="M31.0623 41.8489C31.0635 42.4294 30.5834 42.9033 29.9943 42.9033C29.4227 42.9033 28.9451 42.4319 28.9426 41.8665C28.9414 41.2597 29.4014 40.782 29.993 40.7808C30.5872 40.7783 31.0598 41.2509 31.0623 41.8502V41.8489Z" fill="#FF571D"></path><path d="M29.9944 19.218C29.4128 19.218 28.9377 18.7466 28.9377 18.1711C28.9377 17.5681 29.4103 17.0967 30.0182 17.0967C30.5898 17.0967 31.0611 17.5856 31.0599 18.1786C31.0586 18.7516 30.5798 19.2192 29.9957 19.218H29.9944Z" fill="#FF571D"></path><path d="M19.2169 30.0203C19.2106 30.5995 18.7305 31.0696 18.1552 31.0609C17.5698 31.0521 17.0922 30.5694 17.0947 29.9927C17.0985 29.4097 17.5811 28.932 18.1614 28.9371C18.7543 28.9421 19.2219 29.4235 19.2156 30.0203H19.2169Z" fill="#FF571D"></path><path d="M37.7621 30.0086C37.7508 34.1458 34.4892 37.7114 30.077 37.7541C25.7826 37.7954 22.2829 34.4229 22.2365 30.0173C22.1939 25.9929 25.374 22.505 29.4879 22.253C34.2548 21.9609 37.7733 25.7823 37.7621 30.0086ZM30.4994 27.7055C30.4994 27.1375 30.4994 26.5709 30.4994 26.0029C30.4994 25.9327 30.4869 25.865 30.6022 25.9001C31.3179 26.117 31.8131 26.552 31.9886 27.3005C32.0186 27.4259 32.0174 27.5588 32.0337 27.6879C32.0713 27.9951 32.2856 28.1756 32.5865 28.1581C32.861 28.1418 33.0578 27.9148 33.0515 27.6139C33.0365 26.9369 32.8133 26.3377 32.3483 25.8437C31.8933 25.3598 31.3568 25.0012 30.6912 24.8808C30.5408 24.8533 30.4932 24.8119 30.4969 24.6589C30.5019 24.363 30.5295 24.0647 30.4831 23.77C30.4393 23.4917 30.2287 23.3463 29.9429 23.3726C29.6771 23.3964 29.5042 23.5895 29.5029 23.8653C29.5017 24.1462 29.5029 24.427 29.5029 24.7091C29.5029 24.7943 29.4929 24.8507 29.3838 24.8683C28.7659 24.9648 28.2519 25.272 27.807 25.6983C26.9358 26.5332 26.6976 27.8083 27.2304 28.8326C27.6829 29.7026 28.4124 30.2217 29.3613 30.4423C29.4415 30.4612 29.5054 30.4737 29.5054 30.584C29.5017 31.7236 29.5029 32.8645 29.5054 34.0042C29.5054 34.1007 29.4741 34.122 29.3851 34.0907C29.073 33.9816 28.7797 33.8399 28.534 33.613C28.1692 33.2733 27.9862 32.8533 27.9661 32.3543C27.9536 32.0296 27.7506 31.839 27.4535 31.8465C27.1551 31.854 26.9558 32.0722 26.9584 32.3919C26.9596 32.585 26.9809 32.7755 27.026 32.9636C27.283 34.0205 28.2858 34.952 29.36 35.1237C29.4666 35.1413 29.5092 35.1789 29.5054 35.293C29.4966 35.5638 29.5017 35.8346 29.5029 36.1054C29.5042 36.4213 29.6909 36.6257 29.9792 36.627C30.2951 36.6282 30.4969 36.4326 30.5007 36.1142C30.5044 35.8484 30.5082 35.5826 30.4982 35.3181C30.4944 35.199 30.537 35.1501 30.6486 35.1288C31.2879 35.0059 31.8243 34.6887 32.2769 34.2311C32.9199 33.5817 33.1493 32.7881 33.0126 31.8979C32.8158 30.6154 31.7717 29.8092 30.6423 29.5635C30.532 29.5397 30.4994 29.5008 30.5007 29.3917C30.5057 28.8301 30.5032 28.2671 30.5032 27.7055H30.4994Z" fill="#FF571D"></path><path d="M29.5005 27.6658C29.5005 28.2024 29.4979 28.7377 29.503 29.2743C29.5042 29.4047 29.4754 29.4348 29.345 29.3897C28.9013 29.2355 28.5165 29.006 28.252 28.6023C27.7356 27.815 27.9336 26.7757 28.707 26.2365C28.9126 26.0936 29.1357 25.9846 29.3789 25.9131C29.4804 25.883 29.503 25.9093 29.503 26.0096C29.4992 26.5613 29.5017 27.1129 29.5017 27.6645L29.5005 27.6658Z" fill="#FF571D"></path><path d="M30.4995 34.1246C30.4995 34.0581 30.4995 34.008 30.4995 33.9566C30.4995 32.8859 30.4995 31.814 30.4995 30.7433C30.4995 30.5565 30.502 30.5552 30.6825 30.6192C31.5386 30.9213 32.0601 31.6159 32.0313 32.4383C32.0137 32.9574 31.7743 33.3736 31.3744 33.6958C31.1212 33.8989 30.8329 34.0381 30.4995 34.1246Z" fill="#FF571D"></path></g><defs><clipPath id="clip0_57_727"><rect width="32" height="32" fill="white" transform="translate(14 14)"></rect></clipPath></defs></svg>