<svg xmlns="http://www.w3.org/2000/svg" width="60" height="60" viewBox="0 0 60 60" fill="none"><rect width="60" height="60" rx="30" fill="#F77A4F" fill-opacity="0.25"></rect><g clip-path="url(#clip0_57_777)"><path d="M25.1168 25.4273H24.8773C23.1695 25.4273 21.4602 25.4273 19.7524 25.4273C19.1558 25.4273 18.6798 25.8116 18.5823 26.3708C18.4862 26.9215 18.8174 27.4649 19.3681 27.6628C19.4699 27.6987 19.5745 27.713 19.6835 27.713C26.1133 27.713 32.5417 27.713 38.9716 27.7159C39.1121 27.7159 39.1565 27.68 39.1465 27.5395C39.1207 27.1423 39.1924 26.7408 39.1092 26.3479C38.9845 25.7657 38.5543 25.4287 37.9635 25.4287C36.2557 25.4287 34.5464 25.4287 32.8386 25.4287H32.6091C32.6421 25.3355 32.7066 25.2911 32.7583 25.2394C33.4107 24.587 34.0646 23.936 34.7142 23.2807C34.8145 23.1803 34.9221 23.1373 35.0626 23.1387C36.0033 23.143 36.944 23.143 37.8846 23.1401C39.8334 23.1344 40.959 24.4106 41.339 25.7958C41.4265 26.1127 41.4251 26.444 41.4308 26.7709C41.4365 27.0864 41.4408 27.4018 41.4279 27.7173C41.4208 27.8808 41.4695 27.9654 41.6272 28.0342C42.6697 28.4873 43.3365 29.2703 43.619 30.3744C43.6993 30.687 43.7122 31.0097 43.7151 31.3309C43.7222 31.9733 43.7122 32.6171 43.7208 33.2595C43.7222 33.4072 43.6735 33.4316 43.5401 33.4316C41.6946 33.4273 39.8491 33.4302 38.0037 33.4287C36.1008 33.4273 34.9063 34.8197 34.6339 36.1719C34.2266 38.1909 35.6835 40.1023 37.6265 40.2572C37.823 40.273 38.018 40.2859 38.2144 40.2859C39.9882 40.2859 41.762 40.2873 43.5358 40.2816C43.6864 40.2816 43.7237 40.3203 43.7208 40.468C43.6993 41.2595 43.7366 42.0511 43.6936 42.8426C43.6505 43.637 43.3093 44.2909 42.8002 44.8745C42.0875 45.6919 41.154 45.9987 40.1058 45.9987C33.3849 46.003 26.664 46.0016 19.9431 45.9987C19.7595 45.9987 19.5745 45.9872 19.391 45.9715C18.4073 45.8897 17.6373 45.4151 17.0293 44.6608C16.5045 44.0127 16.2851 43.2556 16.2851 42.4368C16.2808 37.1269 16.2722 31.817 16.2908 26.5071C16.2951 25.1634 16.9934 24.1984 18.142 23.5388C18.6869 23.2262 19.282 23.1416 19.8957 23.1401C20.8364 23.1373 21.7771 23.1401 22.7178 23.1401C22.7966 23.1401 22.864 23.1487 22.9271 23.2118C23.6412 23.9288 24.3582 24.6429 25.0752 25.357C25.0866 25.3685 25.0924 25.3857 25.1182 25.4273H25.1168Z" fill="#FF571D"></path><path d="M27.7137 17.3697C27.7137 16.6556 27.7109 15.9415 27.7137 15.2273C27.7166 14.6437 27.9948 14.2322 28.4866 14.0644C29.1534 13.8379 29.8302 14.2293 29.9636 14.919C29.9894 15.0538 30.0023 15.1886 30.0023 15.3263C30.0009 16.7187 30.0052 18.1125 29.9966 19.5048C29.9966 19.6841 30.0482 19.717 30.2131 19.7142C30.8856 19.7041 31.5581 19.7056 32.2307 19.7113C32.8458 19.717 33.2817 20.0626 33.4065 20.652C33.4983 21.0879 33.3362 21.4507 33.0193 21.7432C32.5246 22.1992 32.0528 22.6796 31.5782 23.1557C30.9559 23.7794 30.3278 24.3975 29.7212 25.0356C29.2122 25.5704 28.5196 25.5719 28.0005 25.0499C26.8749 23.9199 25.7535 22.7857 24.6293 21.6529C24.3124 21.3345 24.2005 20.9588 24.3382 20.5258C24.4816 20.0741 24.7985 19.8189 25.2645 19.7414C25.4065 19.7185 25.547 19.7084 25.6904 19.7084C26.3099 19.7084 26.9294 19.7056 27.5474 19.7127C27.6793 19.7142 27.7166 19.6826 27.7166 19.5464C27.7094 18.8208 27.7137 18.0938 27.7137 17.3682V17.3697Z" fill="#FF571D"></path><path d="M40.7626 37.9985C39.8649 37.9985 38.9658 38.0014 38.0682 37.9985C37.4889 37.9956 37.0386 37.6716 36.8981 37.1625C36.7174 36.5129 37.1218 35.8748 37.7943 35.7501C37.9291 35.7257 38.0639 35.7114 38.2015 35.7114C39.9796 35.7114 41.7592 35.7142 43.5373 35.7085C43.6893 35.7085 43.7222 35.7501 43.7208 35.8963C43.7122 36.533 43.7122 37.1697 43.7208 37.8049C43.7222 37.9555 43.6936 38.0042 43.5301 38.0028C42.6081 37.9928 41.686 37.9985 40.764 37.9985H40.7626Z" fill="#FF571D"></path></g><defs><clipPath id="clip0_57_777"><rect width="27.4415" height="32" fill="white" transform="translate(16.2793 14)"></rect></clipPath></defs></svg>