<svg xmlns="http://www.w3.org/2000/svg" width="60" height="60" viewBox="0 0 60 60" fill="none"><rect width="60" height="60" rx="30" fill="#F77A4F" fill-opacity="0.25"></rect><g clip-path="url(#clip0_57_757)"><path d="M29.9792 44.9933C30.5046 44.5687 30.9736 44.1414 31.4103 43.6805C32.6774 42.3461 33.4783 40.7552 33.9164 38.9855C34.3813 37.1029 34.3732 35.215 33.79 33.3553C33.3627 31.9954 32.75 30.7243 31.8175 29.6278C30.5678 28.1604 29.0588 27.0559 27.2448 26.3827C25.8849 25.8775 24.4767 25.6651 23.0295 25.7216C22.5283 25.7417 22.0284 25.8022 21.5353 25.8949C21.3888 25.9218 21.3687 25.8882 21.3687 25.7565C21.3727 24.4679 21.3713 23.1793 21.3713 21.8906C21.3713 20.6853 21.3713 19.48 21.3713 18.276C21.3713 16.7482 22.3805 15.4555 23.8626 15.0914C24.1784 15.0134 24.5036 15.0067 24.8274 15.0067C28.614 15.0027 32.4033 15.004 36.1926 15C36.3377 15 36.3767 15.0322 36.3767 15.1814C36.3713 16.9162 36.3727 18.6509 36.3727 20.387C36.3727 21.8396 37.3885 23.1309 38.7995 23.4722C39.0991 23.5447 39.4041 23.5743 39.7118 23.5743C41.3969 23.5743 43.0819 23.577 44.7683 23.5703C44.9174 23.5703 44.9497 23.6092 44.9497 23.7544C44.9457 29.7178 44.943 35.6826 44.9497 41.6461C44.9497 42.8379 44.4619 43.7745 43.5052 44.4544C42.9516 44.8482 42.2985 44.9987 41.6213 44.9987C37.793 45.0027 33.9647 45 30.1365 45C30.0975 45 30.0599 44.9973 29.9806 44.9933H29.9792ZM29.9537 23.5743C31.03 23.5757 32.1077 23.5797 33.184 23.5743C33.7605 23.5716 34.2321 23.0798 34.2241 22.5074C34.216 21.9094 33.7497 21.4338 33.1692 21.4338C31.026 21.4338 28.8841 21.4338 26.7409 21.4338C26.1402 21.4338 25.6578 21.8973 25.6565 22.4751C25.6551 23.0946 26.1268 23.5757 26.7382 23.5757C27.8091 23.5757 28.8814 23.5757 29.9524 23.5757L29.9537 23.5743ZM37.453 26.7898C36.7382 26.7898 36.0247 26.7952 35.3098 26.7872C34.9161 26.7831 34.6205 26.9592 34.4055 27.2682C34.1676 27.6109 34.1676 27.9844 34.3531 28.3472C34.5358 28.7046 34.8408 28.9237 35.248 28.9277C36.7046 28.9385 38.1612 28.9358 39.6178 28.9317C40.1862 28.9304 40.6551 28.4453 40.6538 27.8783C40.6538 27.2736 40.1848 26.7912 39.5963 26.7912C38.8814 26.7912 38.1679 26.7912 37.453 26.7912V26.7898ZM38.5226 34.2878C38.9016 34.2878 39.2818 34.2932 39.6608 34.2865C40.1983 34.2757 40.6605 33.7772 40.6538 33.2249C40.6471 32.6418 40.1862 32.1486 39.6366 32.1473C38.8949 32.1446 38.1531 32.1446 37.41 32.1473C36.8457 32.15 36.3687 32.6364 36.3727 33.2008C36.3754 33.7987 36.843 34.2851 37.4168 34.2878C37.7849 34.2892 38.1531 34.2878 38.5213 34.2878H38.5226ZM38.5226 39.6439C38.9016 39.6439 39.2818 39.6493 39.6608 39.6426C40.1983 39.6318 40.6605 39.1333 40.6538 38.581C40.6471 37.9978 40.1862 37.5047 39.6366 37.5034C38.8949 37.5007 38.1531 37.5007 37.41 37.5034C36.8457 37.506 36.3687 37.9925 36.3727 38.5568C36.3754 39.1548 36.843 39.6412 37.4168 39.6439C37.7849 39.6453 38.1531 39.6439 38.5213 39.6439H38.5226Z" fill="#FF571D"></path><path d="M44.2374 21.4322C43.8411 21.4322 43.446 21.4322 43.0496 21.4322C41.9222 21.4322 40.7962 21.4322 39.6688 21.4322C39.1797 21.4322 38.8061 21.2373 38.5992 20.7764C38.5414 20.6488 38.5132 20.5104 38.5132 20.3706C38.5132 18.8375 38.5132 17.3029 38.5132 15.7697C38.5132 15.7482 38.5172 15.7267 38.5226 15.6636C40.467 17.5703 42.367 19.4771 44.2589 21.3932C44.2509 21.4067 44.2442 21.4201 44.2361 21.4335L44.2374 21.4322Z" fill="#FF571D"></path><path d="M23.5642 27.83C28.4043 27.8099 32.2124 31.6489 32.1896 36.4138C32.1667 41.1813 28.4594 44.9652 23.5857 44.9504C18.3976 44.9343 15.0826 40.6653 15.0517 36.399C15.0195 31.9136 18.7725 27.8072 23.5642 27.8287V27.83ZM19.1514 39.6535C19.1595 40.1211 19.3597 40.4799 19.7682 40.7137C20.3003 41.0187 20.8727 40.9072 21.386 40.3979C21.9921 39.7973 22.594 39.1912 23.2041 38.5933C23.3425 38.4576 23.4527 38.2103 23.6301 38.2197C23.8128 38.2291 23.9324 38.467 24.0762 38.6094C24.7265 39.2517 25.3621 39.9101 26.0273 40.5363C26.6373 41.1128 27.6317 40.9394 27.9958 40.2205C28.2431 39.7314 28.1396 39.1885 27.6908 38.7344C26.98 38.0128 26.2638 37.2979 25.5408 36.5884C25.4038 36.4541 25.3809 36.3788 25.5314 36.2337C26.1267 35.664 26.7085 35.0808 27.2931 34.5003C27.4919 34.3041 27.7002 34.116 27.8695 33.8916C28.2122 33.4401 28.2108 32.7481 27.8695 32.3772C27.2863 31.747 26.5043 31.751 25.905 32.3665C25.1995 33.0934 24.4779 33.8042 23.7698 34.5272C23.661 34.6387 23.5992 34.6468 23.4849 34.5299C22.8184 33.8499 22.1439 33.1781 21.4693 32.5049C21.3417 32.3772 21.2127 32.2469 21.0676 32.1394C20.3769 31.6301 19.3812 31.9996 19.1864 32.8327C19.0641 33.3554 19.2347 33.7774 19.6083 34.1429C20.3151 34.8362 21.0098 35.5403 21.7206 36.2297C21.8644 36.3694 21.8442 36.4393 21.7139 36.5696C20.9896 37.2966 20.2748 38.0329 19.5277 38.7384C19.267 38.9843 19.1434 39.2934 19.1514 39.6535Z" fill="#FF571D"></path></g><defs><clipPath id="clip0_57_757"><rect width="29.8965" height="30" fill="white" transform="translate(15.0518 15)"></rect></clipPath></defs></svg>