<svg xmlns="http://www.w3.org/2000/svg" width="60" height="60" viewBox="0 0 60 60" fill="none"><rect width="60" height="60" rx="30" fill="#F77A4F" fill-opacity="0.25"></rect><g clip-path="url(#clip0_25_625)"><path d="M35.38 41.7323C35.7121 42.0911 35.8143 42.482 35.6326 42.9254C35.4283 43.4242 34.8379 43.6634 34.3582 43.4476C34.0573 43.3134 33.7934 43.1033 33.4868 42.9342C33.4954 43.01 33.5408 43.0421 33.572 43.08C33.8785 43.4651 33.887 44.031 33.589 44.4014C33.2796 44.7836 32.7489 44.874 32.3118 44.6115C32.0819 44.4714 31.8548 44.3256 31.6164 44.1914C31.7611 44.381 31.8775 44.5823 31.9144 44.8215C31.974 45.2065 31.8605 45.5303 31.5596 45.7637C31.2531 46.0029 30.8983 46.0875 30.5407 45.895C30.1405 45.6791 29.7573 45.4282 29.3628 45.1978C29.289 45.154 29.3174 45.1132 29.3429 45.0636C29.6239 44.4948 29.6239 43.9201 29.3372 43.3571C29.1158 42.9225 28.7724 42.6191 28.3098 42.4733C28.2161 42.4441 28.1735 42.4033 28.165 42.307C28.1082 41.6302 27.3901 40.8835 26.7004 40.8164C26.479 40.793 26.3939 40.691 26.2945 40.513C25.9483 39.8771 25.1422 39.5066 24.4383 39.6466C24.3389 39.6671 24.2822 39.6466 24.2169 39.565C23.4307 38.6082 22.1024 38.6432 21.3672 39.6408C21.3417 39.6758 21.3161 39.7108 21.2906 39.7487C21.1506 39.949 20.9803 39.9753 20.7797 39.8275C20.5611 39.6642 20.3454 39.4979 20.1212 39.3433C20.0134 39.2703 19.9963 39.2091 20.0644 39.0895C20.5186 38.2961 20.967 37.4997 21.4155 36.7033C22.1194 35.449 22.8204 34.1947 23.5414 32.952C23.601 32.8499 23.6379 32.8178 23.7486 32.8995C24.0892 33.1533 24.461 33.3575 24.8555 33.515C24.9861 33.5675 24.9861 33.6084 24.9208 33.725C24.6483 34.2355 24.3617 34.7373 24.1658 35.2857C23.8394 36.1958 24.3077 37.0505 25.2387 37.2255C26.1782 37.4034 27.024 37.1351 27.8074 36.6188C28.3098 36.2862 28.7497 35.8749 29.1215 35.3936C29.1896 35.3032 29.2379 35.3002 29.3315 35.3586C30.8813 36.3241 32.4083 37.3305 33.9438 38.3223C35.082 39.0574 36.2145 39.7983 37.3498 40.5393C37.5456 40.6676 37.7415 40.796 37.872 41.0031C38.1133 41.3823 38.0934 41.8344 37.8181 42.1786C37.5371 42.5287 37.0915 42.66 36.697 42.482C36.3223 42.3128 35.9846 42.0678 35.6298 41.8549C35.5588 41.8111 35.5049 41.7323 35.3828 41.7353L35.38 41.7323Z" fill="#FF571D"></path><path d="M30.0242 30.98C30.8302 30.9771 31.4575 31.193 32.0763 31.4438C32.9902 31.8114 33.9183 32.1381 34.8976 32.2752C35.4936 32.3598 36.0925 32.3889 36.6857 32.2489C36.7879 32.2256 36.8219 32.2635 36.8588 32.3394C37.3896 33.442 37.9232 34.5446 38.4511 35.6473C38.8116 36.4028 39.1664 37.1641 39.5297 37.9167C39.5865 38.0334 39.5354 38.0743 39.4531 38.1239C38.8939 38.4768 38.4256 38.929 38.0311 39.4686C38.0084 39.5007 37.9856 39.5299 37.9629 39.562C37.8494 39.7292 37.7113 39.7603 37.5485 39.6553C36.5012 38.9815 35.4567 38.3047 34.4065 37.6338C34.2958 37.5638 34.31 37.5375 34.4065 37.4734C34.8976 37.1379 35.2779 36.7003 35.5589 36.1694C35.6213 36.0528 35.61 35.9915 35.4851 35.9448C35.3091 35.8777 35.1331 35.8048 34.96 35.726C34.8834 35.691 34.8521 35.7144 34.8124 35.7873C34.5343 36.289 34.1681 36.7003 33.6799 36.995C33.5777 37.0562 33.5039 37.0562 33.4018 36.992C31.9684 36.0615 30.5351 35.1368 29.1017 34.2063C28.9853 34.1304 28.9456 34.145 28.8746 34.2675C28.324 35.236 27.5861 35.9886 26.5217 36.3386C26.1413 36.4641 25.7497 36.5049 25.3551 36.4203C24.9464 36.3299 24.7534 36.0236 24.901 35.6531C25.4885 34.18 26.2833 32.8528 27.5435 31.8785C28.3155 31.2834 29.1925 30.9975 30.0242 30.98Z" fill="#FF571D"></path><path d="M29.8992 27.3308C27.2596 27.2696 25.2188 25.1693 25.2387 22.401C25.2557 20.1403 27.129 17.7279 29.8566 17.7425C32.7971 17.76 34.5767 20.1345 34.5625 22.5994C34.5484 25.2189 32.4366 27.3308 29.8992 27.3337V27.3308ZM28.9029 24.9622C29.1243 24.9593 29.3117 24.8718 29.4678 24.7113C29.6324 24.5421 29.7942 24.3729 29.9588 24.2038C30.8585 23.2761 31.7583 22.3485 32.6609 21.4267C32.7403 21.345 32.7432 21.3042 32.6609 21.2196C32.3543 20.9221 32.0535 20.6187 31.7611 20.3066C31.6618 20.2016 31.6079 20.2132 31.5199 20.3066C31.1111 20.7325 30.6939 21.1525 30.2824 21.5755C29.8651 22.0043 29.4507 22.4302 29.0392 22.8619C28.9455 22.9582 28.8859 22.999 28.7781 22.8677C28.6163 22.6752 28.4261 22.506 28.253 22.3252C28.1877 22.2552 28.1423 22.2493 28.0713 22.3252C27.7676 22.649 27.4582 22.9669 27.146 23.2791C27.0694 23.3549 27.0609 23.4074 27.1347 23.4832C27.5377 23.8945 27.9351 24.3059 28.3409 24.7172C28.4971 24.8747 28.6929 24.9505 28.9115 24.9534L28.9029 24.9622Z" fill="#FF571D"></path><path d="M28.3467 14C30.8813 14 33.4131 14.0029 35.9448 14C36.2003 14 36.399 14.0846 36.5778 14.2713C37.7159 15.4498 38.857 16.6253 40.0036 17.7951C40.1938 17.9876 40.2761 18.2035 40.2761 18.4777C40.2704 21.3655 40.2704 24.2534 40.2761 27.1413C40.2761 27.3017 40.2392 27.3513 40.0831 27.3397C39.856 27.3251 39.629 27.328 39.4019 27.3397C39.2713 27.3455 39.2288 27.3134 39.2316 27.1705C39.2401 26.5491 39.2344 25.9278 39.2344 25.3036C39.2344 23.2004 39.2344 21.0943 39.2373 18.9911C39.2373 18.8335 39.1919 18.8044 39.05 18.8044C38.2666 18.8102 37.4832 18.8102 36.6998 18.8044C36.2315 18.8044 35.8796 18.5973 35.6837 18.1451C35.6213 18.0022 35.6014 17.8476 35.6014 17.6901C35.6014 16.8733 35.5986 16.0565 35.6042 15.2427C35.6042 15.1026 35.5673 15.0706 35.4339 15.0706C30.535 15.0735 25.6361 15.0735 20.7371 15.0706C20.5981 15.0706 20.5583 15.1026 20.5583 15.2514C20.564 19.382 20.5612 23.5154 20.5612 27.6459C20.5612 27.7957 20.4864 27.8706 20.3369 27.8706C20.1042 27.8706 19.8714 27.8676 19.6415 27.8706C19.5479 27.8706 19.5138 27.8414 19.5252 27.748C19.528 27.716 19.5252 27.6809 19.5252 27.6489C19.5252 23.5125 19.5252 19.3761 19.5252 15.2397C19.5252 15.0881 19.5365 14.9393 19.5763 14.7934C19.6983 14.315 20.0361 14.0525 20.5839 14.0117C20.6633 14.0058 20.7456 14.0058 20.828 14.0058C23.3342 14.0058 25.8404 14.0058 28.3467 14.0058V14Z" fill="#FF571D"></path><path d="M18.7645 39.2967C18.651 39.2996 18.5517 39.2617 18.458 39.2063C17.7371 38.7804 17.0161 38.3574 16.3009 37.9257C15.9773 37.7302 15.9177 37.4794 16.1107 37.1177C16.5137 36.3767 16.9253 35.6416 17.3369 34.9065C17.9755 33.7689 18.6141 32.6312 19.2556 31.4936C19.4599 31.129 19.6728 30.7672 19.8857 30.4084C20.09 30.0642 20.3171 30.0001 20.6605 30.1838C21.3673 30.566 22.0598 30.9744 22.7467 31.3915C23.1554 31.6394 23.2093 31.8786 22.9766 32.3045C21.7533 34.5419 20.4874 36.7559 19.2414 38.9787C19.1335 39.1683 18.9859 39.2909 18.7645 39.2938V39.2967Z" fill="#FF571D"></path><path d="M40.0746 29.2211C40.296 29.224 40.4521 29.3377 40.5486 29.5361C40.8836 30.2304 41.2213 30.9246 41.5562 31.6189C42.3254 33.2174 43.0946 34.816 43.8638 36.4174C43.895 36.4816 43.9234 36.5487 43.9489 36.6129C44.0653 36.9191 43.9887 37.1613 43.702 37.313C43.2422 37.558 42.7767 37.7855 42.3112 38.0218C42.0104 38.1735 41.7123 38.3252 41.4115 38.4739C40.9886 38.684 40.7445 38.5965 40.5344 38.1589C40.0803 37.2109 39.6233 36.2599 39.1692 35.3119C38.5476 34.0138 37.9147 32.7244 37.3186 31.4147C37.2817 31.333 37.2448 31.2542 37.2136 31.1726C37.1086 30.8925 37.1824 30.6592 37.435 30.5046C37.5798 30.4171 37.7302 30.347 37.8806 30.2683C38.5079 29.9474 39.138 29.6295 39.7653 29.3115C39.8618 29.2619 39.9611 29.2152 40.0718 29.2181L40.0746 29.2211ZM42.0161 35.7232C42.0161 35.7232 41.9933 35.7232 41.9792 35.7319C41.7322 35.8573 41.4881 35.9857 41.244 36.1111C41.156 36.1578 41.1759 36.2161 41.2128 36.2891C41.3263 36.5224 41.4427 36.7529 41.542 36.9921C41.5846 37.0913 41.6215 37.1204 41.7209 37.0708C41.9564 36.9483 42.1949 36.8316 42.4333 36.715C42.5099 36.677 42.4986 36.6304 42.4702 36.5691C42.3453 36.3124 42.2232 36.0528 42.1012 35.7932C42.0842 35.7611 42.0813 35.7144 42.0189 35.7202L42.0161 35.7232Z" fill="#FF571D"></path><path d="M26.5613 44.1944C26.164 44.559 25.724 44.6553 25.2756 44.3402C24.8441 44.0369 24.7562 43.5905 24.8952 43.0742C24.5291 43.646 24.0608 43.9698 23.4165 43.611C22.8885 43.3163 22.8233 42.8088 23.0191 42.205C22.8119 42.4179 22.6132 42.5433 22.3691 42.5696C21.9803 42.6104 21.6709 42.4587 21.4467 42.1349C21.231 41.8257 21.1941 41.4815 21.3644 41.1431C21.5687 40.7406 21.8242 40.3643 22.1165 40.0201C22.4231 39.6584 22.9056 39.5942 23.3143 39.8217C23.6804 40.0259 23.8905 40.5335 23.7883 40.9681C23.7741 41.0265 23.7372 41.0819 23.7656 41.1665C23.9217 40.9039 24.0948 40.6793 24.3701 40.5627C24.6483 40.446 24.9208 40.4635 25.1847 40.5977C25.636 40.8252 25.7978 41.2715 25.6673 41.9337C25.8886 41.7353 26.1242 41.6186 26.4024 41.6186C26.6834 41.6186 26.9331 41.7178 27.129 41.9278C27.3333 42.1495 27.4213 42.415 27.4071 42.7184C27.3929 43.0188 27.2056 43.2376 27.0637 43.4797C27.1318 43.5001 27.1545 43.4447 27.1886 43.4184C27.5405 43.1413 28.0401 43.1384 28.3778 43.4126C28.7298 43.6956 28.8575 44.2148 28.6787 44.6261C28.5623 44.8974 28.3949 45.1395 28.2047 45.3583C27.8897 45.7171 27.4128 45.7842 27.0098 45.545C26.5954 45.2999 26.4109 44.8099 26.5471 44.3256C26.5585 44.2906 26.5869 44.2586 26.5642 44.2002L26.5613 44.1944Z" fill="#FF571D"></path></g><defs><clipPath id="clip0_25_625"><rect width="28" height="32" fill="white" transform="translate(16 14)"></rect></clipPath></defs></svg>