<svg xmlns="http://www.w3.org/2000/svg" width="60" height="60" viewBox="0 0 60 60" fill="none"><rect width="60" height="60" rx="30" fill="#F77A4F" fill-opacity="0.25"></rect><g clip-path="url(#clip0_57_782)"><path d="M29.9988 28.0688C34.6805 28.0688 39.3611 28.0688 44.0428 28.0688C44.6139 28.0688 44.9735 28.4167 44.9958 28.9937C44.9958 29.0231 44.9958 29.0524 44.9958 29.0818C44.9958 32.2065 44.9958 35.33 44.9958 38.4547C44.9958 38.9271 44.7773 39.2585 44.3859 39.3866C44.2684 39.4253 44.1474 39.4336 44.0252 39.4336C38.314 39.4312 32.6029 39.4289 26.8917 39.4289C23.2547 39.4289 19.6188 39.4312 15.9818 39.4336C15.6845 39.4336 15.4224 39.3584 15.2203 39.1304C15.0558 38.9447 15.0017 38.7214 15.0017 38.4805C15.0017 36.645 15.0017 34.8094 15.0017 32.9739C15.0017 31.6554 15.0017 30.338 15.0017 29.0195C15.0017 28.4343 15.3719 28.0688 15.9536 28.0688C20.6353 28.0688 25.317 28.0688 29.9976 28.0688H29.9988ZM33.4584 37.0257C33.4678 36.9035 33.429 36.7731 33.3796 36.645C32.7744 35.0421 32.1692 33.4392 31.5641 31.8352C31.3561 31.284 31.1669 30.7247 30.933 30.1853C30.6945 29.6353 30.0622 29.4438 29.524 29.7105C29.2032 29.8703 29.0598 30.1547 28.9482 30.4685C28.4323 31.9127 27.8777 33.3429 27.3359 34.7777C27.0927 35.4193 26.8388 36.0574 26.5991 36.7002C26.4792 37.0198 26.5204 37.3207 26.7413 37.5921C27.1397 38.0822 27.9435 37.9964 28.2043 37.4241C28.3219 37.1679 28.41 36.8988 28.5064 36.6332C28.5393 36.5439 28.5827 36.5016 28.6861 36.5016C29.5593 36.5051 30.4324 36.5051 31.3067 36.5016C31.4148 36.5016 31.463 36.5439 31.4971 36.6403C31.5805 36.8788 31.671 37.1162 31.7603 37.3524C31.7967 37.4476 31.8379 37.5416 31.9072 37.6192C32.1481 37.8906 32.5547 37.9846 32.9131 37.8483C33.2492 37.7214 33.4572 37.4135 33.4595 37.0245L33.4584 37.0257ZM35.2692 29.5895C34.7169 29.5953 34.3797 29.8539 34.2892 30.2687C34.2234 30.5695 34.3115 30.8339 34.489 31.0795C35.1047 31.935 35.7146 32.7941 36.3292 33.6496C36.3833 33.7248 36.3892 33.7765 36.3327 33.854C36.1776 34.0667 36.0354 34.2888 35.8827 34.5027C35.4032 35.1725 34.9202 35.8412 34.4396 36.511C34.2269 36.806 34.2105 37.1197 34.3761 37.4347C34.5454 37.7567 34.8227 37.9176 35.1882 37.9071C35.4972 37.8988 35.7358 37.7543 35.9144 37.5052C36.4197 36.7989 36.9274 36.095 37.428 35.3864C37.4903 35.2983 37.5114 35.31 37.5643 35.3864C37.663 35.5321 37.7711 35.6708 37.8733 35.813C38.2882 36.3923 38.6995 36.9728 39.1155 37.551C39.3481 37.8742 39.7383 37.9893 40.1331 37.8624C40.4939 37.7473 40.7078 37.4382 40.7242 37.0433C40.7371 36.7566 40.5926 36.5404 40.4387 36.3253C39.8523 35.5039 39.2659 34.6813 38.6748 33.8634C38.6125 33.7777 38.6125 33.7212 38.6748 33.6355C38.918 33.3064 39.1531 32.9703 39.3916 32.6366C39.7794 32.0925 40.1707 31.5508 40.555 31.0043C40.7842 30.6788 40.7724 30.3357 40.5797 29.9984C40.3999 29.6847 40.112 29.5742 39.763 29.593C39.4962 29.6083 39.2894 29.7328 39.1354 29.9455C38.8675 30.3181 38.6043 30.6929 38.3363 31.0654C38.0802 31.4215 37.8181 31.774 37.5608 32.1301C37.5185 32.1877 37.4926 32.2171 37.4374 32.1383C37.2153 31.8234 36.9873 31.5132 36.764 31.1994C36.4667 30.7822 36.1753 30.3615 35.8756 29.9455C35.7005 29.7035 35.4561 29.5906 35.2669 29.5883L35.2692 29.5895ZM23.3886 34.3065H23.3839C23.3839 33.3699 23.3863 32.4321 23.3816 31.4955C23.3816 31.3745 23.4274 31.3486 23.5367 31.3498C23.9856 31.3545 24.4345 31.358 24.8834 31.3498C25.2371 31.3428 25.5015 31.17 25.6472 30.8504C25.7906 30.5355 25.7636 30.2205 25.5556 29.9361C25.3605 29.6694 25.0832 29.5801 24.7612 29.5812C23.5802 29.5859 22.3992 29.5836 21.2182 29.5859C20.8527 29.5859 20.4861 29.5789 20.1206 29.5953C19.6106 29.6177 19.2627 29.9937 19.271 30.4896C19.2804 30.9738 19.6423 31.3392 20.1417 31.3498C20.5707 31.3592 21.0008 31.3592 21.4297 31.3486C21.5778 31.3451 21.6212 31.3839 21.6201 31.5343C21.6142 33.2958 21.6142 35.0574 21.6142 36.8201C21.6142 36.9129 21.6154 37.0057 21.6236 37.0974C21.6659 37.544 21.9914 37.8812 22.4051 37.9106C22.8845 37.9435 23.2629 37.6779 23.3628 37.2337C23.3922 37.1045 23.3851 36.9717 23.3863 36.84C23.3863 35.9963 23.3863 35.1514 23.3863 34.3076L23.3886 34.3065Z" fill="#FF571D"></path><path d="M29.9963 26.306C27.6484 26.306 25.3005 26.306 22.9526 26.306C21.7857 26.306 20.6199 26.306 19.453 26.3083C19.3332 26.3083 19.2803 26.2848 19.2803 26.1485C19.2838 23.0391 19.2803 19.9297 19.2814 16.8203C19.2814 16.0776 19.7315 15.4042 20.4049 15.1304C20.6587 15.027 20.9278 15.0047 21.1957 15.0047C25.1888 15.0024 29.182 15.0035 33.1739 15C33.3067 15 33.3372 15.0423 33.3372 15.1669C33.3325 17.2175 33.3325 19.2669 33.3325 21.3175C33.3325 21.4926 33.3325 21.6677 33.3854 21.8393C33.497 22.1989 33.7861 22.4304 34.1598 22.4433C34.3796 22.4515 34.5993 22.4468 34.8191 22.4468C36.7322 22.4468 38.6465 22.448 40.5596 22.4433C40.6983 22.4433 40.7194 22.4962 40.7194 22.6149C40.7171 23.7912 40.7182 24.9675 40.7229 26.1438C40.7229 26.2719 40.6853 26.3095 40.5561 26.3095C37.0366 26.306 33.517 26.3071 29.9987 26.3071L29.9963 26.306ZM26.0161 20.5713C26.0161 20.5713 26.0161 20.5713 26.0161 20.5725C26.7283 20.5725 27.4404 20.5795 28.1537 20.5701C28.6496 20.5631 29.0057 20.1882 29.008 19.6982C29.0104 19.2011 28.652 18.8227 28.1549 18.8074C27.8917 18.7992 27.6284 18.8063 27.3652 18.8063C26.223 18.8074 25.0819 18.8074 23.9397 18.811C23.7364 18.811 23.5413 18.8556 23.3744 18.979C23.0724 19.2035 22.949 19.583 23.0572 19.9426C23.1711 20.3187 23.472 20.5631 23.8656 20.5678C24.5825 20.576 25.3005 20.5701 26.0173 20.5701L26.0161 20.5713ZM26.0032 24.3212C26.72 24.3212 27.4381 24.3282 28.1549 24.3188C28.6437 24.3118 29.0092 23.9322 29.008 23.4598C29.0069 22.9463 28.6555 22.5714 28.1514 22.5561C27.8541 22.5479 27.5567 22.5538 27.2583 22.5549C26.1513 22.5561 25.0431 22.5561 23.9362 22.5596C23.7329 22.5596 23.539 22.6043 23.3721 22.7289C23.0701 22.9545 22.9479 23.3341 23.0572 23.6936C23.1711 24.0685 23.4732 24.3129 23.8668 24.3165C24.579 24.3247 25.2911 24.3188 26.0032 24.3188V24.3212Z" fill="#FF571D"></path><path d="M30.0139 41.194C33.5241 41.194 37.0342 41.194 40.5443 41.1904C40.6818 41.1904 40.7194 41.2292 40.7182 41.362C40.7135 41.9966 40.7241 42.6311 40.7159 43.2657C40.7065 44.0448 40.1131 44.8921 39.1565 44.9744C38.9767 44.9896 38.7969 44.999 38.6159 44.999C32.8061 44.999 26.9974 44.9979 21.1875 45.0014C20.6058 45.0014 20.104 44.8369 19.7127 44.3903C19.453 44.093 19.2991 43.7487 19.292 43.355C19.2803 42.6723 19.285 41.9883 19.2803 41.3044C19.2803 41.2222 19.3155 41.1916 19.3954 41.194C19.5764 41.1963 19.7562 41.1963 19.9372 41.1963C23.2957 41.1963 26.6542 41.1963 30.0139 41.1963V41.194Z" fill="#FF571D"></path><path d="M35.1224 15.6509C36.7934 17.3254 38.4621 18.9965 40.1332 20.6699C40.0815 20.7087 40.0168 20.6769 39.9569 20.6781C38.3963 20.6816 36.8357 20.6805 35.274 20.6852C35.1576 20.6852 35.0977 20.6687 35.0989 20.5277C35.1048 18.9084 35.1048 17.289 35.1059 15.6697C35.1059 15.6662 35.1118 15.6626 35.1224 15.6509Z" fill="#FF571D"></path><path d="M30.0281 32.748C30.1679 33.1993 30.3677 33.627 30.5263 34.0701C30.5933 34.2581 30.6603 34.4449 30.732 34.6318C30.7637 34.7152 30.7461 34.7458 30.6544 34.7458C30.2208 34.7434 29.7872 34.7458 29.3524 34.7458C29.2971 34.7458 29.2231 34.7575 29.2631 34.6541C29.5063 34.0195 29.7484 33.385 29.9905 32.7504H30.0269L30.0281 32.748Z" fill="#FF571D"></path></g><defs><clipPath id="clip0_57_782"><rect width="29.9965" height="30" fill="white" transform="translate(15.0017 15)"></rect></clipPath></defs></svg>