<svg xmlns="http://www.w3.org/2000/svg" width="60" height="60" viewBox="0 0 60 60" fill="none"><rect width="60" height="60" rx="30" fill="#F77A4F" fill-opacity="0.25"></rect><g clip-path="url(#clip0_57_746)"><path d="M20.8129 28.5184C16.8488 28.4324 13.877 25.2378 14.0037 21.3471C14.1191 17.7944 16.9981 14.5922 21.0111 14.6492C24.782 14.7036 27.8504 17.8678 27.7412 21.7585C27.6346 25.5669 24.7042 28.4956 20.8116 28.5197L20.8129 28.5184ZM21.2494 19.8093C21.2494 19.3575 21.2494 18.9056 21.2494 18.4538C21.2494 18.3665 21.2582 18.2994 21.3698 18.3513C21.7688 18.5361 22.0811 18.8031 22.2191 19.2423C22.2705 19.4043 22.2831 19.5714 22.3044 19.7385C22.3383 20.008 22.4913 20.1473 22.736 20.1295C22.9542 20.1144 23.0734 19.9549 23.0684 19.6828C23.0508 18.6829 22.4311 17.8602 21.4602 17.5855C21.2783 17.5337 21.2306 17.459 21.2482 17.2881C21.2657 17.1135 21.1616 17.0046 21.0148 16.9325C20.8743 16.8628 20.7539 16.9097 20.6385 16.997C20.5093 17.0945 20.4867 17.2299 20.5018 17.3767C20.513 17.483 20.4792 17.5349 20.3675 17.559C20.0627 17.6223 19.788 17.7589 19.5408 17.9501C18.8296 18.4981 18.4934 19.2246 18.6577 20.1144C18.8333 21.0598 19.4367 21.6534 20.3437 21.9331C20.4441 21.9635 20.5043 21.9926 20.5043 22.1192C20.498 23.0026 20.4992 23.8848 20.5043 24.7682C20.5043 24.8935 20.4717 24.9087 20.3625 24.8594C19.7591 24.591 19.4242 24.1354 19.3765 23.4659C19.3577 23.2026 19.2247 23.0798 18.9926 23.0887C18.7781 23.0963 18.6289 23.2709 18.6276 23.514C18.6238 24.5012 19.3615 25.4226 20.355 25.6593C20.4729 25.6871 20.5181 25.7251 20.5055 25.8504C20.488 26.0149 20.5432 26.1516 20.7062 26.2212C20.996 26.344 21.2544 26.1782 21.2482 25.8605C21.2457 25.7352 21.2783 25.6884 21.405 25.6542C22.6394 25.3163 23.1888 24.2949 23.0445 23.1279C22.9204 22.1331 22.2981 21.5458 21.3623 21.2788C21.2733 21.2535 21.2494 21.2244 21.2507 21.1358C21.2544 20.694 21.2519 20.2523 21.2519 19.8119L21.2494 19.8093Z" fill="#FF571D"></path><path d="M43.8811 36.1238C43.8811 38.8525 43.8799 41.5813 43.8849 44.3101C43.8849 44.4582 43.8423 44.4873 43.7043 44.4873C42.3181 44.4823 40.9332 44.4848 39.547 44.4848C39.399 44.4848 39.325 44.4114 39.325 44.2646C39.325 39.2386 39.325 34.2113 39.325 29.1853C39.325 28.7651 39.3212 28.3437 39.3287 27.9235C39.3312 27.7956 39.3011 27.7513 39.1656 27.7539C38.6764 27.764 38.1859 27.7602 37.6967 27.7627C37.5323 27.7627 37.3667 27.7627 37.2727 27.5906C37.1748 27.4109 37.23 27.2501 37.3354 27.0906C38.0843 25.9465 38.8307 24.801 39.5771 23.6556C40.0889 22.8696 40.6058 22.0874 41.1063 21.2939C41.3522 20.904 41.5943 20.8218 41.9079 21.2825C43.2251 23.219 44.5586 25.144 45.8883 27.0704C45.9886 27.2147 46.0451 27.3514 45.9585 27.521C45.872 27.6918 45.7265 27.7551 45.5471 27.7551C45.0465 27.7564 44.5473 27.7615 44.0467 27.7501C43.905 27.7463 43.8786 27.7855 43.8786 27.9209C43.8824 30.6548 43.8811 33.3886 43.8811 36.1225V36.1238Z" fill="#FF571D"></path><path d="M16.8728 35.8974C16.8728 35.2304 17.2466 34.6773 17.9102 34.4381C18.6905 34.1571 19.452 33.8331 20.2034 33.4876C21.1681 33.0446 22.1114 32.551 23.0209 31.9966C24.4485 31.1258 25.7519 30.0905 26.985 28.964C28.321 27.7427 29.5203 26.396 30.5577 24.905C31.614 23.3888 32.4331 21.7472 33.1293 20.0385C33.4292 19.3032 33.6499 18.545 33.8544 17.7793C33.8833 17.6692 33.8507 17.6363 33.7553 17.5958C33.1544 17.3439 32.5573 17.0857 31.9602 16.8288C31.8536 16.7832 31.7545 16.7288 31.6792 16.6364C31.5161 16.4364 31.56 16.2111 31.7959 16.1111C32.6439 15.7517 33.4944 15.3973 34.3449 15.0416C35.1089 14.7227 35.8741 14.4063 36.6381 14.0886C36.6908 14.0671 36.7447 14.0468 36.7999 14.0304C37.037 13.9544 37.1587 14.0101 37.2578 14.243C37.9 15.7466 38.5022 17.2667 39.1244 18.7779C39.1846 18.9235 39.2398 19.0703 39.3013 19.2146C39.3678 19.3715 39.3527 19.5158 39.2323 19.636C39.1068 19.7613 38.9588 19.7968 38.7895 19.7221C38.1898 19.4563 37.5864 19.1981 36.9893 18.926C36.8538 18.864 36.7999 18.869 36.7547 19.0272C36.3144 20.5701 35.7185 22.0509 35.0085 23.4862C34.0576 25.4062 32.9286 27.2098 31.5036 28.8122C30.224 30.25 28.8717 31.6118 27.3538 32.7952C25.4897 34.2495 23.4976 35.4899 21.3312 36.4378C20.6487 36.7365 19.965 37.0302 19.2688 37.2909C18.767 37.4795 18.2552 37.4808 17.7585 37.2795C17.204 37.0542 16.8753 36.5176 16.8753 35.8961L16.8728 35.8974Z" fill="#FF571D"></path><path d="M33.1281 38.802C33.1281 36.9984 33.1281 35.1961 33.1281 33.3925C33.1281 33.3089 33.1256 33.2254 33.1456 33.1419C33.192 32.9457 33.2849 32.8533 33.4831 32.8242C33.5496 32.8141 33.6186 32.8141 33.685 32.8141C34.8253 32.8141 35.9669 32.8141 37.1072 32.8141C37.195 32.8141 37.2841 32.8115 37.3719 32.833C37.5425 32.8748 37.6466 32.9786 37.6717 33.1533C37.683 33.2254 37.6855 33.3001 37.6855 33.3735C37.6855 36.949 37.6855 40.5233 37.683 44.0988C37.683 44.357 37.5555 44.4861 37.3004 44.4861C35.9619 44.4861 34.6234 44.4836 33.2836 44.4899C33.1506 44.4899 33.123 44.4519 33.123 44.3241C33.1268 42.4838 33.1256 40.6435 33.1256 38.8045L33.1281 38.802Z" fill="#FF571D"></path><path d="M31.4357 40.6399C31.4357 41.8702 31.4357 43.0991 31.4382 44.3294C31.4382 44.4433 31.4081 44.4863 31.289 44.4863C29.8564 44.4825 28.425 44.4825 26.9924 44.4863C26.8896 44.4863 26.8745 44.4496 26.8745 44.3585C26.877 41.9094 26.8745 39.4603 26.877 37.0113C26.877 36.686 27.0238 36.5354 27.3462 36.5341C28.5593 36.5303 29.7723 36.5303 30.9866 36.5341C31.3278 36.5341 31.4332 36.6518 31.4345 37.0125C31.437 38.2212 31.4345 39.43 31.4345 40.6387H31.4357V40.6399Z" fill="#FF571D"></path><path d="M20.6937 41.8739C20.6937 41.0905 20.6937 40.3083 20.6937 39.5248C20.6937 39.4464 20.7 39.3679 20.7138 39.2907C20.7402 39.1401 20.8317 39.0477 20.981 39.0211C21.0625 39.0072 21.1466 38.9996 21.2294 38.9996C22.3797 38.9983 23.5301 38.9996 24.6817 38.9996C25.1107 38.9996 25.2499 39.1426 25.2499 39.578C25.2499 41.1601 25.2487 42.7409 25.2524 44.323C25.2524 44.4534 25.2223 44.4888 25.0906 44.4875C23.6844 44.4825 22.2794 44.4825 20.8731 44.4875C20.7264 44.4875 20.6887 44.4432 20.6887 44.3015C20.6937 43.4927 20.6912 42.6827 20.6912 41.8739H20.6937Z" fill="#FF571D"></path><path d="M31.9087 45.2407C36.1965 45.2407 40.4842 45.2407 44.772 45.2407C44.8761 45.2407 44.979 45.2407 45.0818 45.266C45.2436 45.304 45.3352 45.4027 45.3641 45.5635C45.3879 45.6976 45.3051 45.8546 45.1709 45.9305C45.073 45.9862 44.9664 46.0001 44.8548 45.9989C44.1987 45.9976 43.5413 45.9989 42.8853 45.9989C34.9358 45.9989 26.985 45.9989 19.0355 45.9989C18.9314 45.9989 18.8272 46.0014 18.7269 45.9672C18.5626 45.9115 18.4459 45.7445 18.4559 45.585C18.466 45.4242 18.5738 45.3116 18.752 45.2648C18.8498 45.2395 18.9477 45.242 19.0468 45.242C23.3345 45.242 27.6223 45.242 31.91 45.242L31.9087 45.2407Z" fill="#FF571D"></path><path d="M20.4992 19.7485C20.4992 20.1788 20.4967 20.6091 20.5005 21.0407C20.5005 21.1496 20.4879 21.2014 20.3638 21.1407C19.8946 20.9103 19.5283 20.58 19.4079 20.0497C19.2887 19.5257 19.4505 19.0764 19.8356 18.7093C19.9837 18.5688 20.1543 18.4587 20.3437 18.3777C20.498 18.3119 20.498 18.3106 20.4992 18.4878C20.4992 18.908 20.4992 19.3283 20.4992 19.7485Z" fill="#FF571D"></path><path d="M21.2494 23.4723C21.2494 23.0471 21.2544 22.6205 21.2469 22.1953C21.2444 22.0459 21.2933 22.0421 21.4087 22.0927C21.9695 22.3408 22.322 22.8787 22.3107 23.5027C22.2994 24.1507 21.9507 24.576 21.3987 24.8582C21.2632 24.9278 21.2469 24.8722 21.2482 24.7494C21.2532 24.3241 21.2507 23.8976 21.2507 23.4723H21.2494Z" fill="#FF571D"></path></g><defs><clipPath id="clip0_57_746"><rect width="32" height="32" fill="white" transform="translate(14 14)"></rect></clipPath></defs></svg>