<svg xmlns="http://www.w3.org/2000/svg" width="60" height="60" viewBox="0 0 60 60" fill="none"><rect width="60" height="60" rx="30" fill="#F77A4F" fill-opacity="0.25"></rect><g clip-path="url(#clip0_57_789)"><path d="M29.2336 42.6131C30.4259 42.6586 31.7795 41.7796 32.0005 40.3897C32.0291 40.2076 32.124 40.1452 32.2813 40.0932C33.4672 39.6967 34.6205 39.2091 35.8037 38.8034C36.9206 38.4211 38.0076 37.9569 39.1271 37.5812C40.4221 37.1469 41.7457 38.061 41.8055 39.4236C41.8393 40.1829 41.3817 41.0905 40.4949 41.4117C39.2779 41.8511 38.0661 42.3049 36.853 42.7509C34.1264 43.7547 31.3985 44.7546 28.6732 45.7609C27.6941 46.1224 26.7359 46.0665 25.7919 45.6504C24.5983 45.1238 23.3865 44.6388 22.185 44.1317C21.717 43.9341 21.2528 43.7352 20.7496 43.6455C20.0917 43.5271 19.4494 43.6025 18.8148 43.7885C18.6068 43.8496 18.6029 43.8509 18.5847 43.6455C18.5041 42.721 18.43 41.7965 18.3481 40.8721C18.2856 40.1738 18.2089 39.4769 18.1452 38.7787C18.0581 37.8282 17.9983 36.8739 17.8826 35.926C17.8423 35.597 17.9476 35.4553 18.2206 35.3266C18.9319 34.9885 19.5976 34.562 20.3296 34.2669C21.1683 33.9288 21.9939 33.9457 22.8222 34.3358C25.1002 35.4072 27.3847 36.4682 29.6692 37.5266C30.5416 37.9309 31.0149 38.6123 31.0617 39.5601C31.1072 40.4833 30.6105 41.3024 29.6913 41.5248C29.2973 41.6197 28.9202 41.5755 28.5549 41.4052C27.3912 40.863 26.2132 40.3546 25.0651 39.7799C24.9454 39.7201 24.8193 39.6667 24.6932 39.6225C24.4175 39.5263 24.1471 39.6407 24.0288 39.8969C23.917 40.1374 24.008 40.4287 24.2537 40.5678C24.6451 40.7875 25.0703 40.9332 25.4746 41.1256C26.3458 41.5404 27.2221 41.9448 28.0946 42.3582C28.4665 42.5338 28.8539 42.6352 29.2362 42.6196L29.2336 42.6131Z" fill="#FF571D"></path><path d="M25.0001 32.744C22.9588 32.744 20.9161 32.744 18.8747 32.744C18.4002 32.744 18.1427 32.4697 18.1895 31.9951C18.3924 29.9199 19.2388 28.1451 20.699 26.6589C22.0031 25.3314 23.5803 24.5149 25.4032 24.1781C26.7255 23.9337 28.0336 24.026 29.3247 24.4134C30.0372 24.6267 30.7134 24.9127 31.3466 25.3015C31.448 25.3639 31.4792 25.4133 31.4298 25.5316C31.3271 25.7787 31.3102 26.0426 31.3115 26.3092C31.318 28.3766 31.3193 30.4439 31.3232 32.5113C31.3232 32.7388 31.3206 32.7375 31.093 32.7375C29.0621 32.7375 27.0311 32.7375 25.0001 32.7375C25.0001 32.7388 25.0001 32.7414 25.0001 32.7427V32.744Z" fill="#FF571D"></path><path d="M31.5624 18.6587C31.5611 21.3346 29.4937 23.4085 26.8126 23.3903C24.103 23.3708 22.1708 21.1539 22.1682 18.6769C22.1669 16.0791 24.2915 13.9974 26.9349 14C29.4612 14.0026 31.5637 16.1194 31.5624 18.6587Z" fill="#FF571D"></path><path d="M39.1609 30.6509C37.4654 30.6509 35.7686 30.6509 34.0731 30.6509C33.8404 30.6509 33.6076 30.6431 33.384 30.5742C32.7794 30.3896 32.3737 29.8656 32.3646 29.2051C32.3503 28.2013 32.3555 27.1975 32.3646 26.1937C32.3685 25.7582 32.6155 25.5371 33.0732 25.5358C33.986 25.5319 34.8987 25.5306 35.8115 25.5358C35.948 25.5358 35.9831 25.4968 35.9792 25.3629C35.9701 25.0391 35.974 24.7154 35.9792 24.3916C35.9922 23.6115 36.5565 23.0459 37.338 23.042C38.5641 23.0355 39.7902 23.0355 41.0163 23.042C41.7939 23.0459 42.3465 23.6076 42.366 24.402C42.3738 24.731 42.3725 25.0612 42.366 25.3902C42.3634 25.5007 42.3894 25.5397 42.509 25.5384C43.3893 25.5319 44.2695 25.5345 45.1498 25.5332C45.2577 25.5332 45.3656 25.5254 45.4722 25.5475C45.7531 25.6073 45.9247 25.7881 45.9728 26.0715C46.0027 26.2549 45.9884 26.4382 45.9884 26.6215C45.991 27.442 45.9923 28.2624 45.9936 29.0829C45.9936 29.7993 45.6114 30.3636 44.9859 30.5677C44.7571 30.6418 44.5192 30.6509 44.2812 30.6509C42.574 30.6509 40.8681 30.6509 39.1609 30.6509ZM39.1609 27.1533C38.1623 27.1533 37.1625 27.1559 36.1639 27.1507C36.0338 27.1507 35.9883 27.1858 35.9792 27.3197C35.948 27.767 35.9662 28.2156 35.9636 28.6629C35.961 29.0296 35.9636 29.0296 36.3303 29.0296C38.0635 29.0296 39.7967 29.027 41.5299 29.027C41.751 29.027 41.972 29.027 42.1943 29.027C42.3205 29.027 42.379 28.9749 42.3777 28.8423C42.3738 28.3404 42.3712 27.8385 42.3777 27.3366C42.379 27.1819 42.3166 27.1507 42.1748 27.1507C41.1711 27.1559 40.166 27.1533 39.1622 27.1533H39.1609ZM39.1674 25.5371C39.1674 25.5371 39.1674 25.5358 39.1674 25.5345C39.8422 25.5345 40.517 25.5319 41.1919 25.5371C41.305 25.5371 41.3427 25.5072 41.3401 25.3915C41.3323 25.0573 41.3388 24.7219 41.3349 24.3877C41.3323 24.1732 41.2439 24.0796 41.028 24.0796C39.8084 24.0757 38.5888 24.0744 37.3692 24.0757C37.1013 24.0757 37.0285 24.1524 37.0077 24.4228C36.983 24.7414 37.0142 25.0599 37.0012 25.3772C36.996 25.5137 37.035 25.5397 37.1585 25.5384C37.8282 25.5332 38.4978 25.5358 39.1674 25.5358V25.5371Z" fill="#FF571D"></path><path d="M45.9896 31.2256C45.9896 31.5532 45.9896 31.8328 45.9896 32.1136C45.9896 32.8587 45.9922 33.6037 45.9935 34.3487C45.9935 34.9937 45.606 35.4201 44.9624 35.4604C44.7102 35.476 44.4553 35.4617 44.2018 35.4617C40.8095 35.4604 37.4185 35.4578 34.0262 35.4565C33.7882 35.4565 33.549 35.476 33.3137 35.4539C32.765 35.4019 32.3788 35.0171 32.3684 34.4658C32.3489 33.4243 32.3619 32.3828 32.3593 31.3413C32.3593 31.2477 32.3905 31.2412 32.4633 31.288C32.9561 31.6001 33.5035 31.6833 34.0743 31.682C35.2354 31.6794 36.3965 31.6872 37.5576 31.682C37.7032 31.682 37.7396 31.7223 37.7383 31.8627C37.7331 32.1826 37.8125 32.2593 38.1245 32.2593C38.8162 32.2593 39.5067 32.2593 40.1984 32.2567C40.5403 32.2554 40.6223 32.1761 40.6158 31.8354C40.6132 31.7106 40.6522 31.6859 40.7705 31.6859C41.942 31.6872 43.1148 31.6794 44.2863 31.682C44.8779 31.682 45.4487 31.6196 45.9896 31.2282V31.2256Z" fill="#FF571D"></path><path d="M16.1467 34.554C16.5121 34.5475 16.6902 34.6723 16.7305 34.944C16.7877 35.3276 16.8189 35.7151 16.8553 36.1012C16.9515 37.1154 17.0452 38.1309 17.1375 39.1464C17.2298 40.1566 17.3182 41.1656 17.4092 42.1759C17.4768 42.9222 17.5484 43.6686 17.616 44.4149C17.6342 44.6138 17.6485 44.8128 17.6628 45.0117C17.681 45.2835 17.5419 45.472 17.274 45.5214C16.8813 45.5929 16.4809 45.6059 16.083 45.6462C15.8737 45.667 15.663 45.68 15.4537 45.6982C15.1299 45.7255 14.9453 45.5864 14.9128 45.264C14.8426 44.5605 14.7841 43.8571 14.7191 43.1537C14.6501 42.4126 14.5799 41.6727 14.5123 40.9316C14.4499 40.2438 14.394 39.5559 14.3303 38.8694C14.2627 38.1335 14.186 37.3989 14.1196 36.6642C14.0767 36.1922 14.0377 35.719 14.0078 35.2444C13.9883 34.9388 14.1131 34.7698 14.42 34.7321C15.0246 34.6567 15.6331 34.606 16.1454 34.554H16.1467Z" fill="#FF571D"></path></g><defs><clipPath id="clip0_57_789"><rect width="31.987" height="32" fill="white" transform="translate(14.0066 14)"></rect></clipPath></defs></svg>