<svg xmlns="http://www.w3.org/2000/svg" width="60" height="60" viewBox="0 0 60 60" fill="none"><rect width="60" height="60" rx="30" fill="#F77A4F" fill-opacity="0.25"></rect><g clip-path="url(#clip0_25_594)"><path d="M18.5076 31.6417C19.592 31.6417 20.6751 31.6417 21.7595 31.6417C22.0413 31.6417 22.0495 31.6417 22.0523 31.9074C22.0632 33.0611 22.3931 34.1371 22.9278 35.1579C23.6425 36.5234 24.742 37.5376 26.1179 38.2874C26.9934 38.7649 27.9321 39.0846 28.9327 39.2003C31.0755 39.4489 33.0286 38.9754 34.77 37.7388C35.7486 37.0443 36.5389 36.1945 37.0791 35.1474C37.6247 34.0884 37.9697 32.9755 37.9422 31.7798C37.9395 31.6377 38.0164 31.6351 38.1223 31.6364C38.716 31.639 39.3084 31.6417 39.9022 31.6417C41.5336 31.6417 43.1651 31.6443 44.7979 31.6377C44.9615 31.6377 45 31.6864 44.9986 31.8324C44.9917 32.3573 44.9945 32.8808 45.0014 33.4057C45.0027 33.5372 44.9532 33.5978 44.8254 33.6438C44.1052 33.899 43.3891 34.166 42.6689 34.4239C42.5507 34.466 42.4916 34.5278 42.4573 34.6501C42.1329 35.7959 41.7261 36.9114 41.0443 37.9151C40.9605 38.0388 40.966 38.1374 41.0278 38.2611C41.3577 38.932 41.6766 39.6068 41.9789 40.2908C42.0188 40.3803 42.0078 40.4382 41.935 40.5066C41.0498 41.3511 40.1674 42.197 39.2878 43.0467C39.2012 43.1309 39.1338 43.1388 39.0225 43.0902C38.3078 42.7771 37.589 42.4732 36.8729 42.1641C36.789 42.1272 36.7231 42.118 36.6365 42.1693C35.5452 42.8218 34.359 43.2625 33.1207 43.5795C33.0217 43.6045 32.9722 43.6584 32.9365 43.7492C32.6561 44.4464 32.3675 45.1397 32.0898 45.8368C32.0417 45.9579 31.9799 46.0013 31.8424 46.0013C30.604 45.996 29.3657 45.9973 28.1287 46C28.0283 46 27.9802 45.9855 27.9362 45.8763C27.6407 45.1502 27.3411 44.4254 27.0676 43.6913C27.0401 43.619 26.9906 43.59 26.9205 43.5742C25.6712 43.2848 24.5001 42.8126 23.3992 42.1799C23.3112 42.1299 23.2398 42.1233 23.1463 42.1641C22.4206 42.4798 21.6908 42.7876 20.9678 43.1086C20.829 43.1704 20.7685 43.0994 20.6929 43.0257C20.0098 42.3666 19.3267 41.7076 18.6436 41.0486C18.4553 40.867 18.267 40.6842 18.0732 40.5053C17.9976 40.4355 17.9839 40.3764 18.0306 40.2777C18.3605 39.5765 18.6697 38.8662 19.0216 38.1756C19.0697 38.0809 19.0243 38.0217 18.9817 37.9506C18.6684 37.4192 18.3358 36.8956 18.1117 36.3208C17.8932 35.7591 17.6829 35.1947 17.5413 34.6094C17.5152 34.5028 17.4424 34.4607 17.3462 34.4252C16.6273 34.166 15.9099 33.9016 15.1883 33.6464C15.055 33.5991 15.0027 33.5399 15.0055 33.3991C15.0151 32.869 15.0151 32.3389 15.0055 31.81C15.0027 31.6667 15.055 31.639 15.1924 31.639C16.2988 31.643 17.4066 31.6417 18.5131 31.6417H18.5076Z" fill="#FF571D"></path><path d="M30.0048 31.6377C32.241 31.6377 34.4772 31.6391 36.7148 31.6338C36.8647 31.6338 36.8674 31.6996 36.8647 31.8035C36.7808 34.6265 34.8593 37.0193 32.2039 37.8467C31.1841 38.1638 30.1409 38.3098 29.0839 38.1519C26.9041 37.827 25.2217 36.772 24.0768 34.9422C23.4679 33.9687 23.1999 32.9164 23.1381 31.7995C23.1312 31.664 23.1807 31.6377 23.3126 31.6377C24.4314 31.643 25.5488 31.6417 26.6676 31.6417C27.7796 31.6417 28.8929 31.6417 30.0048 31.6417V31.6391V31.6377Z" fill="#FF571D"></path><path d="M19.9522 29.6935C18.5887 29.6935 17.2253 29.6935 15.8618 29.6935C15.7656 29.6935 15.668 29.6895 15.5718 29.675C15.2846 29.6316 15.0839 29.383 15.1334 29.1081C15.2351 28.5503 15.4852 28.0491 15.8151 27.5861C16.8803 26.093 18.3812 25.3551 20.2477 25.4669C22.264 25.5892 23.6948 26.6047 24.5194 28.3819C24.6212 28.6003 24.7215 28.8213 24.7668 29.0594C24.8259 29.3699 24.6404 29.629 24.3147 29.675C24.191 29.6935 24.0645 29.6921 23.9394 29.6935C22.6103 29.6935 21.2813 29.6935 19.9522 29.6935Z" fill="#FF571D"></path><path d="M44.9986 23.8093C44.9986 25.5905 44.9986 27.3716 44.9986 29.1514C44.9986 29.5684 44.8804 29.6882 44.4433 29.6934C44.0104 29.6974 43.576 29.6961 43.1431 29.6934C42.6181 29.6908 42.4999 29.5763 42.5012 29.0725C42.5012 26.6192 42.5012 24.1672 42.5026 21.7138C42.5026 20.6272 42.5012 19.5393 42.5026 18.4528C42.5026 18.3765 42.5067 18.3002 42.5205 18.2252C42.5535 18.0331 42.6662 17.9161 42.871 17.9016C43.4455 17.8582 44.0227 17.8687 44.5973 17.8924C44.8502 17.9029 44.9697 18.0437 44.9917 18.287C44.9972 18.3462 44.9959 18.4067 44.9959 18.4672C44.9959 20.2484 44.9959 22.0295 44.9959 23.8107C44.9972 23.8107 45 23.8107 45.0013 23.8107L44.9986 23.8093Z" fill="#FF571D"></path><path d="M41.7961 15.0537C41.6312 15.0537 41.4649 15.0602 41.3013 15.0537C40.8739 15.0352 40.6031 14.663 40.7612 14.3183C40.8615 14.1013 41.0567 14.0131 41.2835 14.0092C41.9171 14 42.5507 13.996 43.1829 14.0092C43.6228 14.0184 43.844 14.2907 43.763 14.709C43.6489 15.2983 43.5211 15.885 43.3891 16.4717C43.3204 16.7782 43.0427 16.9624 42.7692 16.9058C42.4517 16.8401 42.2758 16.5717 42.3377 16.2481C42.3514 16.1758 42.3693 16.1034 42.3844 16.0311C42.3225 16.0192 42.3005 16.0547 42.2717 16.0797C41.1598 17.0519 40.0478 18.024 38.9345 18.9948C38.8919 19.0316 38.8493 19.0671 38.8067 19.104C38.6047 19.2855 38.3834 19.3105 38.1291 19.204C37.1862 18.8067 36.2406 18.4147 35.2936 18.024C34.6133 17.7438 33.9302 17.4715 33.2498 17.1926C33.1577 17.1545 33.0918 17.1702 33.0175 17.2255C31.4287 18.4094 29.811 19.5552 28.2029 20.7154C28.1204 20.7746 28.0379 20.8338 27.9486 20.8812C27.7287 20.9982 27.4703 20.9443 27.3067 20.7509C27.1445 20.5589 27.1404 20.2997 27.3081 20.1208C27.3878 20.0366 27.4854 19.9669 27.5802 19.8972C28.1232 19.4986 28.6674 19.104 29.2103 18.7067C30.3607 17.8648 31.5125 17.0242 32.6616 16.1797C32.898 16.0061 33.1344 16.0061 33.3983 16.1152C34.447 16.5546 35.497 16.9874 36.5471 17.4228C37.0749 17.6412 37.6054 17.8543 38.1291 18.0819C38.2624 18.1397 38.3421 18.1226 38.4439 18.0306C39.3881 17.1663 40.3653 16.3362 41.3288 15.493C41.4869 15.3549 41.6532 15.226 41.8154 15.0918C41.8085 15.08 41.8002 15.0668 41.7934 15.055L41.7961 15.0537Z" fill="#FF571D"></path><path d="M31.8123 25.367C31.8123 24.095 31.8123 22.8229 31.8123 21.5508C31.8123 21.1773 31.9428 21.0431 32.3332 21.0339C32.8115 21.0233 33.2912 21.0233 33.7695 21.0286C34.1736 21.0339 34.3069 21.172 34.3069 21.5627C34.3069 23.8884 34.3055 26.2142 34.3055 28.5399C34.3055 28.7806 34.3138 29.0201 34.311 29.2608C34.3083 29.5278 34.1777 29.6752 33.8987 29.6817C33.3461 29.6936 32.7922 29.6962 32.2397 29.683C31.9291 29.6765 31.8081 29.5383 31.8068 29.2305C31.804 27.9427 31.8068 26.6535 31.8068 25.3657C31.8081 25.3657 31.8095 25.3657 31.8123 25.3657V25.367Z" fill="#FF571D"></path><path d="M17.4356 22.3493C17.4301 21.0667 18.5736 19.9801 19.9274 19.9722C21.4861 19.963 22.4523 21.2469 22.4633 22.3716C22.4757 23.6924 21.3266 24.7802 19.9302 24.7855C18.5447 24.7908 17.4411 23.7134 17.4356 22.3506V22.3493Z" fill="#FF571D"></path><path d="M39.6562 26.1812C39.6562 27.181 39.6562 28.1807 39.6562 29.1792C39.6562 29.5541 39.5311 29.6856 39.1394 29.6909C38.6597 29.6975 38.1814 29.6962 37.7018 29.6909C37.2935 29.687 37.1575 29.562 37.1561 29.166C37.152 27.4401 37.1534 25.7143 37.152 23.9884C37.152 23.7095 37.152 23.4306 37.1547 23.153C37.1575 22.8281 37.2977 22.6703 37.6372 22.6624C38.1622 22.6492 38.6872 22.6518 39.2109 22.6611C39.5023 22.6663 39.6521 22.8334 39.6521 23.1162C39.6521 24.137 39.6521 25.1591 39.6521 26.1799H39.6548L39.6562 26.1812Z" fill="#FF571D"></path><path d="M28.9726 27.4112C28.9726 28.0071 28.9726 28.6017 28.9726 29.1976C28.9726 29.5436 28.8461 29.6843 28.4888 29.6909C27.9761 29.7001 27.4621 29.7001 26.948 29.6909C26.5948 29.6856 26.4656 29.5567 26.4656 29.2147C26.4629 27.9966 26.4642 26.7798 26.4697 25.5617C26.4697 25.2381 26.625 25.0934 26.9673 25.0894C27.4745 25.0828 27.983 25.0828 28.4902 25.0894C28.82 25.0934 28.9671 25.242 28.9685 25.5603C28.9712 26.1773 28.9685 26.7942 28.9685 27.4125C28.9698 27.4125 28.9712 27.4125 28.9726 27.4125V27.4112Z" fill="#FF571D"></path></g><defs><clipPath id="clip0_25_594"><rect width="30" height="32" fill="white" transform="translate(15 14)"></rect></clipPath></defs></svg>