<svg xmlns="http://www.w3.org/2000/svg" width="60" height="60" viewBox="0 0 60 60" fill="none"><rect width="60" height="60" rx="30" fill="#F77A4F" fill-opacity="0.25"></rect><g clip-path="url(#clip0_25_616)"><path d="M31.4804 34.7461C32.2869 34.4045 32.9917 34.0084 33.6383 33.5178C35.5093 32.0969 36.6609 30.2253 37.0932 27.9214C37.3874 26.3478 37.3039 24.7852 36.7444 23.2771C35.6219 20.2536 33.4857 18.2839 30.3724 17.4772C28.3016 16.9393 26.2491 17.1283 24.291 18.0695C22.0531 19.1452 20.5527 20.8786 19.6518 23.1681C19.1795 24.3637 19.0669 25.6065 19.1141 26.8748C19.1141 26.9329 19.1287 26.9911 19.1359 27.0492C19.1722 27.3581 19.1722 27.3617 19.4665 27.2854C20.0223 27.1437 20.5745 26.9947 21.1267 26.8493C21.1667 26.8384 21.203 26.8203 21.2648 26.8457C21.1013 27.1291 20.9415 27.4162 20.7743 27.6961C19.9606 29.0406 19.1432 30.3816 18.3294 31.7262C18.2713 31.8207 18.2313 31.8825 18.0969 31.8098C16.7528 31.0648 15.405 30.3307 14.0608 29.5894C13.7302 29.4077 13.4105 29.2151 13.0618 29.0152C13.4832 28.8989 13.8719 28.7935 14.2642 28.6881C14.4931 28.6264 14.7184 28.5646 14.9509 28.5137C15.0707 28.4846 15.0925 28.4301 15.0707 28.3138C14.8782 27.2164 14.8455 26.1153 14.9618 25.0105C15.1834 22.9355 15.8227 20.9985 16.9526 19.236C18.9761 16.0744 21.8279 14.0975 25.4862 13.2871C27.3426 12.8765 29.199 12.9237 31.059 13.3271C33.8127 13.9231 36.1014 15.3076 37.9869 17.3645C39.6943 19.2251 40.7878 21.4092 41.2238 23.913C41.4308 25.1123 41.5253 26.3188 41.3909 27.5325C41.1184 30.0146 40.2974 32.2895 38.7643 34.2809C37.9469 35.3457 36.9987 36.2869 35.9016 37.0646C35.1932 37.5697 34.4521 38.0203 33.6529 38.3656C33.5584 38.4056 33.5003 38.4383 33.4785 38.2856C33.2932 36.8793 32.672 35.7055 31.5821 34.7897C31.564 34.7752 31.5385 34.7679 31.484 34.7388L31.4804 34.7461Z" fill="#FF571D"></path><path d="M23.3064 45.8226C23.568 45.3611 23.8041 44.9323 24.0475 44.5107C24.4725 43.7803 24.8976 43.0535 25.3299 42.3267C25.3771 42.2467 25.3517 42.2177 25.2972 42.1668C24.2618 41.2437 23.7859 40.0736 23.8332 38.6999C23.9058 36.6976 25.5479 34.8951 27.5314 34.6262C28.6249 34.4808 29.6639 34.6625 30.5721 35.3057C31.6547 36.0689 32.345 37.1118 32.4794 38.4455C32.6102 39.732 32.2578 40.8912 31.3677 41.8579C31.3387 41.887 31.3096 41.9197 31.2805 41.9487C30.9754 42.2467 30.9681 42.2504 31.1861 42.6247C31.7819 43.6386 32.3849 44.6452 32.9589 45.6736C32.9807 45.7136 33.0352 45.7536 33.0025 45.7972C32.9698 45.8481 32.9153 45.8008 32.8717 45.7972C32.4431 45.71 32.0144 45.6264 31.5893 45.5319C31.4803 45.5065 31.444 45.5319 31.4113 45.63C31.2769 46.0443 31.1389 46.4586 31.0008 46.8729C30.9863 46.9165 30.9899 46.9782 30.939 46.9928C30.8773 47.0073 30.8737 46.9346 30.8519 46.8983C30.1543 45.7318 29.4823 44.5543 28.8247 43.366C28.7702 43.2679 28.7121 43.2316 28.6031 43.2425C28.3125 43.2679 28.0255 43.2606 27.7349 43.2425C27.6368 43.2352 27.5859 43.2752 27.5387 43.3551C26.8593 44.5398 26.18 45.7209 25.5006 46.9019C25.4789 46.9419 25.4752 47.0037 25.4171 47.0001C25.3553 47.0001 25.359 46.9383 25.3444 46.8947C25.2028 46.4695 25.0574 46.0443 24.9267 45.6191C24.8903 45.5065 24.8286 45.5246 24.7523 45.5392C24.3127 45.63 23.8731 45.7172 23.4335 45.8081C23.4045 45.8154 23.3791 45.8154 23.3064 45.8263V45.8226ZM28.0764 41.7961C29.4387 41.887 30.9972 40.7859 31.0589 39.0452C31.1207 37.2681 29.7656 36.1488 28.3379 36.0434C26.8339 35.9344 25.4098 37.1518 25.2899 38.6709C25.1446 40.4733 26.5869 41.7779 28.08 41.7961H28.0764Z" fill="#FF571D"></path><path d="M42.953 41.6363C42.953 41.4437 42.953 41.2147 42.953 40.9858C42.953 40.5715 42.9458 40.1572 42.9567 39.743C42.9603 39.5831 42.9203 39.5394 42.7569 39.5394C39.7597 39.5431 36.759 39.5431 33.7619 39.5431C33.7001 39.5431 33.6347 39.5431 33.5693 39.5431C33.5839 39.4668 33.642 39.4704 33.682 39.4559C35.7418 38.5873 37.5037 37.3009 38.975 35.6183C39.1531 35.4148 39.3202 35.3494 39.5745 35.3494C40.6462 35.3603 41.7142 35.353 42.7859 35.3603C42.9312 35.3603 42.9603 35.3167 42.9603 35.1822C42.953 34.5863 42.9603 33.9866 42.9603 33.3907C42.9603 33.3253 42.9603 33.2635 42.9603 33.238C43.171 33.4306 43.4071 33.6232 43.6178 33.8413C44.7222 34.9933 45.8375 36.1344 46.9238 37.3045C47.0327 37.4244 47.0327 37.4826 46.9165 37.5989C45.9901 38.5219 45.1255 39.5031 44.2136 40.4407C43.8104 40.855 43.3744 41.2402 42.9567 41.6363H42.953Z" fill="#FF571D"></path><path d="M18.5982 35.3565C20.4074 35.3565 22.2166 35.3565 24.0258 35.3565C24.0621 35.3565 24.1166 35.3311 24.1347 35.3856C24.1493 35.4328 24.102 35.4583 24.0802 35.4873C23.6443 36.0579 23.2592 36.6575 23.0558 37.3552C22.856 38.0312 22.7869 38.7216 22.856 39.423C22.8669 39.5247 22.8342 39.5538 22.7433 39.5466C22.7216 39.5466 22.6961 39.5466 22.6707 39.5466C19.5137 39.5466 16.3568 39.5466 13.1998 39.5502C13.0327 39.5502 13 39.5029 13 39.3467C13.0073 38.0929 13.0073 36.8392 13 35.5855C13 35.4074 13.0436 35.3565 13.2252 35.3565C15.0162 35.3638 16.8072 35.3601 18.5982 35.3601V35.3565Z" fill="#FF571D"></path><path d="M23.5717 34.3608C23.034 34.3608 22.4963 34.3536 21.9587 34.3608C21.7915 34.3608 21.7915 34.31 21.8315 34.1755C22.1512 33.1216 22.7252 32.224 23.4917 31.45C24.4799 30.4506 25.6678 29.8147 27.0556 29.5821C28.1418 29.4004 29.2099 29.4985 30.2561 29.8365C31.5858 30.2617 32.6466 31.0466 33.4748 32.1623C33.5402 32.2531 33.5366 32.3004 33.4494 32.3767C32.5848 33.1507 31.5894 33.6813 30.485 34.0229C30.3978 34.052 30.3252 34.0374 30.2489 34.0011C29.4605 33.6377 28.6286 33.5614 27.7749 33.605C26.9575 33.6486 26.1982 33.8739 25.4898 34.2882C25.3808 34.3536 25.2537 34.3608 25.1302 34.3608C24.6107 34.3608 24.0912 34.3608 23.568 34.3608H23.5717Z" fill="#FF571D"></path><path d="M28.1636 27.7216C26.4853 27.7216 25.1084 26.337 25.1084 24.6581C25.1084 22.9937 26.518 21.5691 28.1891 21.5946C30.0491 21.6236 31.2516 23.0627 31.2334 24.7525C31.2152 26.3588 29.8893 27.7179 28.1673 27.7216H28.1636Z" fill="#FF571D"></path><path d="M28.1745 40.8186C27.1392 40.8149 26.2782 39.95 26.2854 38.918C26.2891 37.8787 27.1501 37.0174 28.1854 37.0319C29.2535 37.0465 30.0418 37.8605 30.0636 38.9216C30.0818 39.9682 29.2135 40.8259 28.1782 40.8186H28.1745Z" fill="#FF571D"></path></g><defs><clipPath id="clip0_25_616"><rect width="34" height="34" fill="white" transform="translate(13 13)"></rect></clipPath></defs></svg>