<svg xmlns="http://www.w3.org/2000/svg" width="44" height="44" viewBox="0 0 44 44" fill="none"><g clip-path="url(#clip0_57_989)"><path d="M22.0863 43.9982C19.7067 43.9982 17.3252 43.9964 14.9455 43.9982C14.0431 43.9982 13.3098 43.6648 12.7527 42.9591C12.4092 42.5234 12.2312 42.0241 12.2223 41.4754C12.2045 40.364 12.1689 39.2544 12.4377 38.1553C12.7527 36.8675 13.333 35.7155 14.1214 34.6552C15.6877 32.5488 17.7915 31.298 20.3759 30.8446C21.6449 30.6223 22.9158 30.6611 24.1812 30.9575C27.1678 31.6561 29.3624 33.3674 30.7738 36.0471C31.4466 37.3244 31.8329 38.6969 31.7866 40.1611C31.7688 40.7451 31.8329 41.3343 31.7225 41.9147C31.5072 43.0508 30.5318 43.8994 29.3624 43.9788C28.8605 44.0123 28.3568 43.9894 27.8549 43.9894C25.9326 43.9929 24.0104 43.9894 22.0881 43.9894C22.0881 43.9911 22.0881 43.9929 22.0881 43.9964L22.0863 43.9982Z" fill="#FF571D"></path><path d="M22.0186 29.8196C19.283 29.8284 17.0101 27.595 17.0403 24.8641C17.0688 22.1526 19.2367 19.9756 22.104 19.9685C24.7276 19.9615 26.9702 22.2302 26.972 24.8976C26.972 27.5703 24.7187 29.8108 22.0204 29.8196H22.0186Z" fill="#FF571D"></path><path d="M37.8665 39.2245C36.3803 39.2245 34.8959 39.2209 33.4097 39.2297C33.2228 39.2297 33.189 39.1733 33.173 39.0004C33.1089 38.3071 32.9416 37.6332 32.7084 36.9751C32.3987 36.0948 32.0196 35.248 31.507 34.4647C31.4127 34.3218 31.4999 34.2566 31.5818 34.1684C32.6301 33.0552 33.9152 32.3636 35.4174 32.0778C37.6262 31.6562 39.6588 32.0919 41.4262 33.4803C42.6169 34.4171 43.4891 35.6114 43.9287 37.0775C44.2206 38.0478 43.6119 39.0022 42.6098 39.1874C42.471 39.2139 42.3322 39.2245 42.1915 39.2245C40.7499 39.2245 39.3099 39.2245 37.8683 39.2245H37.8665Z" fill="#FF571D"></path><path d="M6.1228 39.2244C4.65975 39.2244 3.19492 39.2261 1.73187 39.2244C0.865079 39.2226 0.185171 38.6616 0.0214237 37.8236C-0.0355319 37.5396 0.030323 37.2662 0.124656 37.0051C1.08222 34.3235 2.95286 32.6352 5.7686 32.0707C8.05751 31.6103 10.115 32.1871 11.9056 33.6761C12.0978 33.8366 12.2633 34.0254 12.4538 34.1895C12.5677 34.2883 12.5623 34.3694 12.4876 34.4894C12.1014 35.1139 11.7489 35.756 11.4766 36.4388C11.1384 37.2856 10.9053 38.1606 10.8252 39.0709C10.811 39.242 10.7148 39.2279 10.6027 39.2279C9.1094 39.2279 7.6161 39.2279 6.1228 39.2279V39.2244Z" fill="#FF571D"></path><path d="M25.7084 17.7351C25.5732 17.7333 25.4735 17.6522 25.3703 17.5851C24.4323 16.9747 23.4872 16.3785 22.5581 15.7539C21.9298 15.3323 22.106 15.3253 21.451 15.7504C20.5361 16.3432 19.6284 16.9465 18.7171 17.5428C18.6442 17.5904 18.5658 17.6328 18.4893 17.6769C18.3718 17.7457 18.2544 17.7598 18.1387 17.6716C18.0248 17.5834 18.0087 17.4758 18.0461 17.3399C18.2935 16.4296 18.5356 15.5193 18.7794 14.6072C18.8631 14.2968 18.9289 13.9792 19.0393 13.6793C19.1407 13.4058 19.0393 13.2488 18.831 13.0865C18.1725 12.5785 17.5228 12.0598 16.8732 11.5394C16.5457 11.2765 16.2271 11.0031 15.9085 10.7331C15.8053 10.6467 15.7056 10.5497 15.7572 10.3962C15.8071 10.2498 15.937 10.2092 16.0758 10.2004C16.7682 10.158 17.4623 10.1174 18.1547 10.0822C18.7296 10.0522 19.3063 10.0204 19.8812 10.0045C20.1303 9.99748 20.2674 9.89516 20.3546 9.66406C20.7764 8.54911 21.2089 7.43768 21.6397 6.32626C21.7091 6.14455 21.7536 5.90992 21.9992 5.90462C22.2519 5.89933 22.284 6.14632 22.3587 6.32097C22.8233 7.4271 23.2184 8.56145 23.6473 9.6817C23.7292 9.8934 23.8449 9.99219 24.0816 10.001C25.203 10.0469 26.3243 10.1069 27.4474 10.1633C27.6093 10.1721 27.7713 10.1898 27.9333 10.2021C28.0863 10.2145 28.2056 10.278 28.2536 10.4297C28.2999 10.5744 28.202 10.6643 28.1041 10.7455C27.2089 11.4882 26.31 12.2274 25.3809 12.9278C24.7455 13.4058 24.8648 13.33 25.025 13.9351C25.3186 15.0377 25.6355 16.1332 25.9416 17.2323C25.979 17.3664 26.0288 17.5022 25.9202 17.6293C25.8651 17.6928 25.7974 17.7351 25.7102 17.7369L25.7084 17.7351Z" fill="#FF571D"></path><path d="M33.7053 17.3929C33.7729 16.9801 33.9224 16.5355 34.0435 16.0839C34.2731 15.23 34.5116 14.378 34.7554 13.5259C34.7928 13.3935 34.7696 13.3142 34.6682 13.2224C34.047 12.6685 33.3582 12.1957 32.7139 11.6717C32.3366 11.3648 31.9628 11.056 31.5872 10.7473C31.4751 10.6556 31.3648 10.5532 31.4182 10.3962C31.4662 10.2551 31.605 10.2198 31.7421 10.2057C32.4629 10.1263 33.1873 10.1263 33.91 10.0822C34.4706 10.0487 35.0313 10.0169 35.5919 10.0028C35.834 9.99577 35.9426 9.87757 36.0227 9.67116C36.4481 8.55798 36.8806 7.44655 37.3131 6.33513C37.3255 6.30161 37.3415 6.26809 37.3558 6.23281C37.4216 6.07756 37.4768 5.89762 37.6904 5.90644C37.8897 5.91526 37.9378 6.08462 37.9965 6.2381C38.4504 7.40421 38.9096 8.5668 39.3581 9.73644C39.4275 9.91462 39.5379 9.98871 39.7177 9.99753C40.5951 10.0399 41.4744 10.0805 42.3519 10.1263C42.7648 10.1475 43.1777 10.1792 43.5906 10.2039C43.7419 10.2128 43.8683 10.2533 43.9199 10.4121C43.9733 10.5762 43.8754 10.675 43.7633 10.7667C42.7968 11.5623 41.8268 12.3509 40.823 13.1007C40.6201 13.2524 40.5506 13.4006 40.6218 13.6582C40.9511 14.856 41.2697 16.0574 41.6239 17.25C41.672 17.4123 41.7075 17.5658 41.5456 17.6875C41.3907 17.804 41.2555 17.7334 41.1202 17.6452C40.0861 16.966 39.0484 16.2938 38.0197 15.6058C37.7776 15.4435 37.5907 15.4347 37.3451 15.6023C36.5922 16.1174 35.8233 16.6114 35.0598 17.1124C34.7643 17.3047 34.4706 17.5023 34.1663 17.6805C33.9153 17.8269 33.6982 17.7087 33.7071 17.4L33.7053 17.3929Z" fill="#FF571D"></path><path d="M2.30675 17.3647C2.39041 17.0542 2.49186 16.6661 2.59865 16.278C2.84961 15.3694 3.10057 14.4591 3.35687 13.5524C3.39959 13.3989 3.36755 13.293 3.2394 13.1907C2.29429 12.4392 1.35274 11.6823 0.411197 10.9273C0.325764 10.8585 0.24033 10.7862 0.156677 10.7156C0.0623441 10.6362 -0.00707058 10.5409 0.0285267 10.4104C0.0676837 10.2675 0.190494 10.2269 0.318644 10.211C0.494851 10.1899 0.671057 10.1758 0.849044 10.1669C1.93476 10.1122 3.0187 10.0505 4.10441 10.0135C4.40165 10.0029 4.55116 9.88819 4.65261 9.61475C5.06554 8.50333 5.47669 7.3919 5.93411 6.29812C6.00531 6.127 6.0409 5.90119 6.29009 5.90824C6.52503 5.9153 6.54817 6.13229 6.61936 6.29812C7.09814 7.42366 7.49861 8.57919 7.94892 9.71531C8.02545 9.9076 8.13936 9.99052 8.34227 9.99934C9.4796 10.0523 10.6169 10.1105 11.7525 10.1687C11.9145 10.1775 12.0764 10.1969 12.2384 10.2057C12.379 10.2146 12.4715 10.2834 12.5232 10.4122C12.5766 10.548 12.5054 10.645 12.4164 10.7209C12.1601 10.9414 11.8984 11.1584 11.6332 11.3683C10.8928 11.9523 10.1542 12.538 9.40663 13.1113C9.21974 13.256 9.15033 13.3936 9.21974 13.6317C9.56325 14.8349 9.88897 16.0416 10.2254 17.2465C10.2699 17.4088 10.3179 17.5605 10.1542 17.6823C9.9922 17.8022 9.84981 17.7264 9.7092 17.6329C8.68044 16.9572 7.64812 16.2886 6.62648 15.6041C6.37908 15.4383 6.18863 15.4312 5.93233 15.6041C4.93739 16.2745 3.92643 16.9237 2.91902 17.5782C2.84427 17.6258 2.77308 17.6805 2.6912 17.7123C2.48652 17.7934 2.30141 17.6629 2.30497 17.363L2.30675 17.3647Z" fill="#FF571D"></path><path d="M7.12471 23.5621C9.13595 23.5515 10.7966 25.1781 10.8286 27.1398C10.8642 29.458 8.97754 30.9187 7.16742 30.9187C5.10278 30.9187 3.39411 29.2798 3.39233 27.251C3.39233 25.1728 5.09032 23.5216 7.12471 23.5604V23.5621Z" fill="#FF571D"></path><path d="M36.8504 23.5621C39.15 23.5674 40.581 25.3281 40.6041 27.2545C40.629 29.278 38.9417 30.9152 36.8664 30.9169C34.8107 30.9169 33.1768 29.2533 33.1768 27.1575C33.1768 25.1852 34.8303 23.5657 36.8504 23.5621Z" fill="#FF571D"></path><path d="M26.5699 7.31419C26.2282 7.31772 26.0217 7.16953 25.8936 6.91373C25.7547 6.63676 25.8206 6.37919 26.0288 6.16749C26.2762 5.91698 26.5379 5.67882 26.7995 5.44242C27.3833 4.91493 27.9671 4.38745 28.558 3.86702C28.8286 3.62886 29.1489 3.61827 29.4337 3.81057C29.6918 3.98522 29.8057 4.29571 29.7149 4.57974C29.6633 4.73852 29.5565 4.86024 29.4355 4.96786C28.6274 5.68587 27.8176 6.40389 27.0095 7.12014C26.8725 7.24186 26.7177 7.31596 26.5699 7.31243V7.31419Z" fill="#FF571D"></path><path d="M14.9739 3.68176C15.143 3.68353 15.2978 3.73469 15.4224 3.84583C16.2678 4.61148 17.1471 5.34008 17.9623 6.13924C18.1563 6.32801 18.2221 6.56617 18.1367 6.8255C18.0513 7.08307 17.8573 7.23302 17.5938 7.293C17.3536 7.34769 17.1613 7.24361 16.9869 7.09542C16.5241 6.69672 16.0614 6.29802 15.6022 5.89579C15.232 5.57118 14.8635 5.24305 14.4987 4.90962C14.2584 4.69086 14.1925 4.3839 14.3082 4.10869C14.4186 3.84583 14.6802 3.67823 14.9739 3.68353V3.68176Z" fill="#FF571D"></path><path d="M22.7128 1.98641C22.7128 2.37453 22.7163 2.76264 22.7128 3.15076C22.711 3.37481 22.6612 3.5918 22.4903 3.75234C22.2749 3.95345 22.024 4.02931 21.7374 3.91641C21.4508 3.8035 21.3049 3.57239 21.3013 3.28484C21.2889 2.44333 21.2889 1.60182 21.3013 0.760318C21.3049 0.46041 21.433 0.206371 21.7285 0.0687658C21.9741 -0.0459048 22.2055 -0.00356486 22.4173 0.148153C22.6469 0.313985 22.7128 0.560967 22.7163 0.825592C22.7217 1.21371 22.7163 1.60182 22.7163 1.98994L22.7128 1.98641Z" fill="#FF571D"></path></g><defs><clipPath id="clip0_57_989"><rect width="44" height="44" fill="white"></rect></clipPath></defs></svg>