<svg xmlns="http://www.w3.org/2000/svg" width="39" height="53" viewBox="0 0 39 53" fill="none"><g clip-path="url(#clip0_57_992)"><path d="M17.5147 10.7686C17.5147 13.6848 17.5147 16.5986 17.5147 19.5148C17.5147 19.9744 17.7056 20.2614 18.0941 20.406C18.4512 20.539 18.8801 20.406 19.1226 20.0887C19.2776 19.8881 19.3023 19.6501 19.3023 19.4028C19.3023 17.4175 19.3023 15.4322 19.3023 13.4468C19.3023 11.2002 19.2978 8.95355 19.3046 6.70692C19.3068 5.93704 19.5449 5.27915 20.2388 4.88255C21.2966 4.27831 22.5834 4.89655 22.8192 6.12601C22.8619 6.34298 22.8843 6.56461 22.8843 6.78857C22.8821 10.3906 22.8776 13.9951 22.8888 17.5971C22.8888 17.8958 22.8012 18.0544 22.543 18.171C22.2016 18.325 21.8737 18.5093 21.5458 18.6936C21.2314 18.8686 21.0854 19.1392 21.0877 19.5218C21.0967 21.5655 21.0742 23.6092 21.0967 25.6528C21.1191 27.7221 21.7277 29.6212 22.7046 31.4105C23.7691 33.3609 25.285 34.8213 27.1378 35.9295C27.4005 36.0858 27.4814 36.2211 27.3444 36.5314C27.1176 37.0376 26.9559 37.5765 26.738 38.0898C26.5427 38.5494 26.4438 39.0136 26.4551 39.5199C26.4775 40.5161 26.4551 41.5146 26.4663 42.5131C26.4663 42.716 26.4169 42.772 26.2193 42.772C21.0091 42.7674 15.7989 42.765 10.5887 42.772C10.3821 42.772 10.3462 42.6997 10.3484 42.5084C10.3574 41.6569 10.3305 40.803 10.3619 39.9515C10.3821 39.4032 10.2496 38.932 9.98013 38.4701C9.2772 37.2616 8.58775 36.0461 7.90504 34.8237C5.66152 30.797 3.42473 26.768 1.18795 22.739C0.866804 22.1604 0.554642 21.5795 0.251463 20.9916C-0.38858 19.7481 0.244726 18.4183 1.56748 18.2107C2.24121 18.1057 2.94863 18.486 3.33939 19.1789C3.81999 20.0304 4.2916 20.8866 4.76321 21.7405C5.4594 22.9979 6.15334 24.2577 6.84504 25.5175C7.03817 25.8721 7.31665 26.0354 7.7119 26.0354C8.74496 26.0378 9.78026 26.0098 10.8133 26.0681C13.8181 26.2431 16.0954 28.7766 16.5086 31.5132C16.6388 32.3787 16.6231 33.2512 16.6141 34.1214C16.6119 34.3267 16.6478 34.4107 16.8701 34.4014C17.3171 34.3804 17.764 34.3944 18.2131 34.3967C18.3209 34.3967 18.4152 34.4061 18.4107 34.2404C18.3815 33.0996 18.4983 31.9541 18.258 30.825C17.719 28.2821 16.3289 26.411 14.1438 25.1466C12.9558 24.4607 11.6802 24.1807 10.3372 24.1714C9.8611 24.1667 9.385 24.1551 8.91114 24.1761C8.63941 24.1901 8.55631 24.1271 8.55631 23.8215C8.56754 18.1454 8.5653 12.4716 8.56305 6.79557C8.56305 6.60193 8.58101 6.41063 8.61246 6.21933C8.76517 5.28848 9.48606 4.64225 10.3799 4.64459C11.231 4.64459 11.9452 5.30015 12.0956 6.21C12.1316 6.41996 12.1473 6.63226 12.1473 6.84456C12.1473 11.0672 12.1473 15.2898 12.1473 19.5125C12.1473 19.9721 12.3359 20.259 12.7245 20.4037C13.0815 20.5367 13.5105 20.4037 13.7553 20.0887C13.872 19.9394 13.917 19.7621 13.9304 19.5778C13.9394 19.4612 13.9349 19.3445 13.9349 19.2302C13.9349 13.5168 13.9349 7.80107 13.9349 2.08767C13.9349 1.32013 14.1573 0.65524 14.8445 0.249306C15.9292 -0.392256 17.2452 0.256305 17.4608 1.53243C17.499 1.75173 17.5169 1.97336 17.5147 2.19732C17.5147 5.05519 17.5147 7.91072 17.5147 10.7686Z" fill="#FF571D"></path><path d="M22.8821 23.2876C22.8821 22.2377 22.8978 21.3955 22.8731 20.5533C22.8642 20.2384 22.9585 20.0727 23.2325 19.9304C25.6489 18.6823 28.0609 17.4248 30.4638 16.1487C30.8052 15.9668 31.0657 15.9621 31.4093 16.1441C33.828 17.4295 36.2579 18.6916 38.6878 19.9538C38.9057 20.0681 38.9977 20.2057 38.9955 20.4693C38.9843 22.0371 39.018 23.6072 38.9843 25.1749C38.9012 28.9823 37.3561 31.9685 34.2502 34.0331C33.2396 34.705 32.1931 35.3209 31.1645 35.9625C31.0432 36.0395 30.9287 36.1025 30.7805 36.0068C29.6396 35.2579 28.4382 34.6094 27.322 33.8185C24.8314 32.0501 23.3739 29.6052 22.9562 26.5024C22.8035 25.3662 22.9136 24.2207 22.8821 23.2852V23.2876ZM30.0326 28.8306C30.3268 28.861 30.5492 28.6977 30.7535 28.4854C32.1729 27.0063 33.5944 25.5272 35.0182 24.0504C35.1328 23.9338 35.1328 23.8661 35.0182 23.7518C34.6881 23.4229 34.3625 23.0916 34.0526 22.744C33.9201 22.597 33.846 22.5853 33.7045 22.7346C32.5479 23.9548 31.3801 25.1632 30.2235 26.3834C30.0776 26.5374 30.0012 26.549 29.853 26.3857C29.3028 25.7815 28.7323 25.1982 28.1776 24.5987C28.0541 24.4657 27.971 24.447 27.8408 24.587C27.5196 24.9369 27.1873 25.2776 26.8571 25.6158C26.7673 25.7068 26.7448 25.7721 26.8437 25.8771C27.7015 26.7776 28.5527 27.6852 29.4128 28.5834C29.5745 28.7537 29.7834 28.84 30.0326 28.8306Z" fill="#FF571D"></path><path d="M18.4018 52.9953C15.2241 52.9953 12.0463 52.993 8.86856 53C8.63051 53 8.5564 52.9533 8.55864 52.6874C8.56987 50.1024 8.56987 47.5152 8.55864 44.9303C8.55864 44.6667 8.63051 44.6177 8.86856 44.6177C15.2331 44.6247 21.5998 44.6247 27.9643 44.6177C28.1911 44.6177 28.2608 44.6667 28.2585 44.914C28.2495 47.5082 28.2495 50.1048 28.2585 52.699C28.2585 52.9463 28.1911 52.9976 27.9643 52.9976C24.7776 52.9906 21.5886 52.993 18.4018 52.993V52.9953Z" fill="#FF571D"></path><path d="M24.6719 13.5335C24.6719 12.479 24.6652 11.4222 24.6719 10.3677C24.6809 9.37149 25.2064 8.64127 26.0486 8.42431C27.0367 8.17002 28.0069 8.82558 28.1933 9.8754C28.2315 10.0947 28.2539 10.314 28.2539 10.538C28.2494 11.9517 28.2427 13.3655 28.2607 14.7793C28.2652 15.0965 28.1664 15.2622 27.8924 15.3975C26.8952 15.8944 25.9071 16.4147 24.9212 16.9396C24.6832 17.0656 24.6674 16.9746 24.6697 16.7576C24.6764 15.6821 24.6719 14.609 24.6719 13.5335Z" fill="#FF571D"></path></g><defs><clipPath id="clip0_57_992"><rect width="39" height="53" fill="white"></rect></clipPath></defs></svg>