<svg xmlns="http://www.w3.org/2000/svg" width="40" height="40" viewBox="0 0 40 40" fill="none"><g clip-path="url(#clip0_57_990)"><path d="M33.5012 25.9238C33.5012 21.2913 33.5012 16.6587 33.498 12.0277C33.498 11.8915 33.5393 11.8649 33.6646 11.8649C35.7145 11.868 37.766 11.868 39.8159 11.8649C39.9587 11.8649 39.9952 11.9119 39.9936 12.0434C39.9889 12.3879 40 12.7325 40 13.077C40 21.6656 40 30.2526 40 38.8411C40 39.1606 39.9889 39.4785 39.992 39.798C39.992 39.928 39.9587 39.9812 39.8143 39.9812C37.7708 39.9765 35.7272 39.9765 33.6837 39.9812C33.5393 39.9812 33.5092 39.9296 33.5107 39.7996C33.5155 39.4816 33.5028 39.1622 33.5028 38.8427C33.5028 34.5359 33.5028 30.2291 33.5028 25.9223L33.5012 25.9238Z" fill="#FF571D"></path><path d="M14.4112 4.85965C16.1771 4.85182 17.6542 6.25505 17.6986 7.99187C17.7018 8.12969 17.7446 8.19546 17.8779 8.24871C19.5978 8.93467 21.3177 9.62532 23.0344 10.3175C23.1423 10.3614 23.2137 10.3489 23.2994 10.2721C24.402 9.27764 25.6491 9.1367 27.0009 9.68797C27.1263 9.73808 27.1961 9.70049 27.2802 9.62845C28.7589 8.3834 30.2392 7.13834 31.7211 5.89485C32.2637 5.43911 32.8063 4.98494 33.3553 4.5386C33.4648 4.44933 33.4616 4.36633 33.4251 4.25043C33.1046 3.21367 33.2442 2.23955 33.8804 1.35626C35.3306 -0.65462 38.3483 -0.374287 39.4796 1.82923C40.3015 3.42823 39.5637 6.06712 36.9299 6.44612C36.3286 6.53226 35.7638 6.42106 35.218 6.18301C35.1259 6.14229 35.0656 6.1282 34.9768 6.2065C33.268 7.69744 31.5164 9.13826 29.7822 10.601C29.4665 10.8672 29.1539 11.1382 28.8319 11.3966C28.7176 11.4874 28.6938 11.5689 28.7335 11.7114C29.1016 13.0097 28.6526 14.402 27.5626 15.1709C25.7189 16.4708 23.4168 15.8115 22.533 13.788C22.3775 13.431 22.2934 13.0582 22.3014 12.6698C22.3045 12.5336 22.2252 12.4929 22.1221 12.4521C21.14 12.0622 20.1531 11.6785 19.1758 11.2744C18.4412 10.9706 17.7113 10.659 16.9656 10.3802C16.872 10.3457 16.8069 10.3332 16.7213 10.4131C15.6376 11.4185 14.2033 11.6127 12.888 10.9377C12.7706 10.8782 12.6484 10.8218 12.5469 10.7435C12.4343 10.6558 12.3454 10.6684 12.2296 10.7357C10.827 11.561 9.42128 12.3817 8.01554 13.2007C7.63635 13.4216 7.25397 13.6377 6.86684 13.8476C6.74467 13.9133 6.70183 13.9822 6.71929 14.1248C6.9668 15.9963 5.4738 17.6767 3.56352 17.7268C1.81508 17.7722 0.493432 16.4911 0.230054 14.9752C-0.0301494 13.4811 0.815513 12.0716 2.30217 11.4765C3.38899 11.0411 4.4076 11.2306 5.35798 11.8617C5.48332 11.9447 5.56423 11.9416 5.68958 11.8649C7.23017 10.9127 8.81044 10.0247 10.3717 9.10851C10.597 8.97539 10.8207 8.83757 11.0539 8.71698C11.1618 8.6606 11.1856 8.59952 11.1697 8.48676C10.9143 6.59647 12.458 4.86748 14.4096 4.85808L14.4112 4.85965Z" fill="#FF571D"></path><path d="M11.1744 27.8956C11.1744 24.0179 11.1744 20.1402 11.1744 16.2625C11.1744 16.1967 11.1744 16.1325 11.1744 16.0667C11.1681 15.8005 11.1681 15.8021 11.4505 15.8021C13.4544 15.8021 15.4582 15.8052 17.4637 15.8021C17.6113 15.8021 17.6732 15.8271 17.67 15.9916C17.6113 18.4112 17.6478 20.8308 17.6446 23.252C17.6382 28.652 17.6414 34.0519 17.6398 39.4519C17.6398 39.6195 17.7223 39.8309 17.6081 39.9421C17.497 40.0501 17.2828 39.9765 17.1131 39.9765C15.2282 39.9797 13.3417 39.9797 11.4568 39.9765C11.1554 39.9765 11.1839 40.0204 11.1839 39.7025C11.1792 36.2147 11.1776 32.7286 11.176 29.2408C11.176 28.7914 11.176 28.3435 11.176 27.894L11.1744 27.8956Z" fill="#FF571D"></path><path d="M22.3632 30.4248C22.3632 27.3286 22.3632 24.2324 22.36 21.1362C22.36 20.9687 22.4012 20.9201 22.5789 20.9201C24.5828 20.9264 26.5867 20.9264 28.5906 20.9201C28.781 20.9201 28.8333 20.9734 28.8333 21.1597C28.827 27.3725 28.8238 33.5837 28.8254 39.7964C28.8254 39.9452 28.7826 39.9812 28.6366 39.9812C26.6058 39.9765 24.5765 39.9765 22.5456 39.9812C22.387 39.9812 22.36 39.9248 22.36 39.7902C22.3616 39.2702 22.3552 38.7503 22.3552 38.2287C22.3552 35.6274 22.3552 33.0246 22.3552 30.4233H22.3647L22.3632 30.4248Z" fill="#FF571D"></path><path d="M6.50034 32.4623C6.50034 34.6095 6.50034 36.7566 6.50034 38.9037C6.50034 39.1903 6.47813 39.4769 6.48923 39.762C6.49558 39.9342 6.44163 39.9828 6.26711 39.9812C4.8106 39.9749 3.3525 39.9781 1.896 39.9781C1.34862 39.9781 0.801238 39.9718 0.253857 39.9828C0.0761572 39.9859 0.0142795 39.9421 0.0158661 39.7573C0.0190393 38.7753 0.00475983 37.7918 0.00475983 36.8098C0.00158661 32.9384 0.00475983 29.0654 0 25.194C0 25.0014 0.0428385 24.9403 0.250684 24.9419C2.24188 24.9513 4.23307 24.9481 6.22427 24.9481C6.48923 24.9481 6.49399 24.9481 6.49399 25.2191C6.49399 27.6324 6.49399 30.0474 6.49399 32.4608H6.50034V32.4623Z" fill="#FF571D"></path></g><defs><clipPath id="clip0_57_990"><rect width="40" height="40" fill="white"></rect></clipPath></defs></svg>