<svg xmlns="http://www.w3.org/2000/svg" width="45" height="52" viewBox="0 0 45 52" fill="none"><g clip-path="url(#clip0_25_684)"><path d="M22.4882 22.272C21.2969 22.272 20.1057 22.2767 18.912 22.279C18.5518 22.279 18.5401 22.2813 18.6319 22.6239C19.0533 24.1942 17.9115 25.5573 16.6778 25.8881C15.2488 26.2749 13.7397 25.5083 13.2617 24.122C13.0875 23.6164 13.0663 23.0992 13.2099 22.5819C13.2688 22.3652 13.257 22.2674 12.9745 22.272C11.7244 22.2907 10.4742 22.286 9.22412 22.2744C8.99575 22.2744 8.93218 22.3303 8.92747 22.5609C8.88274 25.2753 9.72558 27.7195 11.2629 29.9306C12.7344 32.0509 14.6696 33.6376 17.071 34.6488C18.0127 35.0449 18.2623 35.4246 18.2623 36.4522C18.2623 36.7714 18.2552 37.0906 18.2646 37.4098C18.2693 37.5659 18.2152 37.6101 18.0645 37.6055C17.742 37.5962 17.4194 37.5938 17.0969 37.6055C16.9109 37.6125 16.8403 37.5635 16.8497 37.3678C16.8662 37.002 16.8473 36.6339 16.8567 36.2658C16.8614 36.0933 16.8261 36.0141 16.6354 35.9372C14.2082 34.9587 12.2353 33.3952 10.6343 31.3495C9.16997 29.4763 8.17881 27.3886 7.74091 25.0563C7.40425 23.2623 7.37364 21.4729 7.72914 19.6695C8.00459 18.2668 8.39305 16.9061 9.06167 15.641C10.6555 12.6283 12.9627 10.3147 16.0798 8.85846C18.0127 7.95677 20.0727 7.48611 22.2175 7.42088C22.4176 7.41389 22.4859 7.45583 22.4835 7.66785C22.4741 9.39901 22.4788 11.1302 22.4812 12.8613C22.4812 13.0384 22.4929 13.1339 22.234 13.071C20.4965 12.6516 19.0392 13.8586 18.759 15.2868C18.5165 16.5287 19.2464 17.8335 20.4518 18.3507C21.045 18.6047 21.6454 18.6373 22.2528 18.4858C22.46 18.4346 22.4788 18.4789 22.4788 18.6583C22.4717 19.8675 22.4741 21.0768 22.4717 22.286L22.4788 22.279L22.4882 22.272Z" fill="#FF571D"></path><path d="M22.4812 22.2791C23.7031 22.2791 24.9226 22.2744 26.1445 22.2791C26.3493 22.2791 26.4411 22.2721 26.3611 22.0181C25.8737 20.4547 26.9638 18.9659 28.3505 18.6374C29.9325 18.2646 31.4652 19.2082 31.8089 20.7553C31.9054 21.1863 31.8631 21.6057 31.743 22.0158C31.67 22.2604 31.7501 22.2791 31.9619 22.2791C33.7018 22.2721 35.4392 22.2791 37.1791 22.2698C37.4333 22.2698 37.5134 22.3234 37.4993 22.5843C37.1602 28.1809 34.6506 32.4726 29.6995 35.2919C29.271 35.5365 28.8072 35.7253 28.3481 35.914C28.1598 35.9909 28.1033 36.0841 28.1127 36.2775C28.1292 36.6549 28.1127 37.0324 28.1197 37.4098C28.1244 37.5659 28.0679 37.6055 27.9173 37.6055C26.1774 37.6009 24.44 37.5986 22.7002 37.6079C22.4647 37.6079 22.4836 37.489 22.4859 37.3399C22.4859 35.8301 22.4859 34.3226 22.4859 32.8128C22.4859 32.4447 22.493 32.0766 22.4836 31.7108C22.4788 31.5127 22.4836 31.4242 22.7496 31.4847C24.327 31.8506 25.8596 30.8999 26.1845 29.3808C26.6177 27.3537 24.8096 25.5946 22.7684 26.0723C22.5024 26.1352 22.4836 26.0629 22.4859 25.8416C22.4953 24.651 22.493 23.4627 22.4953 22.2721L22.4883 22.2791H22.4812Z" fill="#FF571D"></path><path d="M29.9866 10.9345C29.3604 11.1652 28.76 11.1978 28.1526 10.9927C26.9119 10.5733 26.0738 9.27322 26.2409 8.02437C26.4199 6.69163 27.5075 5.66878 28.8495 5.57325C29.1155 5.55461 29.3745 5.61519 29.6311 5.66412C29.8665 5.71072 29.9843 5.6183 29.9843 5.38686C29.9843 3.70463 29.9843 2.02007 29.9843 0.337836C29.9843 -0.0186473 29.9843 -0.00233761 30.3492 0.00232231C32.4233 0.0279518 34.3939 0.512583 36.2655 1.36069C38.9471 2.5746 41.0612 4.45953 42.6433 6.91298C44.1477 9.24527 44.9129 11.8129 44.9976 14.5785C45.0047 14.7882 44.9599 14.8581 44.7292 14.8558C42.9894 14.8465 41.2519 14.8488 39.5121 14.8535C39.3049 14.8535 39.2319 14.8395 39.2861 14.5879C39.6275 13.0081 38.6339 11.4727 37.106 11.1815C35.0954 10.7993 33.3321 12.6097 33.81 14.5785C33.8665 14.8115 33.8312 14.8558 33.6005 14.8558C32.4775 14.8465 31.3521 14.8465 30.2291 14.8558C30.0125 14.8558 29.9772 14.7836 29.9772 14.5902C29.9866 13.4881 29.9819 12.3837 29.9819 11.2816V10.9345H29.9866Z" fill="#FF571D"></path><path d="M22.4553 44.5651C20.0139 44.5651 17.5725 44.5651 15.1311 44.5651C14.2765 44.5651 13.6149 44.2389 13.257 43.4327C13.1864 43.2766 13.1252 43.0995 13.1229 42.9318C13.104 42.1023 13.0263 41.2682 13.1699 40.4434C13.3159 39.6 13.9845 39.085 14.9804 38.9988C15.0957 38.9895 15.2135 38.9895 15.3312 38.9895C20.1551 38.9895 24.9791 38.9895 29.803 38.9895C30.2598 38.9895 30.693 39.0734 31.0791 39.3367C31.5782 39.6768 31.7948 40.1801 31.8395 40.7463C31.8984 41.4593 31.9195 42.1792 31.8348 42.8899C31.71 43.964 30.959 44.5628 29.8077 44.5651C27.3569 44.5698 24.9061 44.5651 22.4553 44.5651Z" fill="#FF571D"></path><path d="M22.4623 52C21.7113 51.9651 20.9602 52.028 20.2092 51.9511C18.4506 51.7717 17.1039 50.4553 16.9109 48.7218C16.8143 47.862 16.8826 47.0023 16.8544 46.1425C16.8496 45.9794 16.9179 45.9538 17.0615 45.9538C17.9397 45.9585 18.8202 45.9608 19.6983 45.9538C19.8679 45.9538 19.9126 46.0051 19.9102 46.1682C19.9032 46.8555 19.9079 47.5405 19.9079 48.2278C19.9079 48.6915 20.1551 48.9734 20.5671 48.9781C20.9979 48.9827 21.3087 48.6752 21.311 48.2232C21.3157 47.5475 21.3205 46.8695 21.3087 46.1938C21.3063 46.0004 21.3675 45.9515 21.5559 45.9538C22.1704 45.9655 22.7872 45.9655 23.4016 45.9538C23.6018 45.9491 23.67 45.9981 23.6653 46.2078C23.6512 46.8951 23.6583 47.5801 23.6606 48.2675C23.6606 48.6845 23.9172 48.9688 24.301 48.9781C24.7295 48.9897 25.0567 48.7008 25.0638 48.2744C25.0732 47.5871 25.0732 46.9021 25.0638 46.2148C25.0614 46.019 25.1062 45.9491 25.318 45.9515C26.1774 45.9631 27.0367 45.9561 27.896 45.9585C27.9949 45.9585 28.122 45.9165 28.1173 46.0959C28.0914 47.0792 28.1926 48.0694 28.0161 49.048C27.7383 50.5764 26.3963 51.7787 24.8378 51.9418C24.0467 52.0233 23.258 51.9698 22.467 52H22.4623Z" fill="#FF571D"></path><path d="M2.52615 22.9757C1.96819 22.9757 1.41257 22.978 0.854605 22.9757C0.525004 22.9757 0.233071 22.8802 0.070625 22.5656C-0.11301 22.2138 0.0753336 21.7688 0.461438 21.6476C0.597987 21.6057 0.748662 21.5847 0.892274 21.5847C1.99644 21.58 3.1006 21.5824 4.20477 21.5824C4.24479 21.5824 4.28246 21.5824 4.32248 21.5847C4.78863 21.622 5.12059 21.9156 5.11353 22.2837C5.10882 22.6565 4.77686 22.9594 4.31071 22.971C3.71507 22.9873 3.11944 22.9757 2.5238 22.9757H2.52615Z" fill="#FF571D"></path><path d="M42.3868 21.5801C42.9447 21.5801 43.5003 21.5778 44.0583 21.5801C44.6116 21.5848 44.9741 21.8597 44.9812 22.2674C44.9883 22.6915 44.621 22.9711 44.0465 22.9711C42.9518 22.9711 41.857 22.9711 40.7646 22.9711C40.6163 22.9711 40.4727 22.9501 40.3338 22.9035C40.0537 22.8103 39.8677 22.547 39.87 22.2628C39.8724 21.9599 40.0678 21.7152 40.3738 21.6267C40.5151 21.5848 40.6611 21.5708 40.807 21.5731C41.3344 21.5731 41.8618 21.5731 42.3891 21.5731L42.3868 21.5801Z" fill="#FF571D"></path><path d="M23.1875 2.56054C23.1875 3.12206 23.1946 3.68125 23.1852 4.24277C23.1804 4.56664 23.0957 4.85788 22.759 5.00467C22.3988 5.16078 22.008 5.01166 21.8667 4.64819C21.8197 4.5247 21.7843 4.3849 21.7843 4.25442C21.7773 3.11274 21.7773 1.97339 21.7843 0.831715C21.7843 0.433293 21.9845 0.142048 22.2788 0.0535094C22.7543 -0.0909479 23.1757 0.256216 23.1875 0.822396C23.1993 1.40256 23.1899 1.98271 23.1899 2.56287L23.1875 2.56054Z" fill="#FF571D"></path><path d="M38.1231 30.5201C38.2761 30.5155 38.4103 30.5784 38.5374 30.6506C39.5827 31.2517 40.628 31.8552 41.6663 32.4657C41.9841 32.6544 42.1042 32.9293 42.0359 33.2159C41.9629 33.5118 41.7487 33.6982 41.445 33.7378C41.292 33.7588 41.1531 33.7145 41.0259 33.6423C39.9736 33.0528 38.9235 32.461 37.8712 31.8715C37.6193 31.7294 37.4474 31.529 37.4356 31.2308C37.4168 30.8417 37.7299 30.5248 38.1278 30.5225L38.1231 30.5201Z" fill="#FF571D"></path><path d="M7.5314 31.2307C7.52198 31.4824 7.38308 31.6618 7.16413 31.8039C6.29775 32.3631 5.38428 32.8454 4.49201 33.365C4.28954 33.4838 4.08942 33.605 3.87518 33.6981C3.5291 33.8473 3.17831 33.7168 3.00174 33.3929C2.82752 33.0714 2.89108 32.7312 3.22069 32.5332C4.30602 31.8854 5.40547 31.2564 6.49551 30.6179C6.94989 30.3523 7.50079 30.6995 7.52669 31.2284L7.5314 31.2307Z" fill="#FF571D"></path><path d="M13.3912 7.48617C13.1299 7.49782 12.9674 7.32308 12.8356 7.11105C12.3812 6.39109 11.9763 5.64551 11.5666 4.89992C11.3806 4.56208 11.1735 4.23355 10.9992 3.88872C10.8132 3.52058 10.9239 3.17342 11.2559 2.99401C11.5855 2.81461 11.9362 2.90781 12.1623 3.25497C12.8309 4.28481 13.4312 5.35659 14.0292 6.42837C14.3211 6.95028 13.9939 7.49083 13.3936 7.4885L13.3912 7.48617Z" fill="#FF571D"></path><path d="M3.59731 10.7899C3.75975 10.8062 3.8963 10.8575 4.02343 10.9297C5.03578 11.5099 6.04577 12.09 7.05577 12.6702C7.12169 12.7098 7.18525 12.7564 7.24411 12.8053C7.55017 13.0523 7.61609 13.4018 7.41362 13.7024C7.21586 13.996 6.84388 14.0915 6.51192 13.9121C5.88097 13.5696 5.25238 13.2201 4.62613 12.8659C4.1694 12.6073 3.71738 12.344 3.27006 12.0691C3.02051 11.9176 2.87454 11.687 2.92162 11.3887C2.96871 11.0835 3.16412 10.8924 3.46547 10.8132C3.51255 10.8016 3.55964 10.7946 3.59495 10.7876L3.59731 10.7899Z" fill="#FF571D"></path></g><defs><clipPath id="clip0_25_684"><rect width="45" height="52" fill="white"></rect></clipPath></defs></svg>