<svg xmlns="http://www.w3.org/2000/svg" width="45" height="52" viewBox="0 0 45 52" fill="none"><g clip-path="url(#clip0_57_991)"><path d="M22.4883 22.2721C21.2971 22.2721 20.1058 22.2767 18.9122 22.2791C18.552 22.2791 18.5402 22.2814 18.632 22.6239C19.0534 24.1943 17.9116 25.5573 16.6779 25.8882C15.2489 26.275 13.7398 25.5084 13.2619 24.1221C13.0876 23.6165 13.0664 23.0992 13.2101 22.582C13.2689 22.3653 13.2571 22.2674 12.9746 22.2721C11.7245 22.2907 10.4744 22.2861 9.22424 22.2744C8.99587 22.2744 8.9323 22.3303 8.9276 22.561C8.88286 25.2754 9.7257 27.7195 11.2631 29.9307C12.7345 32.0509 14.6697 33.6376 17.0711 34.6488C18.0128 35.0449 18.2624 35.4247 18.2624 36.4522C18.2624 36.7714 18.2553 37.0906 18.2647 37.4098C18.2694 37.5659 18.2153 37.6102 18.0646 37.6055C17.7421 37.5962 17.4195 37.5939 17.097 37.6055C16.911 37.6125 16.8404 37.5636 16.8498 37.3679C16.8663 37.0021 16.8474 36.6339 16.8569 36.2658C16.8616 36.0934 16.8263 36.0142 16.6356 35.9373C14.2083 34.9587 12.2354 33.3953 10.6345 31.3496C9.17009 29.4763 8.17893 27.3887 7.74103 25.0564C7.40437 23.2623 7.37376 21.4729 7.72926 19.6695C8.00471 18.2669 8.39317 16.9062 9.06179 15.641C10.6556 12.6284 12.9629 10.3147 16.0799 8.85852C18.0128 7.95683 20.0728 7.48618 22.2176 7.42094C22.4177 7.41395 22.486 7.45589 22.4836 7.66791C22.4742 9.39907 22.4789 11.1302 22.4813 12.8614C22.4813 13.0385 22.493 13.134 22.2341 13.0711C20.4966 12.6517 19.0393 13.8586 18.7591 15.2869C18.5166 16.5287 19.2465 17.8335 20.4519 18.3508C21.0452 18.6047 21.6455 18.6374 22.2529 18.4859C22.4601 18.4346 22.4789 18.4789 22.4789 18.6583C22.4719 19.8676 22.4742 21.0768 22.4719 22.2861L22.4789 22.2791L22.4883 22.2721Z" fill="#FF571D"></path><path d="M22.4812 22.2791C23.7031 22.2791 24.9226 22.2744 26.1445 22.2791C26.3493 22.2791 26.4411 22.2721 26.3611 22.0181C25.8737 20.4547 26.9638 18.9659 28.3505 18.6374C29.9325 18.2646 31.4652 19.2082 31.8089 20.7553C31.9054 21.1863 31.8631 21.6057 31.743 22.0158C31.67 22.2604 31.7501 22.2791 31.9619 22.2791C33.7018 22.2721 35.4392 22.2791 37.1791 22.2698C37.4333 22.2698 37.5134 22.3234 37.4993 22.5843C37.1602 28.1809 34.6506 32.4726 29.6995 35.2919C29.271 35.5365 28.8072 35.7253 28.3481 35.914C28.1598 35.9909 28.1033 36.0841 28.1127 36.2775C28.1292 36.6549 28.1127 37.0324 28.1197 37.4098C28.1244 37.5659 28.0679 37.6055 27.9173 37.6055C26.1774 37.6009 24.44 37.5986 22.7002 37.6079C22.4647 37.6079 22.4836 37.489 22.4859 37.3399C22.4859 35.8301 22.4859 34.3226 22.4859 32.8128C22.4859 32.4447 22.493 32.0766 22.4836 31.7108C22.4788 31.5127 22.4836 31.4242 22.7496 31.4847C24.327 31.8506 25.8596 30.8999 26.1845 29.3808C26.6177 27.3537 24.8096 25.5946 22.7684 26.0723C22.5024 26.1352 22.4836 26.0629 22.4859 25.8416C22.4953 24.651 22.493 23.4627 22.4953 22.2721L22.4883 22.2791H22.4812Z" fill="#FF571D"></path><path d="M29.9866 10.9345C29.3604 11.1652 28.76 11.1978 28.1526 10.9927C26.9119 10.5733 26.0738 9.27322 26.2409 8.02437C26.4199 6.69163 27.5075 5.66878 28.8495 5.57325C29.1155 5.55461 29.3745 5.61519 29.6311 5.66412C29.8665 5.71072 29.9843 5.6183 29.9843 5.38686C29.9843 3.70463 29.9843 2.02007 29.9843 0.337836C29.9843 -0.0186473 29.9843 -0.00233761 30.3492 0.00232231C32.4233 0.0279518 34.3939 0.512583 36.2655 1.36069C38.9471 2.5746 41.0612 4.45953 42.6433 6.91298C44.1477 9.24527 44.9129 11.8129 44.9976 14.5785C45.0047 14.7882 44.9599 14.8581 44.7292 14.8558C42.9894 14.8465 41.2519 14.8488 39.5121 14.8535C39.3049 14.8535 39.2319 14.8395 39.2861 14.5879C39.6275 13.0081 38.6339 11.4727 37.106 11.1815C35.0954 10.7993 33.3321 12.6097 33.81 14.5785C33.8665 14.8115 33.8312 14.8558 33.6005 14.8558C32.4775 14.8465 31.3521 14.8465 30.2291 14.8558C30.0125 14.8558 29.9772 14.7836 29.9772 14.5902C29.9866 13.4881 29.9819 12.3837 29.9819 11.2816V10.9345H29.9866Z" fill="#FF571D"></path><path d="M22.4553 44.5651C20.0139 44.5651 17.5725 44.5651 15.1311 44.5651C14.2765 44.5651 13.6149 44.2389 13.257 43.4327C13.1864 43.2766 13.1252 43.0995 13.1229 42.9318C13.104 42.1023 13.0263 41.2682 13.1699 40.4434C13.3159 39.6 13.9845 39.085 14.9804 38.9988C15.0957 38.9895 15.2135 38.9895 15.3312 38.9895C20.1551 38.9895 24.9791 38.9895 29.803 38.9895C30.2598 38.9895 30.693 39.0734 31.0791 39.3367C31.5782 39.6768 31.7948 40.1801 31.8395 40.7463C31.8984 41.4593 31.9195 42.1792 31.8348 42.8899C31.71 43.964 30.959 44.5628 29.8077 44.5651C27.3569 44.5698 24.9061 44.5651 22.4553 44.5651Z" fill="#FF571D"></path><path d="M22.4624 52C21.7114 51.965 20.9604 52.0279 20.2093 51.9511C18.4507 51.7716 17.104 50.4552 16.911 48.7217C16.8145 47.862 16.8827 47.0022 16.8545 46.1425C16.8498 45.9794 16.918 45.9537 17.0617 45.9537C17.9398 45.9584 18.8203 45.9607 19.6985 45.9537C19.868 45.9537 19.9127 46.005 19.9104 46.1681C19.9033 46.8554 19.908 47.5404 19.908 48.2278C19.908 48.6914 20.1552 48.9734 20.5672 48.978C20.998 48.9827 21.3088 48.6751 21.3112 48.2231C21.3159 47.5474 21.3206 46.8694 21.3088 46.1937C21.3064 46.0003 21.3677 45.9514 21.556 45.9537C22.1705 45.9654 22.7873 45.9654 23.4018 45.9537C23.6019 45.9491 23.6702 45.998 23.6655 46.2077C23.6513 46.895 23.6584 47.5801 23.6607 48.2674C23.6607 48.6845 23.9174 48.9687 24.3011 48.978C24.7296 48.9897 25.0568 48.7008 25.0639 48.2744C25.0733 47.587 25.0733 46.902 25.0639 46.2147C25.0616 46.019 25.1063 45.9491 25.3182 45.9514C26.1775 45.9631 27.0368 45.9561 27.8961 45.9584C27.995 45.9584 28.1221 45.9165 28.1174 46.0959C28.0915 47.0791 28.1928 48.0693 28.0162 49.0479C27.7384 50.5764 26.3964 51.7786 24.8379 51.9417C24.0468 52.0233 23.2582 51.9697 22.4671 52H22.4624Z" fill="#FF571D"></path><path d="M2.52615 22.9757C1.96819 22.9757 1.41257 22.978 0.854605 22.9757C0.525004 22.9757 0.233071 22.8802 0.070625 22.5656C-0.11301 22.2138 0.0753336 21.7688 0.461438 21.6476C0.597987 21.6057 0.748662 21.5847 0.892274 21.5847C1.99644 21.58 3.1006 21.5824 4.20477 21.5824C4.24479 21.5824 4.28246 21.5824 4.32248 21.5847C4.78863 21.622 5.12059 21.9156 5.11353 22.2837C5.10882 22.6565 4.77686 22.9594 4.31071 22.971C3.71507 22.9873 3.11944 22.9757 2.5238 22.9757H2.52615Z" fill="#FF571D"></path><path d="M42.3866 21.5801C42.9446 21.5801 43.5002 21.5777 44.0582 21.5801C44.6114 21.5847 44.974 21.8596 44.9811 22.2674C44.9881 22.6914 44.6209 22.971 44.0464 22.971C42.9517 22.971 41.8569 22.971 40.7645 22.971C40.6162 22.971 40.4726 22.9501 40.3337 22.9035C40.0535 22.8103 39.8675 22.547 39.8699 22.2627C39.8722 21.9598 40.0677 21.7152 40.3737 21.6267C40.515 21.5847 40.6609 21.5707 40.8069 21.5731C41.3343 21.5731 41.8616 21.5731 42.389 21.5731L42.3866 21.5801Z" fill="#FF571D"></path><path d="M23.1875 2.56061C23.1875 3.12213 23.1946 3.68131 23.1852 4.24283C23.1804 4.5667 23.0957 4.85794 22.759 5.00473C22.3988 5.16084 22.008 5.01172 21.8667 4.64825C21.8197 4.52476 21.7843 4.38496 21.7843 4.25448C21.7773 3.11281 21.7773 1.97346 21.7843 0.831776C21.7843 0.433354 21.9845 0.142109 22.2788 0.0535705C22.7543 -0.0908869 23.1757 0.256277 23.1875 0.822457C23.1993 1.40262 23.1899 1.98278 23.1899 2.56294L23.1875 2.56061Z" fill="#FF571D"></path><path d="M38.1231 30.5201C38.2761 30.5155 38.4103 30.5784 38.5374 30.6506C39.5827 31.2517 40.628 31.8552 41.6663 32.4657C41.9841 32.6544 42.1042 32.9293 42.0359 33.2159C41.9629 33.5118 41.7487 33.6982 41.445 33.7378C41.292 33.7588 41.1531 33.7145 41.0259 33.6423C39.9736 33.0528 38.9235 32.461 37.8712 31.8715C37.6193 31.7294 37.4474 31.529 37.4356 31.2308C37.4168 30.8417 37.7299 30.5248 38.1278 30.5225L38.1231 30.5201Z" fill="#FF571D"></path><path d="M7.53128 31.2308C7.52186 31.4824 7.38296 31.6618 7.16401 31.804C6.29763 32.3631 5.38416 32.8454 4.49188 33.365C4.28941 33.4839 4.0893 33.605 3.87506 33.6982C3.52898 33.8473 3.17819 33.7169 3.00161 33.393C2.8274 33.0715 2.89096 32.7313 3.22056 32.5332C4.30589 31.8855 5.40535 31.2564 6.49539 30.618C6.94977 30.3524 7.50067 30.6996 7.52657 31.2285L7.53128 31.2308Z" fill="#FF571D"></path><path d="M13.3913 7.48617C13.13 7.49782 12.9675 7.32308 12.8357 7.11105C12.3813 6.39109 11.9764 5.64551 11.5667 4.89992C11.3808 4.56208 11.1736 4.23355 10.9994 3.88872C10.8134 3.52058 10.924 3.17342 11.256 2.99401C11.5856 2.81461 11.9364 2.90781 12.1624 3.25497C12.831 4.28481 13.4313 5.35659 14.0293 6.42837C14.3213 6.95028 13.994 7.49083 13.3937 7.4885L13.3913 7.48617Z" fill="#FF571D"></path><path d="M3.59731 10.7901C3.75975 10.8064 3.8963 10.8576 4.02343 10.9298C5.03578 11.51 6.04577 12.0902 7.05577 12.6703C7.12169 12.7099 7.18525 12.7565 7.24411 12.8055C7.55017 13.0524 7.61609 13.4019 7.41362 13.7025C7.21586 13.9961 6.84388 14.0916 6.51192 13.9122C5.88097 13.5697 5.25238 13.2202 4.62613 12.866C4.1694 12.6074 3.71738 12.3441 3.27006 12.0692C3.02051 11.9177 2.87454 11.6871 2.92162 11.3888C2.96871 11.0836 3.16412 10.8926 3.46547 10.8133C3.51255 10.8017 3.55964 10.7947 3.59495 10.7877L3.59731 10.7901Z" fill="#FF571D"></path></g><defs><clipPath id="clip0_57_991"><rect width="45" height="52" fill="white"></rect></clipPath></defs></svg>