<svg xmlns="http://www.w3.org/2000/svg" width="50" height="43" viewBox="0 0 50 43" fill="none"><g clip-path="url(#clip0_57_987)"><path d="M10.7637 10.6481C10.7611 4.73474 15.7437 -0.0956459 21.7041 5.51863e-05C27.6973 0.0982747 32.4348 5.03192 32.2301 10.9956C32.0179 17.1985 27.0808 21.495 21.2821 21.3842C15.251 21.2684 10.8092 16.4732 10.7637 10.6455V10.6481Z" fill="#FF571D"></path><path d="M24.18 26.95C23.801 27.3025 23.4827 27.5846 23.1769 27.8843C22.4695 28.5819 21.7266 29.2493 21.1228 30.0451C18.6795 33.2637 19.0509 37.6055 21.81 40.4539C22.5528 41.2195 23.3007 41.9775 24.0436 42.7406C23.9779 42.8464 23.8844 42.8011 23.8086 42.8011C16.3701 42.8086 8.92911 42.8137 1.49064 42.8187C1.08132 42.8187 0.672001 42.8011 0.262683 42.8036C0.0782366 42.8036 0.00496362 42.7507 0.00496362 42.5543C0.0125436 40.7964 -0.0253563 39.041 0.0201236 37.2832C0.0605501 35.6462 0.874133 34.3315 1.99597 33.2058C3.73431 31.463 5.8567 30.3121 8.13574 29.4432C9.47487 28.932 10.8216 28.4283 12.2188 28.0984C14.3993 27.5846 16.5899 27.1212 18.8311 26.9147C20.4027 26.7686 21.9692 26.6981 23.5408 26.8668C23.7252 26.887 23.9097 26.9147 24.1775 26.95H24.18Z" fill="#FF571D"></path><path d="M33.5288 43C32.6622 42.9925 31.9901 42.6122 31.4089 42.0178C29.6605 40.2272 27.9045 38.4416 26.1055 36.7014C25.1529 35.7796 25.0039 34.3794 25.724 33.3216C26.4617 32.2387 27.8059 31.8257 28.9606 32.3193C29.3143 32.4704 29.5973 32.7147 29.8677 32.9816C31.0173 34.1275 32.172 35.2709 33.314 36.4218C33.4631 36.5729 33.544 36.5956 33.7057 36.4319C37.0358 33.0673 40.3735 29.7102 43.7087 26.3506C44.2545 25.8015 44.7952 25.245 45.3409 24.6959C46.1267 23.9026 47.0691 23.6357 48.1329 23.9782C49.2269 24.3282 49.8207 25.1316 49.9773 26.2548C50.0582 26.8366 49.9167 27.3781 49.5857 27.8616C49.4493 28.0606 49.3052 28.2545 49.136 28.4258C47.2965 30.2894 45.4748 32.1707 43.6026 34.0016C40.8991 36.646 38.2587 39.3533 35.5855 42.0254C35.0094 42.6021 34.355 42.9925 33.5288 42.995V43Z" fill="#FF571D"></path></g><defs><clipPath id="clip0_57_987"><rect width="50" height="43" fill="white"></rect></clipPath></defs></svg>