<svg xmlns="http://www.w3.org/2000/svg" width="55" height="41" viewBox="0 0 55 41" fill="none"><g clip-path="url(#clip0_57_988)"><path d="M21.5896 41C14.9235 41 8.25503 41 1.58895 41C1.32697 41 1.06741 41.005 0.80542 40.9601C0.104366 40.8429 -0.210987 40.2044 0.152882 39.576C0.521602 38.9375 0.929136 38.319 1.31969 37.6931C2.53986 35.7353 3.78187 33.7901 4.97051 31.8099C5.33438 31.2064 5.78315 30.9695 6.45024 30.972C9.47035 30.9869 12.4929 30.9769 15.513 30.9769C15.6028 30.9769 15.6974 30.9894 15.7847 30.9769C16.0685 30.9296 16.2068 31.0044 16.2456 31.3411C16.299 31.8124 16.7138 32.1616 17.1844 32.2064C17.3954 32.2264 17.6065 32.2239 17.8175 32.2239C20.4665 32.2239 23.1154 32.2239 25.7644 32.2164C26.3878 32.2164 26.742 31.9645 26.9336 31.4732C26.9967 31.3086 26.89 31.0543 27.101 30.9819C27.266 30.9271 27.46 30.9744 27.642 30.9744C30.6136 30.9744 33.5852 30.9994 36.5543 30.9595C37.3985 30.947 37.9079 31.2363 38.3543 31.987C39.7952 34.4011 41.3113 36.7678 42.7983 39.152C42.9002 39.3166 43.0069 39.4812 43.0943 39.6558C43.3732 40.2094 43.0652 40.8404 42.4611 40.9451C42.0609 41.015 41.6582 41 41.2555 41C34.6986 41 28.1441 41 21.5872 41H21.5896ZM21.6139 38.7305C21.6139 38.7305 21.6139 38.7405 21.6139 38.7455C24.1925 38.7455 26.7687 38.7455 29.3473 38.7455C29.8616 38.7455 30.3734 38.7555 30.8877 38.7455C31.3486 38.7355 31.5063 38.4861 31.3267 38.0522C31.1933 37.7305 31.0332 37.4187 30.895 37.097C30.8003 36.8776 30.6427 36.7878 30.4195 36.7953C30.1187 36.8052 29.8155 36.8177 29.5147 36.8177C25.0852 36.8202 20.6533 36.8227 16.2238 36.8227C15.1055 36.8227 13.9896 36.8077 12.8713 36.8027C12.6967 36.8027 12.5026 36.7603 12.3886 36.9698C12.1848 37.3389 12.0005 37.718 11.8695 38.1195C11.7724 38.4138 11.9253 38.6582 12.2236 38.7131C12.3207 38.7305 12.425 38.728 12.5244 38.728C15.5542 38.728 18.5865 38.728 21.6163 38.728L21.6139 38.7305Z" fill="#FF571D"></path><path d="M50.0078 13.2378C49.0497 13.2378 48.2734 13.2378 47.4971 13.2378C46.4735 13.2378 45.5638 12.9759 44.9428 12.0581C44.8652 11.9409 44.7511 11.9309 44.6226 11.9309C43.6959 11.926 42.7717 11.9733 41.845 11.9085C41.7019 11.8985 41.5806 11.911 41.5637 12.1305C41.4812 13.148 41.2362 14.1231 40.785 15.0359C40.227 16.1656 39.5794 17.243 38.7255 18.1558C37.2554 19.7269 35.4555 20.722 33.3645 21.1185C30.0436 21.7495 27.0695 20.9664 24.5176 18.677C22.5794 16.9412 21.4393 14.7441 21.056 12.1205C20.287 6.84335 23.6807 1.40911 29.1484 0.246941C32.5276 -0.471307 35.504 0.39907 38.153 2.6436C40.1421 4.32948 41.1149 6.55655 41.554 9.08788C41.5952 9.32729 41.6825 9.39213 41.9057 9.38715C42.8008 9.37468 43.6984 9.37468 44.5935 9.37967C44.7827 9.37967 44.9064 9.31482 45.0204 9.15272C45.5225 8.44195 46.2236 8.0928 47.0654 8.08283C48.858 8.06537 50.6507 8.07285 52.4433 8.07784C53.7994 8.08283 54.9176 9.13776 54.9953 10.4695C55.0753 11.8636 54.1123 13.0058 52.7175 13.1804C51.7544 13.3026 50.7865 13.1904 50.0054 13.2353L50.0078 13.2378ZM23.1301 10.6665C23.0888 14.9611 26.4849 18.9663 31.2322 19.0635C35.3779 19.1483 39.6109 15.5521 39.5139 10.5792C39.4241 5.98046 35.8169 2.22212 31.2589 2.24457C26.776 2.26701 23.1301 6.02535 23.1325 10.664L23.1301 10.6665Z" fill="#FF571D"></path><path d="M21.7472 29.3235C17.1139 29.3235 12.4806 29.3235 7.84738 29.3235C7.5854 29.3235 7.32341 29.3036 7.06385 29.2686C6.5787 29.2038 6.20027 28.8147 6.11779 28.3185C6.0523 27.9394 6.06685 27.5553 6.06685 27.1737C6.06685 21.3704 6.062 15.5671 6.06685 9.76371C6.06685 7.73865 7.58297 6.06773 9.55514 5.95051C11.3963 5.84078 13.2399 5.9156 15.0835 5.9131C16.5342 5.9131 17.9848 5.89066 19.4354 5.93305C19.6489 5.93804 19.7144 5.96298 19.6319 6.20738C19.4402 6.77101 19.2122 7.32715 19.1322 7.92569C19.0982 8.18257 18.9745 8.23494 18.7489 8.23494C16.0102 8.23245 13.269 8.23494 10.5303 8.23743C10.2174 8.23743 9.90688 8.22995 9.59638 8.28482C8.90261 8.40453 8.40289 8.98561 8.40289 9.70136C8.40289 15.3601 8.40289 21.0188 8.39804 26.6775C8.39804 26.8969 8.43928 26.9892 8.67701 26.9867C12.9973 26.9792 17.3177 26.9792 21.638 26.9792C25.9195 26.9792 30.1986 26.9792 34.4802 26.9842C34.7543 26.9842 34.8465 26.9044 34.8416 26.6151C34.8246 25.4879 34.8343 24.3606 34.8246 23.2334C34.8246 23.0463 34.8416 22.9116 35.0478 22.8643C35.7003 22.7121 36.3019 22.4228 36.8987 22.1261C37.1049 22.0238 37.1679 22.0438 37.1655 22.2981C37.1607 24.1486 37.1752 26.0016 37.1679 27.8521C37.1655 28.7798 36.7362 29.2287 35.8289 29.2911C35.5475 29.311 35.2661 29.321 34.9847 29.3235C30.5722 29.3235 26.1621 29.3235 21.7496 29.3235H21.7472Z" fill="#FF571D"></path></g><defs><clipPath id="clip0_57_988"><rect width="55" height="41" fill="white"></rect></clipPath></defs></svg>