<svg xmlns="http://www.w3.org/2000/svg" width="44" height="38" viewBox="0 0 44 38" fill="none"><g clip-path="url(#clip0_90_940)"><path d="M22.3359 0.005386C24.7147 0.0234288 27.013 0.496151 29.2563 1.24673C31.1315 1.87462 32.873 2.76233 34.4717 3.91527C34.7171 4.09209 34.7208 4.11915 34.567 4.39701C33.5982 6.15258 32.5562 7.86665 31.5472 9.59876C30.6554 11.1306 29.7544 12.657 28.8516 14.1834C28.5219 14.7428 28.4047 14.7482 27.978 14.2466C27.3939 13.5628 26.7474 12.9421 26.0625 12.3557C24.3045 10.8509 22.2864 9.8676 20.0083 9.39848C19.4718 9.28842 18.9334 9.19821 18.384 9.18377C18.1331 9.17656 17.9958 9.07912 17.9262 8.8175C17.2559 6.28609 16.571 3.75829 15.8898 1.22869C15.8147 0.952634 15.8623 0.855203 16.1389 0.783032C17.2266 0.499759 18.3199 0.256181 19.4443 0.147924C20.4057 0.0541016 21.3671 -0.0234825 22.3359 0.005386Z" fill="#FF571D"></path><path d="M15.1611 9.08092C15.1482 9.283 15.0036 9.33352 14.8534 9.37141C14.4194 9.48147 13.9781 9.56808 13.5532 9.7016C11.0517 10.4829 8.94572 11.8703 7.18221 13.7739C6.30686 14.7175 5.55054 15.7477 4.93707 16.8754C4.91509 16.9151 4.89312 16.953 4.86748 16.9909C4.69168 17.2651 4.5873 17.3066 4.31077 17.1298C3.55812 16.6499 2.74687 16.2692 1.98323 15.8073C1.75615 15.6702 1.52174 15.5475 1.291 15.4158C0.999832 15.248 0.992507 15.2065 1.08956 14.8961C1.81841 12.5488 3.02888 10.4522 4.51404 8.49634C6.62733 5.71774 9.30099 3.62116 12.4728 2.12722C12.5826 2.07489 12.6888 2.01896 12.8006 1.97024C13.0807 1.84936 13.165 1.88003 13.2584 2.1633C13.3463 2.43395 13.4195 2.7082 13.4946 2.98245C14.0257 4.94731 14.5384 6.91759 15.1116 8.87163C15.1318 8.9438 15.1464 9.01777 15.1611 9.07912V9.08092Z" fill="#FF571D"></path><path d="M42.4141 13.9958C42.6962 14.7085 42.9196 15.4122 43.1082 16.1285C43.6338 18.1186 43.9066 20.1376 43.8352 22.1963C43.7784 23.8472 43.5312 25.4729 43.1064 27.0733C43.0551 27.2682 42.9232 27.3385 42.7401 27.3475C42.557 27.3566 42.3757 27.3548 42.1926 27.3548C39.0428 27.3548 35.893 27.3548 32.7432 27.3548C32.6516 27.3548 32.5601 27.3584 32.4703 27.3475C32.3257 27.3295 32.2414 27.2555 32.2304 27.0986C32.1993 26.7124 32.2909 26.3931 32.5564 26.0719C34.558 23.6488 36.5449 21.2148 38.5172 18.7682C39.6343 17.3843 40.744 15.995 41.8794 14.6255C42.0479 14.4235 42.22 14.225 42.416 13.9958H42.4141Z" fill="#FF571D"></path><path d="M15.584 31.7607C15.584 31.5586 15.573 31.3547 15.5877 31.1544C15.6078 30.8657 15.7214 30.7611 16.0144 30.725C16.7634 30.6294 17.2157 30.2848 17.3732 29.6857C17.4904 29.2347 17.3988 28.8287 17.1113 28.4588C16.8055 28.0655 16.8128 27.9825 17.1699 27.6253C17.3787 27.4178 17.5874 27.2103 17.8017 27.0082C18.0874 26.7357 18.2302 26.7213 18.5287 26.9703C19.0177 27.3763 19.5542 27.3943 20.1091 27.1616C20.5651 26.9703 20.8032 26.5968 20.8746 26.1205C20.8874 26.0321 20.9002 25.9419 20.9149 25.8535C20.9442 25.6766 21.0449 25.5648 21.228 25.5485C21.6987 25.507 22.1693 25.4998 22.6381 25.5521C22.7938 25.5702 22.8871 25.6604 22.9238 25.8029C22.9531 25.9184 22.9622 26.0393 22.9842 26.1566C23.1655 27.1598 24.3851 27.6379 25.2239 27.0353C25.2788 26.9956 25.3319 26.9541 25.3887 26.9144C25.6029 26.7646 25.7696 26.7574 25.9619 26.936C26.2604 27.2121 26.5515 27.499 26.8317 27.7949C27.0203 27.9933 27.0112 28.1305 26.8116 28.3668C26.449 28.798 26.3208 29.2708 26.5314 29.8084C26.7511 30.3678 27.1833 30.6528 27.7748 30.7268C28.1283 30.7701 28.2363 30.8585 28.2528 31.205C28.2711 31.5857 28.2674 31.9682 28.2528 32.3507C28.24 32.6376 28.1026 32.7548 27.7766 32.7909C27.6008 32.8108 27.4287 32.836 27.2694 32.9064C26.4362 33.2709 26.167 34.2758 26.7072 34.9994C27.057 35.4685 27.057 35.4865 26.6431 35.9177C26.4545 36.1144 26.2677 36.3111 26.0699 36.4969C25.7714 36.7784 25.6231 36.7784 25.3008 36.524C24.8118 36.1361 24.2057 36.0873 23.6636 36.3941C23.2442 36.6304 23.0117 36.9877 22.9732 37.464C22.9403 37.879 22.8285 37.9873 22.4055 37.9963C22.0869 38.0035 21.7664 38.0053 21.4478 37.9963C21.0101 37.9873 20.9295 37.9006 20.8746 37.4712C20.8032 36.9065 20.5175 36.4861 19.9626 36.2876C19.4718 36.1108 19.0067 36.1739 18.5855 36.4933C18.1735 36.8073 18.0929 36.8018 17.7266 36.4356C17.5234 36.2335 17.3256 36.026 17.1278 35.8185C16.822 35.501 16.8183 35.4198 17.0893 35.0769C17.5691 34.4671 17.5252 33.7093 16.9831 33.1626C16.7524 32.9317 16.4685 32.8234 16.1481 32.7981C15.7012 32.7621 15.5932 32.6502 15.5877 32.2099C15.5877 32.0602 15.5877 31.9104 15.5877 31.7607C15.5877 31.7607 15.5877 31.7607 15.5895 31.7607H15.584ZM21.8433 34.7937C23.4988 34.8731 24.94 33.5415 25.0151 31.8581C25.0865 30.2956 23.7332 28.7872 22.2206 28.7042C20.316 28.5996 18.9133 29.96 18.8309 31.6127C18.743 33.3936 20.1988 34.772 21.8433 34.7937Z" fill="#FF571D"></path><path d="M42.8372 11.322C42.8372 11.4122 42.7768 11.4735 42.7237 11.5367C42.0242 12.3955 41.321 13.2508 40.6232 14.1132C39.2022 15.8706 37.7866 17.6316 36.3637 19.3889C34.3475 21.877 32.3257 24.3615 30.3077 26.8478C30.2747 26.8893 30.2381 26.9272 30.207 26.9687C30.0843 27.1275 29.9542 27.1455 29.8096 26.994C29.7363 26.9182 29.6557 26.8478 29.5807 26.7739C28.6998 25.9042 27.8171 25.0345 26.9363 24.1649C26.8722 24.1017 26.8118 24.0332 26.7477 23.9682C26.6158 23.8329 26.6177 23.721 26.777 23.5965C28.9544 21.8879 31.1281 20.1756 33.3036 18.4669C34.9445 17.1769 36.5871 15.8904 38.2261 14.6004C39.5922 13.525 40.9565 12.4461 42.3208 11.3689C42.4032 11.3039 42.4856 11.2336 42.5772 11.1813C42.7036 11.1109 42.8336 11.1885 42.8336 11.3238L42.8372 11.322Z" fill="#FF571D"></path><path d="M30.1831 17.4077C30.1941 17.294 30.2545 17.2056 30.3076 17.1154C30.8387 16.2078 31.3771 15.3039 31.9027 14.3945C32.7194 12.9836 33.5453 11.5798 34.3676 10.1725C35.133 8.86259 35.9095 7.5599 36.6841 6.2536C36.8654 5.94687 36.9753 5.93244 37.2463 6.17962C38.2938 7.1377 39.1692 8.24192 39.9804 9.39486C40.2698 9.80623 40.528 10.2393 40.8063 10.6597C40.8924 10.7896 40.8814 10.8672 40.7495 10.9718C37.6309 13.4743 34.4646 15.9191 31.3313 18.4036C31.1885 18.5155 31.0438 18.6256 30.9046 18.7392C30.8405 18.7916 30.7764 18.8132 30.7435 18.723C30.5896 18.299 30.3827 17.9002 30.1978 17.4889C30.1868 17.4618 30.1868 17.4311 30.1831 17.4059V17.4077Z" fill="#FF571D"></path><path d="M35.1513 34.4004C33.8585 34.4004 32.5656 34.4004 31.2727 34.4004C31.1445 34.4004 31.0145 34.3932 30.8863 34.3806C30.597 34.3535 30.531 34.2507 30.6354 33.9746C30.7728 33.6102 30.9229 33.2511 31.0621 32.8866C31.3643 32.0946 31.5712 31.2754 31.78 30.4563C31.8734 30.0918 31.9137 30.0593 32.2909 30.0593C35.34 30.0593 38.3909 30.0593 41.4399 30.0593C41.4784 30.0593 41.5168 30.0593 41.5535 30.0593C41.8849 30.0702 41.9857 30.2073 41.8593 30.5032C41.5883 31.1293 41.2769 31.7373 40.9308 32.3273C40.5866 32.9173 40.2002 33.482 39.8193 34.0504C39.6435 34.312 39.4347 34.4076 39.1197 34.404C37.7957 34.3914 36.4735 34.3986 35.1495 34.3986L35.1513 34.4004Z" fill="#FF571D"></path><path d="M4.26849 34.3536C3.82532 33.7455 3.39863 33.1573 3.04153 32.5258C2.25958 31.1383 1.54355 29.7202 1.06925 28.1938C0.525364 26.4472 0.171928 24.6682 0.0437392 22.8459C-0.0569808 21.4042 0.0181014 19.9716 0.230529 18.5445C0.239685 18.4849 0.252504 18.4272 0.270817 18.3694C0.344068 18.1511 0.459438 18.0934 0.668203 18.1998C1.05277 18.3965 1.43001 18.6058 1.80542 18.8187C2.27972 19.0875 2.74853 19.3654 3.21733 19.6433C3.55795 19.8435 3.56711 19.8616 3.44624 20.2351C3.12028 21.2419 2.87672 22.2685 2.72838 23.315C2.59287 24.2658 2.54159 25.2221 2.54159 26.182C2.53976 27.7842 2.70458 29.3665 3.10746 30.92C3.38764 31.999 3.73375 33.0599 4.21172 34.0739C4.24834 34.1515 4.30145 34.2273 4.26849 34.3518V34.3536Z" fill="#FF571D"></path></g><defs><clipPath id="clip0_90_940"><rect width="43.8462" height="38" fill="white"></rect></clipPath></defs></svg>