<svg xmlns="http://www.w3.org/2000/svg" width="35" height="38" viewBox="0 0 35 38" fill="none"><g clip-path="url(#clip0_90_957)"><path d="M5.22937e-05 17.5668C5.22937e-05 12.152 5.22937e-05 6.73724 5.22937e-05 1.32404C5.22937e-05 1.10099 -0.00152959 0.876363 0.0127074 0.6549C0.0332718 0.330614 0.254735 0.0870036 0.571112 0.0300558C0.680262 0.0110732 0.792576 0.00158188 0.903308 0.00158188C7.6801 0.00158188 14.4553 0.00474565 21.2321 0C21.4282 0 21.4725 0.0601116 21.471 0.245192C21.463 1.43477 21.4678 2.62434 21.4646 3.81234C21.4646 4.3138 21.5627 4.77729 21.925 5.15378C22.2587 5.50021 22.6669 5.66314 23.143 5.66472C24.3848 5.66789 25.6266 5.66947 26.8699 5.67263C27.1373 5.67263 27.1388 5.6758 27.1373 5.94155C27.1373 7.95213 27.1357 9.9627 27.1357 11.9733C27.1357 13.9838 27.1357 15.9944 27.142 18.005C27.142 18.1758 27.1009 18.2375 26.919 18.2613C24.2124 18.6124 22.0294 20.7559 21.6355 23.4372C21.5954 23.7082 21.4383 23.8437 21.1641 23.8437C16.0973 23.8437 11.0305 23.8437 5.96217 23.8437C5.85777 23.8437 5.75178 23.8437 5.64738 23.8469C5.28038 23.8611 5.02728 24.1126 5.01937 24.4686C5.01146 24.8261 5.25349 25.0934 5.62048 25.114C5.87675 25.1266 6.13301 25.1203 6.38928 25.1203C11.3643 25.1203 16.3393 25.1203 21.3144 25.1203C21.5706 25.1203 21.5975 25.1456 21.588 25.3354C21.5817 25.4652 21.5058 25.4905 21.3966 25.511C20.6958 25.6423 20.1722 26.0236 19.8258 26.6468C19.8131 26.6706 19.7942 26.6927 19.791 26.718C19.7514 27.036 19.5458 27.0518 19.2753 27.0518C13.9776 27.0439 8.68143 27.0455 3.3837 27.0455C3.23342 27.0455 3.08156 27.0407 2.93286 27.0787C2.60858 27.1609 2.42033 27.4457 2.46463 27.7969C2.50101 28.0816 2.7636 28.3046 3.07365 28.3046C4.05916 28.3062 5.04468 28.3046 6.03177 28.3046C10.4674 28.3046 14.9046 28.3046 19.3402 28.3046C19.6028 28.3046 19.6043 28.3046 19.6059 28.5546C19.6075 29.0481 19.6012 29.5401 19.6075 30.0336C19.6107 30.2045 19.5553 30.2504 19.3797 30.2504C14.0045 30.2456 8.62764 30.2472 3.2524 30.2472C3.16066 30.2472 3.06891 30.2504 2.97716 30.263C2.63547 30.312 2.42824 30.562 2.44248 30.9021C2.45672 31.2501 2.67502 31.4795 3.01829 31.5032C3.11003 31.5095 3.20178 31.5111 3.29353 31.5111C8.53115 31.5111 13.7703 31.5111 19.008 31.5111C19.1329 31.5111 19.2579 31.5222 19.3829 31.5111C19.5569 31.4969 19.6091 31.5681 19.6075 31.7389C19.5996 32.5726 19.6027 33.4078 19.6027 34.2414C19.6027 34.4851 19.5964 34.7271 19.6059 34.9707C19.6122 35.1273 19.5553 35.1668 19.3987 35.1668C15.9423 35.1621 12.4843 35.1637 9.02786 35.1637C6.35922 35.1637 3.69059 35.1637 1.02353 35.1637C0.925454 35.1637 0.825795 35.1637 0.727719 35.1605C0.294283 35.1415 0.0332718 34.89 0.00954359 34.4566C-0.00311147 34.2082 0.00163418 33.9567 0.00163418 33.7084C0.00163418 28.3268 0.00163418 22.9452 0.00163418 17.5652L5.22937e-05 17.5668ZM22.1417 10.4942C22.1417 9.03097 22.1369 7.88727 22.1417 6.74357C22.1448 6.05545 21.8269 5.61094 21.191 5.35626C20.3209 5.00666 19.4588 4.63492 18.5967 4.26634C17.1366 3.64308 15.6781 3.01982 14.2228 2.38548C13.7561 2.18142 13.3132 2.19565 12.856 2.40763C12.3277 2.6544 11.7898 2.88536 11.2536 3.11315C9.48661 3.86612 7.71964 4.62226 5.94635 5.36417C5.28038 5.64258 4.98931 6.12663 4.99248 6.83848C5.00197 8.8886 4.98773 10.9387 4.9988 12.9888C5.00513 14.1515 5.19496 15.2842 5.61574 16.3788C6.24849 18.0224 7.1992 19.4382 8.52957 20.5961C9.4961 21.4377 10.5908 22.0625 11.7867 22.5149C12.2359 22.6842 12.6962 22.8139 13.1676 22.9025C13.8795 23.037 14.5296 22.7902 15.1782 22.5592C17.8959 21.5895 19.9255 19.8479 21.1657 17.2172C21.7098 16.0624 22.0262 14.8555 22.1037 13.5821C22.1717 12.4463 22.1243 11.3089 22.1401 10.4942H22.1417Z" fill="#FF571D"></path><path d="M27.7053 37.9984C25.7738 37.9984 23.8423 37.9984 21.9093 37.9984C21.2196 37.9984 20.8715 37.6647 20.87 36.975C20.8668 33.8935 20.87 30.8135 20.8731 27.732C20.8731 27.0755 21.2449 26.7244 21.9156 26.7244C25.7722 26.7244 29.6304 26.7244 33.4871 26.7244C34.2321 26.7244 34.5722 27.0597 34.5738 27.8048C34.5754 30.524 34.5738 33.2433 34.5738 35.9641C34.5738 36.3391 34.5801 36.714 34.5691 37.0873C34.5517 37.6346 34.2068 37.9747 33.6579 37.9937C33.4285 38.0016 33.1976 37.9953 32.9682 37.9953C31.2139 37.9953 29.4596 37.9953 27.7053 37.9953V37.9984ZM26.8052 33.6056C26.8052 33.6056 26.8115 33.6056 26.8163 33.6056C26.8163 33.8286 26.8131 34.0516 26.8163 34.2747C26.8194 34.5041 26.7989 34.7334 26.8289 34.9628C26.908 35.5734 27.536 35.9262 28.0944 35.6715C28.4994 35.4864 28.6386 35.14 28.6433 34.7255C28.6512 33.9646 28.6512 33.2022 28.6433 32.4413C28.6418 32.2736 28.6924 32.1692 28.8221 32.0601C29.4216 31.5602 29.6083 30.7597 29.3156 30.0258C29.0673 29.4057 28.3507 28.9501 27.6705 28.9833C26.9143 29.0197 26.2974 29.4958 26.0649 30.2251C25.8418 30.9227 26.0759 31.6551 26.6786 32.1186C26.7656 32.1866 26.8084 32.2578 26.8068 32.3654C26.8052 32.7782 26.8068 33.1927 26.8068 33.6056H26.8052Z" fill="#FF571D"></path><path d="M31.486 25.4653C31.1776 25.4653 30.8675 25.4558 30.559 25.4684C30.404 25.4748 30.3787 25.421 30.3771 25.2802C30.3724 24.7946 30.3977 24.3089 30.3059 23.8264C29.9516 21.9456 27.6531 21.0724 26.1409 22.2493C25.4069 22.8204 25.0351 23.5639 25.0715 24.5035C25.081 24.7661 25.0683 25.0287 25.0747 25.2913C25.0778 25.4147 25.0446 25.4684 24.9101 25.4669C24.279 25.4621 23.6478 25.4653 23.0166 25.4637C22.947 25.4637 22.8679 25.4811 22.8648 25.3656C22.8489 24.5256 22.811 23.6857 23.0831 22.8678C23.7222 20.9474 25.5619 19.5111 27.5835 19.4842C29.6653 19.4573 31.1697 20.4491 32.1172 22.2983C32.4621 22.9706 32.5696 23.6904 32.5886 24.4307C32.5965 24.7202 32.5839 25.0097 32.5918 25.2976C32.5949 25.4226 32.5649 25.4684 32.4304 25.4653C32.1156 25.4558 31.7992 25.4621 31.4845 25.4621L31.486 25.4653Z" fill="#FF571D"></path><path d="M22.7413 2.11337C22.7413 1.50277 22.7413 0.89216 22.7413 0.281553C22.7413 0.224605 22.7145 0.148675 22.7746 0.117037C22.8505 0.0790716 22.8885 0.162911 22.9312 0.205622C24.2615 1.53124 25.5919 2.85686 26.9191 4.18564C26.965 4.23151 27.0615 4.28214 27.0219 4.3549C26.9903 4.41501 26.889 4.39761 26.8179 4.39761C25.7612 4.39919 24.7029 4.39761 23.6462 4.39919C23.488 4.39919 23.3314 4.40394 23.1732 4.39919C22.8695 4.39287 22.7413 4.26948 22.7398 3.96418C22.735 3.34724 22.7398 2.73031 22.7398 2.11179C22.7398 2.11179 22.7398 2.11179 22.7413 2.11179V2.11337Z" fill="#FF571D"></path><path d="M27.0833 23.1509C27.145 23.2157 27.1292 23.2853 27.1292 23.3486C27.1324 23.9988 27.1308 24.6489 27.1371 25.2975C27.1371 25.4272 27.0928 25.4778 26.9647 25.4668C26.7638 25.4494 26.5028 25.5522 26.3794 25.4209C26.2829 25.3181 26.3525 25.0602 26.3509 24.8704C26.3509 24.6932 26.3509 24.516 26.3604 24.3389C26.3889 23.8153 26.6404 23.4261 27.0818 23.1509H27.0833Z" fill="#FF571D"></path><path d="M20.8683 10.453C20.8493 11.3231 20.93 12.4162 20.8367 13.5045C20.6215 16.0134 19.5838 18.1141 17.6492 19.7498C16.5166 20.7068 15.2083 21.2984 13.7688 21.618C13.6312 21.648 13.4952 21.6464 13.3591 21.6164C10.2507 20.9124 8.10726 19.0569 6.89238 16.1352C6.38459 14.9139 6.24539 13.6152 6.25646 12.2959C6.2707 10.4499 6.2707 8.60381 6.26912 6.75934C6.26912 6.61064 6.36245 6.58691 6.45578 6.54737C7.22616 6.21675 7.99811 5.88614 8.77007 5.55711C10.3029 4.90379 11.8358 4.25363 13.3654 3.59557C13.5173 3.53071 13.6454 3.53862 13.7957 3.6019C16.0989 4.58741 18.4037 5.56976 20.7101 6.54737C20.8588 6.61064 20.8715 6.71346 20.8715 6.84634C20.8699 7.97581 20.8715 9.10685 20.8715 10.4562L20.8683 10.453ZM13.579 16.4927C13.579 16.4927 13.579 16.4863 13.579 16.4848C14.9189 16.4848 16.2603 16.4879 17.6001 16.4832C17.9403 16.4832 18.0858 16.2886 18.0146 15.9532C17.9023 15.4201 17.6935 14.925 17.385 14.4789C15.7747 12.152 12.5777 11.7154 10.5038 13.631C9.80304 14.278 9.31108 15.0579 9.1086 16.0039C9.06905 16.1858 9.12125 16.3313 9.27153 16.4341C9.38543 16.5132 9.52463 16.4942 9.65435 16.4942C10.9626 16.4942 12.2692 16.4942 13.5774 16.4942L13.579 16.4927ZM13.617 11.6458C14.873 11.641 15.8727 10.6128 15.8727 9.32357C15.8727 8.07546 14.8255 7.03775 13.5711 7.04249C12.3246 7.04724 11.2505 8.09761 11.2584 9.30459C11.2679 10.6191 12.3072 11.6505 13.617 11.6458Z" fill="#FF571D"></path></g><defs><clipPath id="clip0_90_957"><rect width="34.5768" height="38" fill="white"></rect></clipPath></defs></svg>