<svg xmlns="http://www.w3.org/2000/svg" width="46" height="43" viewBox="0 0 46 43" fill="none"><g clip-path="url(#clip0_25_727)"><path d="M16.7627 31.0743C16.9146 31.3162 17.0248 31.5126 17.1539 31.6959C18.5098 33.6401 20.2018 35.1988 22.3952 36.1737C22.6307 36.2795 22.6952 36.4137 22.6952 36.6555C22.6934 38.2085 22.7142 39.7616 22.682 41.3147C22.6782 41.4583 22.7104 41.53 22.8776 41.5244C23.2555 41.5112 23.6353 41.5055 24.0132 41.5187C24.2126 41.5263 24.2467 41.4488 24.2467 41.2731C24.2392 40.1829 24.243 39.0928 24.243 38.0026C24.243 37.6965 24.2562 37.3905 24.2505 37.0863C24.2486 36.9257 24.298 36.869 24.4594 36.9181C25.3045 37.1675 26.1743 37.2412 27.0497 37.2903C28.0239 37.347 28.9886 37.2658 29.9457 37.1052C30.1489 37.0712 30.2002 37.1089 30.1983 37.3149C30.1907 38.6167 30.1945 39.9184 30.1945 41.2221C30.1945 41.5206 30.1945 41.5187 30.5059 41.5187C30.7737 41.5187 31.0414 41.4904 31.3073 41.5508C31.6643 41.6321 31.915 41.9495 31.8979 42.3009C31.8808 42.6334 31.6017 42.932 31.2503 42.9773C31.0946 42.9981 30.9351 43 30.7775 43C21.0849 42.9962 11.3904 42.9924 1.69777 42.9886C1.35214 42.9886 1.00462 43.0283 0.659001 42.9792C0.357057 42.9376 0.153861 42.7638 0.0589103 42.4785C-0.0341418 42.2008 0.0437181 41.9514 0.245014 41.7417C0.400734 41.5773 0.609627 41.5263 0.826115 41.5187C1.054 41.5112 1.28378 41.5093 1.51166 41.5225C1.67118 41.5319 1.71486 41.4715 1.71296 41.3222C1.70726 40.6477 1.71296 39.9732 1.71296 39.2987C1.71296 35.5011 1.71296 31.7054 1.71296 27.9077C1.71296 26.9725 1.93135 26.7571 2.86756 26.759C4.01837 26.7609 5.17108 26.759 6.32188 26.7571C6.44722 26.7571 6.57445 26.7552 6.69979 26.7571C7.38723 26.776 7.66829 27.0632 7.66829 27.749C7.66829 32.2363 7.66829 36.7235 7.66829 41.2107C7.66829 41.5735 7.6474 41.5225 7.98543 41.5206C8.32535 41.5168 8.66338 41.5112 9.0033 41.5168C9.16472 41.5206 9.21979 41.4715 9.21979 41.3014C9.21599 34.8077 9.21599 28.314 9.21789 21.8202C9.21789 21.7031 9.21789 21.584 9.22739 21.4669C9.26157 21.1004 9.51224 20.8378 9.87875 20.8056C10.137 20.783 10.3991 20.7867 10.6592 20.7867C11.7626 20.7848 12.8678 20.783 13.9711 20.783C14.1288 20.783 14.2864 20.783 14.444 20.7943C14.8504 20.8207 15.0973 21.0437 15.1656 21.4405C15.1808 21.533 15.1827 21.6275 15.1827 21.722C15.1827 28.0683 15.1827 34.4147 15.1827 40.7611C15.1827 40.95 15.1827 41.1371 15.1713 41.326C15.1637 41.4658 15.2131 41.5244 15.3593 41.5225C15.7619 41.5149 16.1645 41.5112 16.5652 41.5187C16.7684 41.5225 16.7437 41.3883 16.7437 41.2655C16.7437 40.2528 16.7437 39.242 16.7437 38.2293C16.7437 35.8922 16.7456 33.555 16.7475 31.216C16.7475 31.1933 16.7513 31.1707 16.7608 31.0762L16.7627 31.0743Z" fill="#FF571D"></path><path d="M38.5635 31.4618C38.7686 31.7697 38.7667 31.7678 38.4989 32.0286C37.2607 33.2359 36.0207 34.4432 34.7863 35.6561C34.6344 35.8054 34.5584 35.83 34.4274 35.6297C34.1407 35.1895 33.8235 34.7681 33.5311 34.3317C33.4418 34.1994 33.3735 34.1711 33.231 34.2561C31.8163 35.1026 30.2742 35.5692 28.643 35.7525C27.0725 35.9282 25.5476 35.6977 24.0588 35.1914C21.9622 34.4791 20.255 33.2302 18.9124 31.4807C18.0768 30.3924 17.4255 29.2134 17.0741 27.8814C16.381 25.2722 16.5215 22.7235 17.6951 20.2711C18.3142 18.9806 19.1669 17.8489 20.2227 16.8683C20.9083 16.2316 21.6622 15.7007 22.4883 15.2661C22.6364 15.1887 22.6364 15.0867 22.6345 14.9582C22.6288 13.6885 22.6212 12.417 22.6193 11.1473C22.6174 9.5716 22.6288 7.99399 22.6136 6.41826C22.6098 5.91569 22.7636 5.53026 23.1339 5.17128C24.5962 3.75237 26.0356 2.31079 27.4751 0.871091C27.7087 0.63681 27.9688 0.531006 28.2955 0.531006C33.8881 0.534785 39.4788 0.531006 45.0714 0.534785C45.7095 0.534785 45.9905 0.838972 45.9905 1.51914C45.9905 8.40587 45.9887 15.2926 45.9887 22.1793C45.9887 24.9794 45.9943 27.7794 45.9981 30.5794C45.9981 31.1557 45.7133 31.458 45.1341 31.4599C42.973 31.4599 40.8138 31.4561 38.6527 31.4542C38.6299 31.4542 38.6091 31.4599 38.5616 31.4655L38.5635 31.4618ZM44.4922 16.0276H44.496C44.496 13.9096 44.496 11.7916 44.496 9.67363C44.496 7.2099 44.4903 4.74806 44.496 2.28433C44.496 2.08973 44.4409 2.03305 44.2435 2.03494C43.1154 2.04439 41.9874 2.0425 40.8594 2.0425C36.9873 2.0425 33.1152 2.0425 29.2431 2.0425C28.8405 2.0425 28.8386 2.0425 28.8386 2.45249C28.8386 3.58988 28.8386 4.72728 28.8386 5.86468C28.8386 6.39559 28.6278 6.61853 28.0942 6.66199C28.0315 6.66765 27.9688 6.66954 27.9043 6.66954C26.7611 6.66388 25.6178 6.65821 24.4746 6.65065C24.148 6.64876 24.1499 6.64687 24.1499 6.96617C24.1499 9.42046 24.148 11.8766 24.1404 14.3309C24.1404 14.5293 24.1784 14.5614 24.374 14.5066C25.8476 14.0853 27.3384 13.8605 28.8785 14.0702C30.4357 14.2799 31.9017 14.7503 33.2614 15.5288C35.1946 16.6359 36.6246 18.24 37.557 20.2257C38.9908 23.2808 38.9984 26.3888 37.5931 29.4798C37.3671 29.9786 37.3614 29.9692 37.9045 29.9673C40.0105 29.9597 42.1165 29.9503 44.2207 29.9559C44.4334 29.9559 44.4998 29.9314 44.4998 29.7028C44.4922 25.1456 44.4941 20.5885 44.4941 16.0313L44.4922 16.0276ZM35.5706 24.7885C35.5763 20.6282 32.0764 17.0932 27.8511 17.0251C23.2764 16.9515 19.8961 20.4751 19.7119 24.5202C19.5011 29.1681 23.3276 32.7352 27.5245 32.7768C31.7593 32.8183 35.5611 29.5875 35.5706 24.7885Z" fill="#FF571D"></path><path d="M8.61401 5.6227C8.61401 6.59383 8.61021 7.56685 8.61781 8.53798C8.61781 8.7477 8.56084 8.91586 8.41651 9.06889C7.21633 10.3348 6.06362 11.6441 4.88053 12.927C4.01838 13.8622 3.12964 14.7748 2.30546 15.7459C2.17823 15.8952 2.10416 15.9103 1.96364 15.7516C0.991337 14.6425 0.415933 13.3521 0.142474 11.9143C-0.734874 7.32312 2.58841 3.24399 6.67701 2.51281C7.24481 2.41078 7.81832 2.38433 8.39562 2.37866C8.58173 2.37866 8.61781 2.45046 8.61591 2.61294C8.61021 3.61619 8.61401 4.61945 8.61401 5.6227Z" fill="#FF571D"></path><path d="M12.9893 10.0382C14.03 10.0382 15.0707 10.042 16.1113 10.0345C16.2822 10.0345 16.3278 10.0874 16.3259 10.248C16.2784 13.526 14.8618 16.0313 11.9753 17.6259C10.5529 18.4119 8.97671 18.7293 7.33786 18.5404C5.92119 18.3779 4.62036 17.8885 3.45056 17.0667C3.30623 16.9665 3.31193 16.9004 3.42207 16.7795C4.76658 15.3133 6.10539 13.8453 7.448 12.3773C8.07468 11.6933 8.71275 11.0188 9.32613 10.3254C9.51793 10.1081 9.72872 10.0326 10.006 10.0345C10.9992 10.0439 11.9924 10.0382 12.9874 10.0382H12.9893Z" fill="#FF571D"></path><path d="M42.8305 42.9963C41.955 42.9963 41.222 42.6694 40.6086 42.0573C38.9774 40.4287 37.3461 38.8019 35.713 37.1752C35.6313 37.0939 35.5572 37.0486 35.6883 36.9201C36.9511 35.6807 38.2045 34.4318 39.4616 33.1848C39.5965 33.0526 39.7351 32.9241 39.8642 32.7862C39.9516 32.6917 40.0009 32.7068 40.0883 32.7937C41.655 34.3525 43.2369 35.8961 44.7903 37.468C45.3923 38.0764 45.8575 38.7377 45.962 39.6106C46.112 40.867 45.605 41.8098 44.5757 42.4918C44.0535 42.8357 43.461 43.0001 42.8305 42.9982V42.9963Z" fill="#FF571D"></path><path d="M14.4117 8.54002C13.0634 8.54002 11.7151 8.53624 10.3667 8.54569C10.1617 8.54569 10.1237 8.48523 10.1237 8.2944C10.1294 5.61151 10.1275 2.92861 10.1199 0.247607C10.1199 0.0700074 10.1579 0.000100971 10.3535 0.00199033C12.4974 0.0322201 14.4344 0.642484 16.0163 2.1143C17.8128 3.78638 18.7471 5.85712 18.7072 8.33219C18.7035 8.55513 18.58 8.54191 18.4338 8.54191C17.0931 8.54191 15.7524 8.54191 14.4117 8.54191V8.54002Z" fill="#FF571D"></path><path d="M34.3153 11.5326C32.1086 11.5326 29.902 11.5326 27.6934 11.5326C27.344 11.5326 27.061 11.4174 26.911 11.0792C26.7306 10.6692 26.9395 10.2119 27.3725 10.0835C27.5168 10.04 27.6649 10.0249 27.8149 10.0249C32.158 10.0249 36.5011 10.0249 40.8441 10.0249C40.9619 10.0249 41.0796 10.0325 41.1954 10.0627C41.579 10.1628 41.8145 10.4613 41.7898 10.8298C41.767 11.185 41.4537 11.4967 41.0777 11.5307C41.0074 11.5364 40.9353 11.5326 40.865 11.5326C38.6811 11.5326 36.4992 11.5326 34.3153 11.5326Z" fill="#FF571D"></path><path d="M37.1544 7.82961C35.9561 7.82961 34.7597 7.82961 33.5615 7.82961C33.3735 7.82961 33.1836 7.84094 33.0012 7.77481C32.6632 7.6539 32.4448 7.33459 32.4714 6.9964C32.498 6.66198 32.743 6.40692 33.1114 6.34646C33.2424 6.32567 33.3773 6.31812 33.5102 6.31812C35.8897 6.31812 38.2691 6.31812 40.6486 6.31812C40.829 6.31812 41.0113 6.32567 41.1898 6.35779C41.5525 6.42203 41.8032 6.75078 41.7918 7.12109C41.7804 7.48763 41.5241 7.76537 41.148 7.81449C41.055 7.82772 40.96 7.82772 40.8651 7.82772C39.6288 7.82772 38.3907 7.82772 37.1544 7.82772V7.82961Z" fill="#FF571D"></path><path d="M37.1221 15.2246C35.9314 15.2246 34.7407 15.2265 33.5501 15.2246C33.2538 15.2246 32.9462 15.2529 32.7126 14.9979C32.517 14.7844 32.4334 14.5444 32.517 14.2629C32.6006 13.9833 32.7981 13.8094 33.0829 13.7547C33.2519 13.7225 33.4266 13.7131 33.5994 13.7131C36.0036 13.7112 38.4097 13.7112 40.8138 13.7131C40.9468 13.7131 41.0835 13.7225 41.2126 13.7509C41.581 13.8321 41.8089 14.1495 41.7899 14.5312C41.7728 14.858 41.488 15.166 41.1405 15.2057C40.9524 15.2284 40.7625 15.2246 40.5745 15.2246C39.4237 15.2246 38.2729 15.2246 37.1202 15.2246H37.1221Z" fill="#FF571D"></path><path d="M39.777 17.4181C40.1872 17.4181 40.5954 17.4125 41.0056 17.4181C41.4747 17.4276 41.7899 17.7242 41.7975 18.1437C41.8051 18.5725 41.5336 18.8711 41.0569 18.8843C40.1834 18.907 39.3098 18.9088 38.4362 18.8956C37.9596 18.8881 37.6558 18.5839 37.6482 18.1644C37.6387 17.7601 37.9558 17.454 38.4306 17.4219C38.6584 17.4068 38.8863 17.4162 39.1161 17.4162C39.3364 17.4162 39.5567 17.4162 39.777 17.4162V17.4181Z" fill="#FF571D"></path><path d="M40.4416 22.6177C40.2137 22.6196 39.9858 22.6403 39.7579 22.6063C39.3819 22.5478 39.0876 22.219 39.099 21.8657C39.1103 21.4992 39.4009 21.1761 39.7769 21.1364C40.2004 21.0911 40.6277 21.0911 41.0511 21.1251C41.5126 21.161 41.7937 21.4595 41.7937 21.8789C41.7937 22.2776 41.5088 22.5704 41.0549 22.6158C40.8518 22.6347 40.6467 22.6196 40.4416 22.6196V22.6177Z" fill="#FF571D"></path><path d="M40.4719 24.8073C40.6865 24.8073 40.8745 24.7998 41.0625 24.8073C41.4727 24.83 41.7671 25.1115 41.7955 25.4969C41.824 25.8748 41.5924 26.2073 41.1917 26.2697C40.6941 26.3471 40.1871 26.3471 39.6914 26.264C39.3363 26.2054 39.0951 25.8767 39.1084 25.5404C39.1217 25.1833 39.3572 24.9207 39.7218 24.8394C39.9801 24.7828 40.2384 24.8205 40.4719 24.8054V24.8073Z" fill="#FF571D"></path><path d="M31.425 22.8972C31.425 23.2392 31.2579 23.4319 31.0661 23.6152C30.3141 24.3294 29.5602 25.0435 28.8101 25.7596C28.3391 26.2112 27.8719 26.6665 27.4029 27.12C27.3288 27.1917 27.2548 27.2617 27.1769 27.3278C26.799 27.6509 26.4477 27.6565 26.0831 27.3146C25.6406 26.9008 25.219 26.4662 24.7898 26.0411C24.5999 25.8522 24.4081 25.667 24.2239 25.4724C23.7966 25.0265 23.7606 24.6109 24.1119 24.284C24.4708 23.9515 24.8753 24.0157 25.3007 24.4578C25.6824 24.8527 26.0812 25.2325 26.461 25.6311C26.5939 25.7728 26.6718 25.7502 26.799 25.6292C27.8663 24.6071 28.9411 23.5925 30.014 22.576C30.1052 22.4891 30.2001 22.4041 30.3065 22.338C30.5458 22.1906 30.7983 22.1736 31.0452 22.3172C31.2864 22.457 31.4155 22.6724 31.4269 22.8972H31.425Z" fill="#FF571D"></path></g><defs><clipPath id="clip0_25_727"><rect width="46" height="43" fill="white"></rect></clipPath></defs></svg>