<svg xmlns="http://www.w3.org/2000/svg" width="40" height="44" viewBox="0 0 40 44" fill="none"><g clip-path="url(#clip0_25_729)"><path d="M27.6858 38.1321C28.1602 38.6254 28.3062 39.1629 28.0467 39.7725C27.7547 40.4584 26.9113 40.7873 26.2261 40.4905C25.7963 40.306 25.4192 40.0172 24.9813 39.7846C24.9934 39.8888 25.0583 39.933 25.1029 39.9851C25.5408 40.5146 25.553 41.2927 25.1272 41.8021C24.6853 42.3275 23.927 42.4518 23.3026 42.0909C22.9742 41.8983 22.6498 41.6978 22.3092 41.5133C22.516 41.774 22.6822 42.0507 22.7349 42.3796C22.8201 42.9091 22.6579 43.3543 22.2281 43.6752C21.7902 44.0041 21.2834 44.1204 20.7725 43.8557C20.2007 43.5589 19.6533 43.2139 19.0897 42.8971C18.9843 42.8369 19.0249 42.7807 19.0614 42.7125C19.4628 41.9304 19.4628 41.1403 19.0532 40.3661C18.737 39.7685 18.2464 39.3514 17.5854 39.1508C17.4516 39.1107 17.3908 39.0546 17.3786 38.9222C17.2975 37.9917 16.2717 36.9649 15.2864 36.8726C14.9701 36.8405 14.8485 36.7001 14.7066 36.4555C14.2119 35.5811 13.0603 35.0717 12.0548 35.2642C11.9129 35.2923 11.8318 35.2642 11.7385 35.1519C10.6153 33.8363 8.71772 33.8845 7.66754 35.2562C7.63105 35.3043 7.59455 35.3525 7.55806 35.4046C7.35803 35.68 7.11474 35.7161 6.82821 35.5129C6.51599 35.2883 6.20783 35.0597 5.88751 34.8471C5.73343 34.7468 5.7091 34.6626 5.80641 34.4981C6.45517 33.4072 7.09582 32.3122 7.73647 31.2172C8.74205 29.4925 9.74357 27.7678 10.7735 26.0591C10.8586 25.9187 10.9113 25.8746 11.0695 25.9869C11.556 26.3359 12.0872 26.6166 12.6508 26.8332C12.8373 26.9054 12.8373 26.9616 12.7441 27.122C12.3548 27.8239 11.9453 28.5138 11.6655 29.2679C11.1992 30.5193 11.8682 31.6945 13.1982 31.9352C14.5403 32.1798 15.7486 31.8108 16.8677 31.1009C17.5854 30.6436 18.2139 30.0781 18.7451 29.4163C18.8424 29.2919 18.9113 29.2879 19.0451 29.3682C21.259 30.6958 23.4405 32.0795 25.6341 33.4433C27.26 34.454 28.8779 35.4728 30.4998 36.4916C30.7796 36.6681 31.0593 36.8445 31.2458 37.1293C31.5905 37.6507 31.5621 38.2724 31.1688 38.7457C30.7674 39.227 30.1308 39.4075 29.5672 39.1629C29.032 38.9302 28.5494 38.5933 28.0426 38.3005C27.9412 38.2403 27.8642 38.1321 27.6898 38.1361L27.6858 38.1321Z" fill="#FF571D"></path><path d="M20.0345 23.3477C21.1861 23.3437 22.0822 23.6405 22.9661 23.9854C24.2717 24.4908 25.5976 24.94 26.9965 25.1286C27.848 25.2449 28.7036 25.285 29.551 25.0925C29.697 25.0604 29.7456 25.1125 29.7983 25.2168C30.5566 26.7329 31.3189 28.2491 32.073 29.7652C32.588 30.804 33.0948 31.8509 33.6138 32.8857C33.6949 33.0461 33.622 33.1023 33.5044 33.1705C32.7056 33.6558 32.0366 34.2775 31.4729 35.0195C31.4405 35.0637 31.4081 35.1038 31.3756 35.1479C31.2134 35.3778 31.0161 35.4206 30.7836 35.2762C29.2874 34.3497 27.7953 33.4192 26.295 32.4966C26.1369 32.4004 26.1572 32.3643 26.295 32.276C26.9965 31.8148 27.5398 31.2131 27.9413 30.4832C28.0305 30.3227 28.0143 30.2385 27.8358 30.1743C27.5844 30.0821 27.3331 29.9818 27.0857 29.8735C26.9762 29.8254 26.9316 29.8575 26.8749 29.9577C26.4775 30.6476 25.9544 31.2132 25.257 31.6183C25.1111 31.7025 25.0056 31.7025 24.8597 31.6142C22.812 30.3348 20.7644 29.0633 18.7167 27.7838C18.5505 27.6795 18.4937 27.6996 18.3924 27.868C17.6057 29.1997 16.5515 30.2345 15.031 30.7158C14.4876 30.8883 13.9281 30.9444 13.3645 30.8281C12.7806 30.7038 12.5049 30.2826 12.7157 29.7732C13.5551 27.7477 14.6904 25.9227 16.4907 24.5831C17.5936 23.7648 18.8465 23.3718 20.0345 23.3477Z" fill="#FF571D"></path><path d="M19.8561 18.33C16.0852 18.2458 13.1698 15.3579 13.1982 11.5516C13.2225 8.44308 15.8987 5.12603 19.7953 5.14609C23.996 5.17015 26.5383 8.43506 26.518 11.8243C26.4977 15.4261 23.481 18.33 19.8561 18.3341V18.33ZM18.4329 15.0732C18.7491 15.0691 19.0168 14.9488 19.2398 14.7282C19.4749 14.4956 19.7061 14.263 19.9412 14.0303C21.2266 12.7548 22.5119 11.4794 23.8013 10.2119C23.9149 10.0996 23.9189 10.0434 23.8013 9.92713C23.3634 9.51801 22.9336 9.10087 22.516 8.6717C22.3741 8.52731 22.297 8.54335 22.1713 8.6717C21.5875 9.2573 20.9914 9.83487 20.4035 10.4165C19.8074 11.0061 19.2154 11.5917 18.6275 12.1853C18.4937 12.3176 18.4085 12.3738 18.2545 12.1933C18.0233 11.9286 17.7517 11.696 17.5043 11.4473C17.4111 11.351 17.3462 11.343 17.2448 11.4473C16.811 11.8925 16.369 12.3297 15.923 12.7588C15.8135 12.8631 15.8013 12.9353 15.9068 13.0396C16.4825 13.6052 17.0502 14.1707 17.63 14.7362C17.853 14.9528 18.1328 15.0571 18.445 15.0611L18.4329 15.0732Z" fill="#FF571D"></path><path d="M17.6381 0C21.259 0 24.8758 0.00401094 28.4926 0C28.8575 0 29.1414 0.116317 29.3968 0.373017C31.0228 1.99344 32.6528 3.60984 34.2909 5.21823C34.5626 5.48295 34.6802 5.77976 34.6802 6.15679C34.672 10.1276 34.672 14.0984 34.6802 18.0693C34.6802 18.2899 34.6274 18.3581 34.4044 18.342C34.0801 18.322 33.7557 18.326 33.4313 18.342C33.2448 18.35 33.184 18.3059 33.188 18.1094C33.2002 17.2551 33.1921 16.4007 33.1921 15.5424C33.1921 12.6505 33.1921 9.7546 33.1961 6.86272C33.1961 6.64613 33.1312 6.60602 32.9285 6.60602C31.8094 6.61404 30.6903 6.61404 29.5712 6.60602C28.9022 6.60602 28.3994 6.32124 28.1196 5.69954C28.0304 5.50301 28.002 5.29043 28.002 5.07384C28.002 3.95077 27.9979 2.82771 28.0061 1.70866C28.0061 1.51613 27.9533 1.47201 27.7628 1.47201C20.7643 1.47603 13.7658 1.47603 6.76734 1.47201C6.56865 1.47201 6.51189 1.51613 6.51189 1.72069C6.52 7.40018 6.51594 13.0837 6.51594 18.7632C6.51594 18.9691 6.40917 19.072 6.19562 19.072C5.86313 19.072 5.53064 19.068 5.20221 19.072C5.0684 19.072 5.01974 19.0319 5.03596 18.9036C5.04002 18.8594 5.03596 18.8113 5.03596 18.7672C5.03596 13.0797 5.03596 7.39216 5.03596 1.70465C5.03596 1.49608 5.05218 1.29152 5.10895 1.09098C5.2833 0.433181 5.76581 0.0721969 6.54838 0.0160438C6.66191 0.00802188 6.7795 0.00802188 6.89709 0.00802188C10.4774 0.00802188 14.0578 0.00802188 17.6381 0.00802188V0Z" fill="#FF571D"></path><path d="M3.94926 34.7829C3.78707 34.7869 3.64516 34.7347 3.51135 34.6585C2.48145 34.0729 1.45154 33.4913 0.429749 32.8977C-0.0324908 32.629 -0.11764 32.284 0.158082 31.7867C0.733855 30.7679 1.32179 29.7571 1.90973 28.7464C2.82205 27.1821 3.73436 25.6179 4.65073 24.0536C4.94267 23.5522 5.24678 23.0549 5.55088 22.5615C5.84283 22.0882 6.1672 22 6.65783 22.2527C7.66746 22.7781 8.65681 23.3396 9.63806 23.9132C10.2219 24.2541 10.299 24.583 9.9665 25.1686C8.2189 28.245 6.41049 31.2893 4.63046 34.3457C4.47638 34.6064 4.26553 34.7748 3.94926 34.7788V34.7829Z" fill="#FF571D"></path><path d="M34.3923 20.9291C34.7085 20.9331 34.9316 21.0896 35.0694 21.3623C35.5479 22.3169 36.0304 23.2715 36.5088 24.2261C37.6077 26.4241 38.7065 28.6221 39.8054 30.8241C39.85 30.9123 39.8905 31.0046 39.927 31.0928C40.0932 31.514 39.9838 31.8469 39.5742 32.0555C38.9174 32.3924 38.2524 32.7052 37.5874 33.0301C37.1576 33.2387 36.7319 33.4473 36.3021 33.6518C35.6979 33.9406 35.3492 33.8203 35.0491 33.2186C34.4004 31.9151 33.7476 30.6075 33.0988 29.304C32.2108 27.5191 31.3066 25.7463 30.4551 23.9453C30.4024 23.833 30.3497 23.7247 30.3051 23.6124C30.1551 23.2274 30.2605 22.9065 30.6214 22.6939C30.8282 22.5736 31.0431 22.4773 31.258 22.369C32.1541 21.9278 33.0542 21.4906 33.9503 21.0535C34.0882 20.9853 34.2301 20.9211 34.3882 20.9251L34.3923 20.9291ZM37.1657 29.8695C37.1657 29.8695 37.1333 29.8695 37.113 29.8815C36.7602 30.054 36.4115 30.2305 36.0628 30.403C35.9371 30.4671 35.9655 30.5473 36.0182 30.6476C36.1804 30.9685 36.3467 31.2854 36.4886 31.6143C36.5494 31.7506 36.6021 31.7907 36.744 31.7226C37.0806 31.5541 37.4212 31.3937 37.7618 31.2332C37.8712 31.1811 37.855 31.1169 37.8145 31.0327C37.6361 30.6797 37.4617 30.3227 37.2874 29.9658C37.263 29.9216 37.259 29.8575 37.1698 29.8655L37.1657 29.8695Z" fill="#FF571D"></path><path d="M15.0876 41.5172C14.52 42.0186 13.8915 42.1509 13.2508 41.7178C12.6345 41.3006 12.5088 40.6869 12.7075 39.977C12.1844 40.7632 11.5154 41.2084 10.595 40.715C9.8408 40.3099 9.74754 39.612 10.0273 38.7818C9.73132 39.0745 9.44749 39.247 9.09879 39.2831C8.54329 39.3393 8.10132 39.1307 7.781 38.6855C7.47284 38.2603 7.42012 37.787 7.66341 37.3218C7.95535 36.7683 8.32028 36.2508 8.73791 35.7776C9.17583 35.2802 9.86513 35.192 10.449 35.5048C10.9721 35.7856 11.2721 36.4835 11.1262 37.0811C11.1059 37.1613 11.0532 37.2375 11.0937 37.3539C11.3167 36.9929 11.5641 36.684 11.9574 36.5236C12.3547 36.3632 12.744 36.3872 13.1211 36.5717C13.7658 36.8846 13.9969 37.4983 13.8104 38.4087C14.1267 38.136 14.4632 37.9756 14.8606 37.9756C15.262 37.9756 15.6188 38.1119 15.8986 38.4007C16.1905 38.7055 16.3162 39.0705 16.2959 39.4877C16.2757 39.9008 16.0081 40.2016 15.8053 40.5345C15.9026 40.5626 15.9351 40.4864 15.9837 40.4503C16.4865 40.0693 17.2002 40.0653 17.6827 40.4423C18.1855 40.8313 18.3679 41.5453 18.1125 42.1108C17.9462 42.4838 17.707 42.8168 17.4353 43.1176C16.9853 43.6109 16.3041 43.7032 15.7283 43.3743C15.1363 43.0374 14.8727 42.3635 15.0674 41.6977C15.0836 41.6496 15.1241 41.6055 15.0917 41.5252L15.0876 41.5172Z" fill="#FF571D"></path></g><defs><clipPath id="clip0_25_729"><rect width="40" height="44" fill="white"></rect></clipPath></defs></svg>