<svg xmlns="http://www.w3.org/2000/svg" width="47" height="38" viewBox="0 0 47 38" fill="none"><g clip-path="url(#clip0_25_676)"><path d="M17.2019 37.9946C12.0013 37.9946 6.8008 37.991 1.60027 38C1.01465 38 0.561633 37.8083 0.220946 37.3473C0.0717809 37.1466 0.0349499 36.9079 0.00548512 36.6692C-0.00188107 36.6095 -3.95241e-05 36.5499 -3.95241e-05 36.4902C-3.95241e-05 28.9412 -3.95241e-05 21.394 -3.95241e-05 13.845C-3.95241e-05 13.4743 0.0920379 13.1326 0.335122 12.8415C0.615038 12.5051 0.990714 12.3406 1.41979 12.3406C4.67749 12.3334 7.93703 12.3388 11.1947 12.3334C11.3623 12.3334 11.4212 12.4256 11.4802 12.5413C11.9903 13.5629 12.5041 14.5845 13.0105 15.6097C13.3567 16.3095 13.7269 16.9857 14.4432 17.4052C14.8723 17.6566 15.3309 17.803 15.8281 17.8283C16.1338 17.8446 16.4395 17.8392 16.7452 17.8392C22.4576 17.8392 28.172 17.8392 33.8845 17.8392C33.8992 17.8392 33.9158 17.8392 33.9305 17.8392C34.3872 17.8392 34.4203 17.8735 34.4203 18.3292C34.4203 24.0538 34.4203 29.7802 34.4203 35.5048C34.4203 35.8574 34.4259 36.2099 34.4259 36.5625C34.4259 37.387 33.8329 37.9819 32.9895 37.9946C32.5696 38 32.1479 37.9946 31.728 37.9946C26.8866 37.9946 22.0451 37.9946 17.2037 37.9946H17.2019ZM27.8331 33.1686C27.8331 33.1686 27.846 33.1686 27.8534 33.1686C27.8534 33.3187 27.8479 33.4688 27.8534 33.6189C27.8847 34.3602 28.4095 34.9045 29.1185 34.9424C29.8865 34.9822 30.5089 34.4886 30.6175 33.7491C30.6728 33.3748 30.6507 33.0005 30.6157 32.6262C30.5457 31.8758 29.9472 31.3316 29.2161 31.3533C28.4445 31.375 27.8644 31.9391 27.8331 32.6967C27.8276 32.854 27.8331 33.0113 27.8331 33.1686ZM26.0689 33.1144C26.0542 32.8992 26.0947 32.637 26.0229 32.3785C25.8387 31.7239 25.2108 31.2773 24.5681 31.3569C23.8038 31.4527 23.3176 31.9807 23.3176 32.7184C23.3176 33.0186 23.3176 33.3187 23.3176 33.6189C23.3213 34.2571 23.8186 34.8177 24.4815 34.9316C25.0984 35.0365 25.7411 34.673 25.9732 34.0944C26.0947 33.7906 26.0671 33.476 26.0689 33.1162V33.1144Z" fill="#FF571D"></path><path d="M40.7093 21.2801C40.7093 24.3268 40.7093 27.3736 40.7093 30.4203C40.7093 31.2105 40.1881 31.7674 39.387 31.7963C38.7222 31.8198 38.0574 31.8089 37.3908 31.8216C37.2048 31.8252 37.1846 31.7384 37.1846 31.5865C37.1882 29.2757 37.1846 26.9649 37.1882 24.6523C37.1882 22.4464 37.1809 20.2404 37.203 18.0345C37.2195 16.4325 35.7684 15.0981 34.1534 15.1107C30.3598 15.1415 26.5662 15.1234 22.7726 15.1234C20.5775 15.1234 18.3823 15.1234 16.1872 15.1288C15.9607 15.1288 15.8226 15.0619 15.7195 14.854C15.1983 13.7872 14.655 12.7312 14.1357 11.6626C13.8282 11.0279 13.4562 10.4565 12.8319 10.0768C12.366 9.79296 11.8633 9.63746 11.3145 9.63746C9.72338 9.63384 8.13228 9.63023 6.54119 9.63746C6.33309 9.63746 6.28337 9.57236 6.28705 9.37889C6.29994 8.77136 6.28153 8.16382 6.30178 7.55628C6.32572 6.82037 6.76401 6.31409 7.45459 6.19294C7.57429 6.17124 7.69768 6.17486 7.82106 6.17486C10.9425 6.17486 14.0621 6.18028 17.1835 6.16943C17.5187 6.16943 17.6991 6.26165 17.852 6.56723C18.4008 7.65392 18.9532 8.74062 19.4854 9.83635C19.9458 10.7838 20.6622 11.4311 21.7376 11.6427C22.0249 11.6987 22.3177 11.6807 22.6069 11.6807C28.5109 11.6789 34.4167 11.6752 40.3207 11.6716C40.6319 11.6716 40.7093 11.7458 40.7093 12.0333C40.7093 15.1179 40.7093 18.2008 40.7093 21.2855C40.7093 21.2855 40.7093 21.2855 40.7074 21.2855L40.7093 21.2801Z" fill="#FF571D"></path><path d="M31.4978 8.92682C28.8589 8.92682 26.22 8.92682 23.581 8.92682C23.2072 8.92682 22.8315 8.92682 22.4577 8.9449C22.2404 8.95575 22.1078 8.88704 22.0084 8.68633C21.4172 7.49477 20.8169 6.30681 20.2147 5.11886C19.7617 4.22745 19.0287 3.69043 18.038 3.48972C17.9127 3.46441 17.7802 3.46079 17.6512 3.46079C16.0841 3.45718 14.5151 3.45718 12.9479 3.45537C12.5244 3.45537 12.5759 3.47887 12.5796 3.09555C12.5851 2.53321 12.5778 1.96907 12.5833 1.40674C12.5925 0.560525 13.1708 0 14.0308 0C17.2056 0 20.3804 0.00542444 23.5534 0C23.8241 0 23.9806 0.0813666 24.104 0.330891C24.6436 1.43024 25.2182 2.51513 25.7559 3.61629C26.196 4.51675 26.8461 5.16226 27.8534 5.4154C28.0615 5.46783 28.2715 5.49315 28.4888 5.49315C34.1331 5.49315 39.7775 5.49315 45.4236 5.49315C46.4199 5.49315 47 6.06271 47.0018 7.04815C47.0018 12.7583 47.0018 18.4684 47.0018 24.1803C47.0018 25.0898 46.407 25.6684 45.477 25.6684C44.9264 25.6684 44.3758 25.6684 43.8252 25.6684C43.4882 25.6684 43.4845 25.6684 43.4845 25.3249C43.4826 24.2961 43.4826 23.269 43.4826 22.2402C43.4826 18.8553 43.4863 15.4723 43.4845 12.0875C43.4845 10.6156 42.665 9.47649 41.3299 9.08413C40.9082 8.96117 40.4736 8.93043 40.0371 8.93043C38.6136 8.93043 37.1919 8.93043 35.7684 8.93043C34.3449 8.93043 32.9232 8.93043 31.4997 8.93043L31.4978 8.92682Z" fill="#FF571D"></path></g><defs><clipPath id="clip0_25_676"><rect width="47" height="38" fill="white"></rect></clipPath></defs></svg>