<svg xmlns="http://www.w3.org/2000/svg" width="41" height="38" viewBox="0 0 41 38" fill="none"><g clip-path="url(#clip0_90_949)"><path d="M12.2739 8.58137C11.079 8.58137 9.88413 8.58308 8.68755 8.57794C8.55138 8.57794 8.47989 8.61219 8.41521 8.74406C8.24671 9.08826 7.98628 9.36569 7.65437 9.55577C7.46884 9.66195 7.42799 9.72531 7.56246 9.92909C8.66202 11.609 9.74626 13.301 10.8339 14.9878C11.5062 16.0324 12.1666 17.0838 12.8577 18.1165C13.1266 18.5189 13.142 18.935 13.0909 19.3803C12.8424 21.5671 11.8398 23.307 9.942 24.4201C7.86884 25.636 5.69696 25.749 3.5455 24.6205C1.42638 23.5125 0.272355 21.7161 0.0119335 19.3204C-0.045938 18.7929 0.0936344 18.3733 0.372779 17.9435C2.03233 15.3902 3.67656 12.8283 5.3242 10.2682C5.4093 10.1363 5.47568 9.99246 5.571 9.87087C5.66802 9.74586 5.63568 9.68935 5.51143 9.614C4.71995 9.13621 4.36251 8.42553 4.4374 7.50079C4.51059 6.60345 5.26632 5.79173 6.16163 5.63419C7.09949 5.46979 8.06969 5.94415 8.44755 6.76785C8.50202 6.88601 8.5667 6.88259 8.65861 6.88087C11.0484 6.87745 13.4398 6.87402 15.8296 6.87231C16.09 6.87231 16.0866 6.87231 16.0491 7.13603C15.9896 7.55388 15.9828 7.97515 16.056 8.38957C16.0883 8.57109 16.0321 8.58822 15.8806 8.58822C14.679 8.58308 13.4756 8.58651 12.2739 8.58651V8.57966V8.58137ZM6.57013 17.9281C6.57013 17.9281 6.57013 17.9315 6.57013 17.9332C7.89097 17.9332 9.2135 17.9332 10.5343 17.9332C10.5854 17.9332 10.6569 17.9692 10.6858 17.9024C10.7113 17.8442 10.6586 17.7962 10.6279 17.75C10.405 17.4041 10.1769 17.0616 9.95562 16.7157C8.85436 15.0032 7.7548 13.2924 6.65864 11.5765C6.57694 11.4498 6.53439 11.4481 6.4595 11.5714C6.34886 11.7529 6.22971 11.9293 6.11737 12.1108C4.95824 13.9791 3.76167 15.8217 2.54807 17.6558C2.49871 17.7295 2.36764 17.7928 2.4136 17.875C2.46807 17.9726 2.60764 17.9281 2.70977 17.9281C3.99656 17.9315 5.28164 17.9298 6.56843 17.9298L6.57013 17.9281Z" fill="#FF571D"></path><path d="M28.4167 8.58287C27.2219 8.58287 26.027 8.58116 24.8304 8.5863C24.6789 8.5863 24.6108 8.56746 24.6483 8.38936C24.7419 7.94583 24.7181 7.49716 24.6636 7.0502C24.6449 6.89608 24.6925 6.87039 24.8287 6.87039C27.227 6.87553 29.6235 6.87724 32.0218 6.88409C32.1392 6.88409 32.2124 6.86354 32.272 6.74709C32.7077 5.90284 33.6915 5.43533 34.5698 5.64596C35.5911 5.89085 36.2787 6.72311 36.2787 7.73005C36.2787 8.56232 35.9094 9.18909 35.1979 9.60694C35.0617 9.68742 35.0294 9.73024 35.1298 9.88436C36.0949 11.3639 37.0481 12.8521 38.0064 14.3368C38.791 15.5544 39.5553 16.784 40.3672 17.981C40.7127 18.4896 40.7672 19.0085 40.6787 19.5822C40.4251 21.2107 39.7544 22.615 38.5085 23.7161C37.3375 24.7504 35.9673 25.2864 34.42 25.3652C31.6286 25.5091 29.0176 23.7914 28.027 21.1645C27.7563 20.4487 27.6184 19.702 27.5929 18.9365C27.5844 18.6625 27.6661 18.4228 27.8125 18.195C29.1537 16.1212 30.4916 14.0457 31.8294 11.9702C32.2873 11.2612 32.7401 10.5471 33.203 9.84155C33.283 9.71996 33.2456 9.67372 33.1418 9.61379C32.752 9.38774 32.4422 9.08292 32.255 8.6685C32.1988 8.54348 32.1052 8.58458 32.0235 8.58458C30.8218 8.58116 29.6184 8.58287 28.4167 8.58458V8.58287ZM38.3434 17.933C36.9323 15.7445 35.5451 13.5936 34.146 11.4239C32.9392 13.3573 31.7426 15.2427 30.4984 17.099C30.352 17.3165 30.2142 17.5409 30.0695 17.7601C29.9912 17.8799 30.0048 17.9433 30.1631 17.933C30.1988 17.9313 30.2346 17.933 30.2686 17.933C32.9409 17.933 35.6115 17.933 38.3434 17.933Z" fill="#FF571D"></path><path d="M20.3537 29.1961C19.3205 29.1961 18.2891 29.1927 17.2559 29.1995C17.0874 29.1995 17.0363 29.155 17.0499 28.9803C17.1912 27.0007 17.3257 25.0211 17.4584 23.0414C17.5776 21.2673 17.6899 19.4932 17.8108 17.719C17.9299 15.9586 18.0559 14.1999 18.1784 12.4412C18.1938 12.222 18.2176 12.0011 18.221 11.7819C18.2227 11.6158 18.2789 11.6038 18.4082 11.6723C19.0295 11.9994 19.6933 12.1346 20.3912 12.1244C21.0652 12.1141 21.712 11.9925 22.3111 11.6688C22.449 11.5952 22.4711 11.6363 22.4797 11.775C22.6141 13.7546 22.7571 15.7343 22.8933 17.7139C23.0567 20.1131 23.2133 22.5123 23.375 24.9098C23.4652 26.2575 23.5588 27.6069 23.6592 28.9546C23.6728 29.1447 23.6218 29.203 23.4328 29.2012C22.4082 29.1944 21.3818 29.1978 20.3571 29.1978L20.3537 29.1961Z" fill="#FF571D"></path><path d="M20.3317 37.9777C17.3752 37.9777 14.4186 37.9777 11.4621 37.9777C11.2493 37.9777 11.0382 37.9914 10.8255 37.9983C10.7523 38 10.674 38.0034 10.6774 37.8972C10.6927 37.3441 10.6195 36.7858 10.7455 36.2378C10.948 35.3593 11.6935 34.6932 12.5871 34.5836C12.8118 34.5562 13.0365 34.5408 13.2646 34.5408C18.01 34.5408 22.7555 34.5408 27.501 34.5408C27.8856 34.5408 28.2669 34.5699 28.6244 34.7189C29.5009 35.0853 29.9656 35.7532 30.015 36.7036C30.0337 37.0735 30.015 37.4434 30.0235 37.8133C30.0269 37.9555 29.969 38.0017 29.8345 37.9966C29.4107 37.9829 28.9869 37.9709 28.5614 37.9709C25.8176 37.9692 23.0738 37.9709 20.3283 37.9709C20.3283 37.9726 20.3283 37.976 20.3283 37.9777H20.3317Z" fill="#FF571D"></path><path d="M20.3555 32.8352C18.2211 32.8352 16.0867 32.8335 13.9522 32.8387C13.7803 32.8387 13.7088 32.801 13.731 32.6195C13.7463 32.4927 13.7327 32.3643 13.7344 32.2359C13.7378 31.5183 14.2739 30.9481 14.9871 30.9121C15.2203 30.9001 15.4535 30.907 15.6867 30.907C18.9445 30.907 22.204 30.907 25.4619 30.9053C25.8244 30.9053 26.1682 30.9532 26.4627 31.181C26.8252 31.4601 26.9937 31.8369 26.9733 32.2958C26.9665 32.4705 27.0533 32.7017 26.9325 32.8044C26.832 32.89 26.6091 32.8352 26.4406 32.8352C24.4117 32.8352 22.3827 32.8352 20.3555 32.8352Z" fill="#FF571D"></path><path d="M17.7052 7.71976C17.7393 6.19736 18.9376 5.04657 20.4524 5.08082C21.8873 5.11336 23.0311 6.36518 22.9954 7.86361C22.9613 9.25928 21.7307 10.4443 20.3537 10.4101C18.8729 10.3724 17.6729 9.15482 17.7052 7.71976Z" fill="#FF571D"></path><path d="M21.6609 2.13198C21.6609 2.54469 21.6609 2.95569 21.6609 3.36839C21.6609 3.47799 21.6609 3.56704 21.4975 3.52081C20.7451 3.30674 19.9894 3.33928 19.2354 3.50711C19.0754 3.54307 19.0464 3.51738 19.0481 3.35469C19.0549 2.64401 19.0481 1.93333 19.0464 1.22265C19.0464 1.09422 19.0447 0.96578 19.0618 0.840769C19.1315 0.320174 19.4686 0.0153522 19.9894 0.00336481C20.2362 -0.00177264 20.483 -0.00177264 20.7315 0.00336481C21.3 0.0119272 21.6524 0.364699 21.6643 0.940093C21.6728 1.33739 21.6643 1.7364 21.6643 2.13369C21.6643 2.13369 21.6643 2.13369 21.6626 2.13369L21.6609 2.13198Z" fill="#FF571D"></path></g><defs><clipPath id="clip0_90_949"><rect width="40.7143" height="38" fill="white"></rect></clipPath></defs></svg>