<svg xmlns="http://www.w3.org/2000/svg" width="38" height="38" viewBox="0 0 38 38" fill="none"><g clip-path="url(#clip0_90_927)"><path d="M19.0743 37.9984C17.0191 37.9984 14.9624 37.9968 12.9072 37.9984C12.1279 37.9984 11.4946 37.7104 11.0135 37.101C10.7168 36.7246 10.5631 36.2935 10.5554 35.8196C10.54 34.8598 10.5093 33.9014 10.7414 32.9522C11.0135 31.84 11.5146 30.8451 12.1955 29.9294C13.5482 28.1102 15.3652 27.03 17.5971 26.6384C18.6931 26.4465 19.7906 26.48 20.8835 26.7359C23.4629 27.3393 25.3582 28.8172 26.5772 31.1315C27.1582 32.2346 27.4918 33.42 27.4518 34.6845C27.4364 35.1889 27.4918 35.6977 27.3965 36.199C27.2105 37.1802 26.3681 37.913 25.3582 37.9816C24.9247 38.0106 24.4897 37.9908 24.0562 37.9908C22.3961 37.9938 20.736 37.9908 19.0758 37.9908C19.0758 37.9923 19.0758 37.9938 19.0758 37.9968L19.0743 37.9984Z" fill="#FF571D"></path><path d="M19.016 25.7534C16.6534 25.761 14.6904 23.8321 14.7166 21.4736C14.7412 19.1318 16.6134 17.2517 19.0898 17.2456C21.3555 17.2395 23.2924 19.1989 23.2939 21.5025C23.2939 23.8108 21.3479 25.7458 19.0175 25.7534H19.016Z" fill="#FF571D"></path><path d="M32.7029 33.8755C31.4194 33.8755 30.1374 33.8725 28.8539 33.8801C28.6925 33.8801 28.6633 33.8313 28.6494 33.682C28.5941 33.0832 28.4496 32.5012 28.2482 31.9329C27.9808 31.1726 27.6534 30.4413 27.2107 29.7648C27.1292 29.6414 27.2045 29.5851 27.2752 29.5089C28.1806 28.5475 29.2904 27.9502 30.5878 27.7034C32.4954 27.3393 34.2508 27.7156 35.7772 28.9147C36.8056 29.7237 37.5588 30.7552 37.9385 32.0213C38.1906 32.8593 37.6649 33.6835 36.7994 33.8435C36.6795 33.8664 36.5596 33.8755 36.4382 33.8755C35.1931 33.8755 33.9496 33.8755 32.7045 33.8755H32.7029Z" fill="#FF571D"></path><path d="M5.28766 33.8757C4.02412 33.8757 2.75904 33.8773 1.4955 33.8757C0.746903 33.8742 0.15971 33.3897 0.0182914 32.666C-0.0308975 32.4207 0.0259772 32.1845 0.107446 31.9591C0.934436 29.6432 2.54999 28.1851 4.98176 27.6976C6.95854 27.2999 8.73549 27.7981 10.2819 29.084C10.4479 29.2227 10.5908 29.3857 10.7553 29.5274C10.8537 29.6127 10.8491 29.6828 10.7845 29.7864C10.451 30.3258 10.1466 30.8803 9.91142 31.47C9.61936 32.2013 9.41799 32.957 9.34882 33.7432C9.33652 33.891 9.25352 33.8788 9.15668 33.8788C7.867 33.8788 6.57733 33.8788 5.28766 33.8788V33.8757Z" fill="#FF571D"></path><path d="M22.2026 15.3167C22.0857 15.3151 21.9997 15.2451 21.9105 15.1872C21.1004 14.66 20.2842 14.145 19.4818 13.6057C18.9392 13.2415 19.0914 13.2354 18.5257 13.6026C17.7356 14.1146 16.9516 14.6356 16.1646 15.1506C16.1016 15.1917 16.034 15.2283 15.9679 15.2664C15.8664 15.3258 15.765 15.338 15.665 15.2618C15.5667 15.1856 15.5528 15.0927 15.5851 14.9754C15.7988 14.1892 16.0078 13.403 16.2184 12.6153C16.2907 12.3472 16.3475 12.0729 16.4428 11.8139C16.5305 11.5778 16.4428 11.4422 16.263 11.302C15.6942 10.8632 15.1332 10.4153 14.5721 9.9658C14.2893 9.73879 14.0141 9.50263 13.739 9.26952C13.6498 9.19486 13.5637 9.11106 13.6083 8.97851C13.6514 8.85205 13.7636 8.81701 13.8835 8.80939C14.4814 8.77283 15.0809 8.73778 15.6789 8.70731C16.1754 8.68141 16.6734 8.65399 17.1699 8.64027C17.3851 8.63418 17.5035 8.54581 17.5788 8.34622C17.9431 7.38331 18.3166 6.42344 18.6886 5.46358C18.7486 5.30665 18.787 5.10401 18.9991 5.09944C19.2174 5.09487 19.2451 5.30817 19.3096 5.45901C19.7108 6.4143 20.0521 7.39397 20.4225 8.36146C20.4932 8.54429 20.5932 8.62961 20.7976 8.63723C21.766 8.67684 22.7344 8.72864 23.7044 8.7774C23.8442 8.78502 23.9841 8.80025 24.124 8.81092C24.2562 8.82158 24.3592 8.87643 24.4007 9.00746C24.4407 9.13239 24.3561 9.2101 24.2716 9.28018C23.4984 9.92162 22.7221 10.56 21.9197 11.1649C21.371 11.5778 21.4739 11.5123 21.6123 12.0348C21.8659 12.9871 22.1395 13.9332 22.4039 14.8824C22.4362 14.9982 22.4792 15.1156 22.3855 15.2253C22.3378 15.2801 22.2794 15.3167 22.2041 15.3182L22.2026 15.3167Z" fill="#FF571D"></path><path d="M29.1093 15.0212C29.1677 14.6647 29.2968 14.2808 29.4013 13.8907C29.5996 13.1533 29.8056 12.4174 30.0162 11.6815C30.0485 11.5672 30.0285 11.4987 29.9409 11.4194C29.4044 10.941 28.8095 10.5327 28.2531 10.0802C27.9272 9.8151 27.6044 9.54847 27.2801 9.28185C27.1832 9.20262 27.0879 9.11425 27.134 8.97865C27.1755 8.85676 27.2954 8.82629 27.4138 8.8141C28.0364 8.74554 28.662 8.74554 29.2861 8.70745C29.7703 8.6785 30.2545 8.65108 30.7387 8.63889C30.9477 8.63279 31.0415 8.53071 31.1107 8.35245C31.478 7.39106 31.8516 6.4312 32.2251 5.47133C32.2359 5.44238 32.2497 5.41344 32.262 5.38296C32.3189 5.24889 32.3665 5.09348 32.551 5.1011C32.7231 5.10872 32.7646 5.25498 32.8154 5.38754C33.2073 6.39463 33.6039 7.39868 33.9913 8.40883C34.0512 8.56271 34.1465 8.6267 34.3018 8.63432C35.0596 8.67088 35.819 8.70593 36.5768 8.74554C36.9334 8.76382 37.29 8.79125 37.6466 8.81258C37.7773 8.8202 37.8864 8.85524 37.931 8.99236C37.9771 9.13406 37.8926 9.21938 37.7957 9.29861C36.9611 9.98575 36.1233 10.6668 35.2564 11.3143C35.0811 11.4454 35.0212 11.5733 35.0827 11.7958C35.367 12.8303 35.6422 13.8679 35.9481 14.8978C35.9896 15.038 36.0203 15.1705 35.8805 15.2757C35.7467 15.3762 35.6299 15.3153 35.5131 15.2391C34.62 14.6525 33.7238 14.072 32.8353 13.4778C32.6263 13.3377 32.4649 13.33 32.2528 13.4748C31.6026 13.9197 30.9385 14.3463 30.2791 14.779C30.0239 14.9451 29.7703 15.1157 29.5074 15.2696C29.2907 15.396 29.1031 15.294 29.1108 15.0273L29.1093 15.0212Z" fill="#FF571D"></path><path d="M1.99235 14.9967C2.0646 14.7285 2.15221 14.3933 2.24444 14.0581C2.46118 13.2735 2.67792 12.4873 2.89927 11.7042C2.93616 11.5716 2.90849 11.4802 2.79782 11.3918C1.98159 10.7428 1.16844 10.0892 0.35528 9.43706C0.281497 9.37764 0.207713 9.31518 0.135467 9.25423C0.053998 9.18567 -0.00595105 9.1034 0.024792 8.99065C0.0586094 8.86724 0.164673 8.8322 0.275348 8.81848C0.427527 8.8002 0.579705 8.78801 0.73342 8.78039C1.67108 8.73316 2.60721 8.67984 3.54488 8.64784C3.80158 8.6387 3.9307 8.53967 4.01832 8.30351C4.37494 7.34364 4.73002 6.38378 5.12507 5.43915C5.18656 5.29136 5.2173 5.09634 5.4325 5.10243C5.63541 5.10853 5.65539 5.29593 5.71688 5.43915C6.13037 6.4112 6.47623 7.40916 6.86513 8.39035C6.93123 8.55643 7.02961 8.62803 7.20484 8.63565C8.18708 8.68136 9.16932 8.73164 10.15 8.78192C10.2899 8.78954 10.4298 8.80629 10.5697 8.81391C10.6911 8.82153 10.771 8.88095 10.8156 8.99217C10.8617 9.10949 10.8002 9.19329 10.7234 9.2588C10.502 9.44925 10.2761 9.63665 10.047 9.81796C9.40758 10.3223 8.76966 10.8281 8.12406 11.3233C7.96266 11.4482 7.90271 11.567 7.96266 11.7727C8.25933 12.8118 8.54063 13.854 8.83115 14.8946C8.86958 15.0348 8.91108 15.1658 8.76966 15.2709C8.62978 15.3745 8.50681 15.309 8.38538 15.2282C7.4969 14.6447 6.60535 14.0673 5.72302 13.4761C5.50936 13.3329 5.34488 13.3268 5.12353 13.4761C4.26426 14.0551 3.39116 14.6158 2.52113 15.181C2.45657 15.2222 2.39508 15.2694 2.32438 15.2968C2.1476 15.3669 1.98774 15.2542 1.99081 14.9951L1.99235 14.9967Z" fill="#FF571D"></path><path d="M6.1531 20.349C7.89009 20.3399 9.32425 21.7446 9.35192 23.4389C9.38266 25.4409 7.75328 26.7024 6.18999 26.7024C4.40689 26.7024 2.93122 25.287 2.92969 23.5349C2.92969 21.7401 4.39613 20.314 6.1531 20.3475V20.349Z" fill="#FF571D"></path><path d="M31.825 20.3491C33.811 20.3537 35.0469 21.8742 35.0669 23.538C35.0884 25.2856 33.6312 26.6995 31.8389 26.701C30.0635 26.701 28.6523 25.2642 28.6523 23.4542C28.6523 21.7508 30.0804 20.3522 31.825 20.3491Z" fill="#FF571D"></path><path d="M22.9467 6.31679C22.6516 6.31983 22.4733 6.19185 22.3626 5.97093C22.2427 5.73173 22.2996 5.50928 22.4794 5.32645C22.6931 5.1101 22.919 4.90441 23.145 4.70025C23.6492 4.2447 24.1534 3.78914 24.6637 3.33968C24.8974 3.134 25.174 3.12485 25.42 3.29093C25.6429 3.44176 25.7413 3.70992 25.6629 3.95521C25.6183 4.09234 25.5261 4.19747 25.4215 4.29041C24.7237 4.91051 24.0243 5.53061 23.3264 6.14919C23.208 6.25432 23.0743 6.31831 22.9467 6.31526V6.31679Z" fill="#FF571D"></path><path d="M12.9319 3.17969C13.078 3.18121 13.2117 3.2254 13.3193 3.32138C14.0494 3.98262 14.8088 4.61187 15.5128 5.30206C15.6804 5.46508 15.7372 5.67077 15.6635 5.89473C15.5897 6.11718 15.4221 6.24669 15.1946 6.29849C14.9871 6.34572 14.8211 6.25583 14.6705 6.12785C14.2708 5.78351 13.8711 5.43918 13.4745 5.0918C13.1548 4.81146 12.8366 4.52807 12.5215 4.24011C12.314 4.05118 12.2571 3.78608 12.357 3.5484C12.4523 3.32138 12.6783 3.17664 12.9319 3.18121V3.17969Z" fill="#FF571D"></path><path d="M19.6157 1.71551C19.6157 2.05071 19.6188 2.3859 19.6157 2.72109C19.6142 2.91458 19.5711 3.10199 19.4236 3.24063C19.2376 3.41432 19.0208 3.47984 18.7733 3.38233C18.5259 3.28482 18.3998 3.08523 18.3967 2.83688C18.386 2.11013 18.386 1.38337 18.3967 0.656616C18.3998 0.397605 18.5105 0.178207 18.7657 0.0593665C18.9778 -0.0396672 19.1776 -0.00310094 19.3605 0.127928C19.5588 0.271146 19.6157 0.48445 19.6188 0.712989C19.6234 1.04818 19.6188 1.38337 19.6188 1.71856L19.6157 1.71551Z" fill="#FF571D"></path></g><defs><clipPath id="clip0_90_927"><rect width="38" height="38" fill="white"></rect></clipPath></defs></svg>