<svg xmlns="http://www.w3.org/2000/svg" width="47" height="45" viewBox="0 0 47 45" fill="none"><g clip-path="url(#clip0_25_698)"><path d="M47 10.5371C46.9873 11.5438 46.6147 12.6146 45.778 13.4699C43.7982 15.4899 41.8183 17.512 39.783 19.4744C37.9905 21.2042 35.1824 21.1381 33.4218 19.3869C31.4739 17.448 29.5323 15.5048 27.6184 13.5339C26.3581 12.2349 25.9749 10.68 26.5156 8.93518C26.7775 8.08837 27.3459 7.43781 27.9612 6.8235C29.7963 4.98912 31.6293 3.15047 33.458 1.30755C34.0307 0.73164 34.6992 0.322103 35.4847 0.14293C37.1708 -0.243144 38.6781 0.16426 39.9086 1.36727C41.8289 3.24645 43.7066 5.16829 45.5843 7.09013C46.5423 8.07131 47.0064 9.19967 47.0043 10.5392L47 10.5371ZM38.3865 7.87721C38.3865 7.87721 38.3801 7.87721 38.3758 7.87721C38.3758 7.14772 38.395 6.4161 38.3716 5.68661C38.346 4.89953 37.7712 4.2575 36.9899 4.08259C36.2469 3.91835 35.4656 4.28736 35.0973 4.97845C34.9057 5.3368 34.8503 5.725 34.8503 6.12601C34.8503 7.29276 34.8503 8.45952 34.8567 9.62627C34.8567 9.81824 34.8737 10.0123 34.9036 10.2022C35.0611 11.2026 36.0085 11.8617 36.9941 11.6612C37.8415 11.4905 38.363 10.8463 38.3822 9.91636C38.3971 9.23593 38.3843 8.55763 38.3843 7.87721H38.3865ZM38.4184 14.8159C38.4226 13.696 37.6711 12.8428 36.6727 12.8322C35.6423 12.8215 34.8546 13.6448 34.8482 14.7348C34.8418 15.829 35.638 16.6929 36.6599 16.6993C37.669 16.7057 38.4141 15.908 38.4184 14.8137V14.8159Z" fill="#FF571D"></path><path d="M0.00856863 23.8555C0.00856863 20.7755 0.0383734 17.6933 5.29797e-05 14.6132C-0.0446542 11.0532 2.68887 8.54267 4.97532 7.92624C5.73321 7.72147 6.50601 7.66174 7.28519 7.66174C11.7218 7.66174 16.1606 7.66174 20.5973 7.66174C21.583 7.66174 22.145 8.07128 22.343 8.91168C22.5537 9.80968 21.8448 10.7077 20.9187 10.7077C16.3671 10.7077 11.8134 10.7077 7.26177 10.7077C6.3655 10.7077 5.49903 10.825 4.73901 11.3604C3.74694 12.06 3.2062 13.0241 3.07207 14.2229C3.00395 14.8308 3.03375 15.4429 3.03375 16.053C3.03375 21.7268 3.0295 27.4027 3.0295 33.0765C3.0295 34.7872 3.79377 36.0392 5.31595 36.8135C5.73747 37.0268 6.19732 37.1185 6.67419 37.1164C9.27359 37.1121 11.873 37.1249 14.4703 37.1036C15.1941 37.0972 15.7434 37.3276 16.2458 37.8608C17.4784 39.1662 18.7579 40.4268 20.0182 41.7045C20.08 41.7664 20.1545 41.8197 20.2141 41.8837C20.3631 42.0479 20.5079 42.0117 20.6462 41.8751C20.8102 41.713 20.9677 41.5467 21.1295 41.3824C22.3877 40.1133 23.6459 38.8463 24.9041 37.5771C25.2511 37.2273 25.6833 37.11 26.1601 37.11C28.7404 37.1143 31.3227 37.1057 33.903 37.1249C35.2336 37.1356 36.281 36.6066 37.0857 35.5742C37.652 34.8512 37.8074 33.9937 37.8095 33.1C37.8138 30.7089 37.8095 28.3199 37.8117 25.9288C37.8117 25.0137 38.4993 24.3354 39.3828 24.3546C40.1577 24.3717 40.7602 24.9711 40.8262 25.8051C40.8518 26.1314 40.8539 26.4599 40.856 26.7863C40.8581 28.9107 40.8645 31.0352 40.856 33.1597C40.8432 36.5469 38.6249 39.3198 35.3506 40.0429C34.9014 40.1431 34.4437 40.1794 33.9818 40.1794C31.6208 40.1794 29.262 40.1794 26.901 40.1751C26.6881 40.1751 26.5412 40.2434 26.3943 40.3927C25.2042 41.6042 24.0078 42.8094 22.8071 44.0103C21.5468 45.2687 19.4881 45.3285 18.1724 44.1276C17.6381 43.6391 17.1506 43.0995 16.6396 42.5833C15.8945 41.8282 15.1473 41.0731 14.4043 40.3138C14.2787 40.1858 14.1339 40.1709 13.97 40.1709C11.6005 40.1751 9.23102 40.2199 6.86367 40.1645C3.92364 40.0962 1.79686 38.6906 0.557828 36.0136C0.138432 35.1092 5.29797e-05 34.1195 5.29797e-05 33.117C5.29797e-05 30.0263 5.29797e-05 26.9377 5.29797e-05 23.847L0.00856863 23.8555Z" fill="#FF571D"></path><path d="M28.5636 21.379H28.5573C27.15 21.3833 26.0026 22.5074 26.0026 23.8853C26.0026 24.5679 26.2857 25.2419 26.7775 25.7346C27.2629 26.2209 27.8952 26.4876 28.5573 26.4876H28.5636C29.2321 26.4876 29.8942 26.2018 30.3839 25.7048C30.8629 25.2184 31.1354 24.5657 31.129 23.9152C31.1141 22.5394 29.941 21.379 28.5658 21.379H28.5636Z" fill="#FF571D"></path><path d="M20.4461 21.3791H20.4291C19.0155 21.3791 17.8957 22.5096 17.8766 23.9579C17.868 24.6127 18.1214 25.2377 18.5897 25.7155C19.0709 26.2082 19.7159 26.4834 20.4036 26.4876H20.4249C21.1061 26.4876 21.7469 26.2253 22.2302 25.7475C22.7049 25.2782 22.9689 24.6575 22.9732 24.0005C22.9774 23.3009 22.7198 22.6461 22.2451 22.1512C21.7682 21.6564 21.1295 21.3812 20.444 21.377L20.4461 21.3791Z" fill="#FF571D"></path><path d="M12.3392 21.3791C11.6473 21.3727 10.9959 21.6266 10.5126 22.1022C10.0272 22.5779 9.75473 23.2285 9.75047 23.9281C9.7377 25.3252 10.8554 26.4728 12.2434 26.4877C12.2519 26.4877 12.2605 26.4877 12.269 26.4877C12.9481 26.4877 13.5868 26.2232 14.0743 25.7433C14.5703 25.2527 14.8428 24.6 14.845 23.9046C14.8492 22.531 13.7252 21.3983 12.3414 21.3813L12.3392 21.3791Z" fill="#FF571D"></path></g><defs><clipPath id="clip0_25_698"><rect width="47" height="45" fill="white"></rect></clipPath></defs></svg>