<svg xmlns="http://www.w3.org/2000/svg" width="44" height="44" viewBox="0 0 44 44" fill="none"><g clip-path="url(#clip0_25_728)"><path d="M23.9158 28.1419C24.9595 27.6999 25.8716 27.1873 26.7084 26.5524C29.1296 24.7136 30.62 22.2916 31.1794 19.31C31.5602 17.2736 31.4521 15.2514 30.7281 13.2997C29.2754 9.38692 26.511 6.83797 22.4819 5.79393C19.8022 5.09791 17.1459 5.34245 14.6119 6.5605C11.7158 7.95254 9.77415 10.1958 8.60822 13.1586C7.99704 14.7059 7.8513 16.3142 7.91242 17.9555C7.91242 18.0308 7.93122 18.106 7.94062 18.1813C7.98764 18.581 7.98764 18.5857 8.36845 18.487C9.08776 18.3035 9.80236 18.1107 10.517 17.9226C10.5687 17.9085 10.6157 17.885 10.6956 17.9179C10.4841 18.2847 10.2772 18.6563 10.0609 19.0184C9.00783 20.7584 7.95003 22.4938 6.89692 24.2339C6.8217 24.3561 6.76999 24.4361 6.59604 24.342C4.85653 23.3779 3.11233 22.428 1.37283 21.4686C0.945006 21.2334 0.531286 20.9842 0.0799561 20.7255C0.625313 20.575 1.12836 20.4386 1.63611 20.3023C1.93229 20.2223 2.22377 20.1424 2.52466 20.0765C2.67981 20.0389 2.70801 19.9684 2.67981 19.8179C2.43063 18.3976 2.38832 16.9726 2.53877 15.543C2.82555 12.8576 3.65299 10.351 5.11511 8.07012C7.73377 3.97862 11.4243 1.42027 16.1586 0.371527C18.561 -0.159897 20.9634 -0.0987597 23.3705 0.423258C26.9341 1.19453 29.896 2.98632 32.336 5.64814C34.5456 8.05601 35.9607 10.8824 36.5249 14.1227C36.7929 15.6746 36.9151 17.236 36.7411 18.8068C36.3885 22.0188 35.326 24.9628 33.3421 27.54C32.2843 28.9179 31.0572 30.136 29.6374 31.1424C28.7206 31.7961 27.7615 32.3792 26.7272 32.826C26.605 32.8777 26.5298 32.9201 26.5016 32.7225C26.2618 30.9025 25.4579 29.3835 24.0475 28.1984C24.024 28.1796 23.9911 28.1702 23.9205 28.1325L23.9158 28.1419Z" fill="#FF571D"></path><path d="M13.3378 42.4762C13.6763 41.879 13.9819 41.324 14.2968 40.7785C14.8469 39.8332 15.397 38.8926 15.9564 37.9521C16.0175 37.8486 15.9846 37.811 15.9141 37.7451C14.5742 36.5506 13.9583 35.0363 14.0195 33.2586C14.1135 30.6673 16.2385 28.3347 18.8054 27.9867C20.2206 27.7986 21.5651 28.0337 22.7405 28.8661C24.1415 29.8537 25.0347 31.2035 25.2087 32.9294C25.3779 34.5942 24.9219 36.0944 23.7701 37.3454C23.7325 37.383 23.6949 37.4253 23.6572 37.463C23.2623 37.8486 23.2529 37.8533 23.535 38.3377C24.306 39.6498 25.0865 40.9525 25.8293 42.2834C25.8575 42.3351 25.928 42.3869 25.8857 42.4433C25.8434 42.5091 25.7729 42.448 25.7164 42.4433C25.1617 42.3304 24.6069 42.2223 24.0569 42.1C23.9158 42.0671 23.8688 42.1 23.8265 42.227C23.6525 42.7631 23.4739 43.2992 23.2952 43.8354C23.2764 43.8918 23.2811 43.9717 23.2153 43.9905C23.1354 44.0094 23.1307 43.9153 23.1025 43.8683C22.1998 42.3587 21.3301 40.8349 20.4791 39.2971C20.4086 39.1701 20.3334 39.1231 20.1923 39.1372C19.8162 39.1701 19.4448 39.1607 19.0687 39.1372C18.9418 39.1278 18.876 39.1795 18.8148 39.283C17.9357 40.8161 17.0565 42.3445 16.1774 43.873C16.1492 43.9247 16.1445 44.0047 16.0693 44C15.9893 44 15.994 43.92 15.9752 43.8636C15.7919 43.3133 15.6038 42.7631 15.4346 42.2129C15.3876 42.0671 15.3076 42.0906 15.2089 42.1094C14.64 42.227 14.0712 42.3398 13.5023 42.4574C13.4647 42.4668 13.4318 42.4668 13.3378 42.4809V42.4762ZM19.5106 37.2654C21.2737 37.383 23.2905 35.9581 23.3705 33.7054C23.4504 31.4057 21.6968 29.9572 19.8491 29.8208C17.9028 29.6797 16.0599 31.2552 15.9047 33.221C15.7167 35.5536 17.5831 37.2419 19.5154 37.2654H19.5106Z" fill="#FF571D"></path><path d="M38.7627 37.0586C38.7627 36.8094 38.7627 36.5131 38.7627 36.2168C38.7627 35.6807 38.7533 35.1446 38.7674 34.6084C38.7721 34.4015 38.7204 34.3451 38.5089 34.3451C34.6303 34.3498 30.7469 34.3498 26.8683 34.3498C26.7884 34.3498 26.7038 34.3498 26.6191 34.3498C26.6379 34.251 26.7132 34.2557 26.7649 34.2369C29.4306 33.1129 31.7107 31.4481 33.6148 29.2707C33.8451 29.0073 34.0614 28.9227 34.3905 28.9227C35.7774 28.9368 37.1596 28.9274 38.5465 28.9368C38.7345 28.9368 38.7722 28.8803 38.7722 28.7063C38.7627 27.9351 38.7722 27.1591 38.7722 26.3878C38.7722 26.3032 38.7722 26.2232 38.7722 26.1903C39.0448 26.4396 39.3504 26.6888 39.6231 26.971C41.0523 28.4618 42.4956 29.9385 43.9013 31.4528C44.0424 31.608 44.0424 31.6833 43.8919 31.8337C42.6931 33.0283 41.5742 34.298 40.3941 35.5114C39.8723 36.0475 39.3081 36.546 38.7674 37.0586H38.7627Z" fill="#FF571D"></path><path d="M7.24479 28.932C9.58607 28.932 11.9273 28.932 14.2686 28.932C14.3156 28.932 14.3862 28.8991 14.4097 28.9696C14.4285 29.0307 14.3673 29.0637 14.3391 29.1013C13.775 29.8396 13.2766 30.6156 13.0134 31.5186C12.7548 32.3933 12.6655 33.2868 12.7548 34.1945C12.7689 34.3262 12.7266 34.3638 12.609 34.3544C12.5808 34.3544 12.5479 34.3544 12.515 34.3544C8.42953 34.3544 4.34405 34.3544 0.258575 34.3591C0.0423122 34.3591 0 34.298 0 34.0957C0.00940271 32.4732 0.00940271 30.8508 0 29.2283C0 28.9978 0.0564163 28.932 0.291484 28.932C2.60925 28.9414 4.92702 28.9367 7.24479 28.9367V28.932Z" fill="#FF571D"></path><path d="M13.681 27.6434C12.9852 27.6434 12.2894 27.634 11.5936 27.6434C11.3773 27.6434 11.3773 27.5776 11.429 27.4035C11.8427 26.0397 12.5856 24.8781 13.5775 23.8764C14.8563 22.5831 16.3937 21.7601 18.1896 21.4591C19.5953 21.224 20.9775 21.351 22.3315 21.7883C24.0522 22.3386 25.425 23.3544 26.4969 24.7982C26.5815 24.9157 26.5768 24.9769 26.464 25.0756C25.345 26.0773 24.0569 26.764 22.6277 27.206C22.5148 27.2436 22.4208 27.2248 22.3221 27.1778C21.3019 26.7075 20.2253 26.6088 19.1204 26.6652C18.0626 26.7216 17.0801 27.0132 16.1633 27.5493C16.0223 27.634 15.8577 27.6434 15.6979 27.6434C15.0256 27.6434 14.3533 27.6434 13.6763 27.6434H13.681Z" fill="#FF571D"></path><path d="M19.6235 19.0513C17.4515 19.0513 15.6697 17.2595 15.6697 15.0868C15.6697 12.9329 17.4938 11.0893 19.6564 11.1223C22.0635 11.1599 23.6197 13.0222 23.5962 15.209C23.5727 17.2877 21.8567 19.0466 19.6282 19.0513H19.6235Z" fill="#FF571D"></path><path d="M19.6375 36.0005C18.2976 35.9958 17.1834 34.8765 17.1928 33.5409C17.1975 32.1959 18.3117 31.0813 19.6516 31.1001C21.0338 31.1189 22.054 32.1723 22.0822 33.5456C22.1057 34.9 20.9821 36.0099 19.6422 36.0005H19.6375Z" fill="#FF571D"></path></g><defs><clipPath id="clip0_25_728"><rect width="44" height="44" fill="white"></rect></clipPath></defs></svg>