<svg xmlns="http://www.w3.org/2000/svg" width="45" height="40" viewBox="0 0 45 40" fill="none"><g clip-path="url(#clip0_25_706)"><path d="M11.6107 15.0275C11.4802 14.8276 11.3603 14.6438 11.2403 14.4618C10.7888 13.7783 10.3585 13.0788 9.8805 12.4167C9.03214 11.2389 7.84338 10.7553 6.43063 10.7857C5.90856 10.7964 5.39531 10.8731 4.91734 11.1051C4.88559 11.1212 4.84855 11.1319 4.79211 11.0855C5.02846 10.6607 5.25598 10.2235 5.50819 9.80239C6.74986 7.73235 8.26315 5.905 10.1451 4.39352C12.5596 2.45553 15.2793 1.18317 18.2777 0.485419C20.574 -0.0481525 22.8863 -0.140947 25.2127 0.214172C29.2763 0.835185 32.8655 2.50014 35.9115 5.30362C38.1761 7.38972 39.8729 9.89162 41.0105 12.7683C41.4038 13.7622 41.7142 14.7901 41.9188 15.8448C41.9452 15.9822 42.0087 16.0072 42.1269 16.0072C42.6613 16.0036 43.1957 15.9929 43.7301 16.0072C44.4568 16.025 45.023 16.6442 44.9983 17.3777C44.9895 17.6454 44.8766 17.8809 44.7355 18.0986C43.9947 19.2443 43.2522 20.3899 42.5044 21.5303C41.5802 22.9365 40.6489 24.3355 39.7212 25.7382C39.6436 25.8541 39.5607 25.9684 39.4795 26.0826C38.9169 26.8767 37.8622 26.8695 37.3225 26.0576C36.6276 25.0136 35.945 23.9608 35.2554 22.9133C34.2606 21.4036 33.2659 19.8956 32.2694 18.3877C32.0666 18.079 31.8426 17.7774 31.8179 17.392C31.772 16.6746 32.3329 16.0482 33.0472 16.0072C33.2147 15.9982 33.3841 15.9929 33.5516 16.0072C33.7439 16.0232 33.7562 15.9554 33.6945 15.793C33.2394 14.5974 32.6698 13.4642 31.8478 12.4827C30.1088 10.4073 27.9729 8.94939 25.3273 8.34444C20.3677 7.21127 15.655 9.07431 12.7854 13.0324C12.3691 13.6052 12.0375 14.2334 11.7077 14.8615C11.6813 14.9115 11.6513 14.9597 11.6107 15.0328V15.0275Z" fill="#FF571D"></path><path d="M40.208 28.9574C40.1956 29.0645 40.118 29.1483 40.0722 29.2429C38.6594 32.0981 36.6064 34.3913 34.0596 36.2525C31.5833 38.0602 28.8213 39.1648 25.8265 39.6984C24.4596 39.9411 23.0821 40.0482 21.694 39.9786C17.5387 39.7698 13.8101 38.3743 10.4872 35.8528C7.79576 33.8095 5.79216 31.2023 4.3794 28.1276C3.81148 26.8909 3.38465 25.6007 3.11657 24.2605C3.07424 24.0482 2.99663 23.9732 2.76911 23.9857C2.27879 24.0107 1.78847 24.0089 1.29815 23.9964C0.532691 23.9768 -0.0334686 23.354 0.00180611 22.5849C0.0141523 22.3083 0.151724 22.0763 0.298114 21.855C1.15 20.5612 2.00365 19.2692 2.85553 17.9755C3.72858 16.6514 4.62104 15.3397 5.46587 13.9978C6.00204 13.1466 7.24371 13.2233 7.75872 14.0299C9.39018 16.5853 11.0816 19.1033 12.7483 21.6355C12.833 21.764 12.9141 21.8961 12.9935 22.0299C13.4926 22.865 12.8612 23.975 11.9035 23.9982C11.7642 24.0018 11.6248 23.9982 11.4855 23.9964C11.2121 23.9893 11.2033 23.9946 11.3003 24.2623C11.5772 25.0225 11.9405 25.7381 12.3691 26.4216C13.341 27.967 14.6214 29.1894 16.1506 30.1673C17.6163 31.1042 19.2019 31.6984 20.918 31.9072C23.6377 32.2373 26.2004 31.7555 28.5779 30.3261C30.6503 29.0787 32.2218 27.3781 33.2906 25.1938C33.3188 25.1367 33.347 25.0422 33.3894 25.035C33.474 25.019 33.4864 25.126 33.5252 25.1831C34.1248 26.0593 34.6398 26.998 35.3065 27.8224C36.1849 28.9074 37.3313 29.4428 38.7458 29.3232C39.2203 29.284 39.6665 29.168 40.0969 28.9681C40.1286 28.9538 40.1568 28.9235 40.2097 28.961L40.208 28.9574Z" fill="#FF571D"></path><path d="M23.814 12.8164C23.814 12.9842 23.8228 13.2144 23.8105 13.4428C23.8034 13.5891 23.8616 13.6498 23.9939 13.6944C24.4595 13.8479 24.8776 14.0906 25.225 14.4403C25.9552 15.1755 25.7312 16.3283 24.7823 16.687C24.2673 16.8815 23.8087 16.7441 23.4101 16.364C22.9463 15.9233 22.1896 15.8804 21.6887 16.2534C21.246 16.5853 21.0608 17.1724 21.2266 17.7221C21.3906 18.2717 21.8545 18.6411 22.4277 18.6625C23.239 18.6946 24.0204 18.8392 24.6888 19.3353C25.9093 20.24 26.5584 21.4624 26.4296 23.0024C26.2991 24.5853 25.4472 25.6899 24.0027 26.3163C23.8493 26.3823 23.7946 26.4608 23.7999 26.6268C23.814 27.064 23.8105 27.5012 23.8105 27.9384C23.8105 28.6647 23.2549 29.2768 22.56 29.3214C21.9004 29.3625 21.2866 28.8128 21.209 28.0919C21.1561 27.6047 21.1896 27.114 21.1984 26.6268C21.2019 26.4608 21.1614 26.377 21.0026 26.3163C20.5529 26.145 20.1507 25.8862 19.8033 25.5525C19.4082 25.1742 19.2248 24.712 19.3959 24.166C19.5652 23.6252 19.9338 23.2933 20.5017 23.2237C20.8792 23.1773 21.2107 23.2898 21.4859 23.5592C21.9303 23.9964 22.4507 24.0999 23.0239 23.8822C23.6094 23.6592 23.9057 23.0935 23.8123 22.4296C23.7311 21.8514 23.2373 21.3767 22.6517 21.3321C22.1244 21.2929 21.6041 21.2393 21.1032 21.052C19.8844 20.6005 19.1331 19.6957 18.7274 18.4876C18.0836 16.5693 19.2301 14.2637 21.0273 13.6908C21.1596 13.648 21.1931 13.5784 21.1913 13.4517C21.1878 12.9842 21.1843 12.5184 21.1913 12.0509C21.2019 11.4584 21.4436 11.0033 21.9991 10.7642C22.7734 10.4323 23.6412 10.9337 23.777 11.7743C23.8281 12.099 23.7981 12.4256 23.814 12.8128V12.8164Z" fill="#FF571D"></path></g><defs><clipPath id="clip0_25_706"><rect width="45" height="40" fill="white"></rect></clipPath></defs></svg>